<svg width="26" height="26" viewBox="0 0 26 26" fill="none" xmlns="http://www.w3.org/2000/svg">
<path d="M24.4599 7.03678C24.4549 7.48934 24.3916 7.92861 24.2773 8.34755L17.588 1.73931C18.0261 1.61476 18.4872 1.5454 18.9633 1.54011L18.9462 0C15.2259 0.0412777 12.2099 3.09527 12.223 6.806L12.229 12.2289L6.80785 12.223C6.79969 12.2229 6.79204 12.2229 6.78387 12.2229C3.08233 12.2229 0.0411237 15.2342 0 18.9462L1.54011 18.9632C1.54514 18.5101 1.60804 18.0705 1.7215 17.6513L8.41075 24.2594C7.97282 24.3847 7.51219 24.4547 7.03673 24.4599L7.05382 26C10.7566 25.9589 13.7727 22.9066 13.7772 19.194L13.771 13.771L19.1958 13.7771C22.9065 13.7727 25.9589 10.7567 26 7.05387L24.4599 7.03678ZM13.7692 12.2307L13.7659 9.18471L16.8528 12.2342L13.7692 12.2307ZM6.78577 13.7632C6.79188 13.7632 6.7982 13.7632 6.80431 13.7632L6.9533 13.7634L12.2367 18.9827L12.237 19.194C12.2362 19.8347 12.1192 20.4499 11.9065 21.0197L4.91344 14.1113C5.49579 13.8866 6.12718 13.7632 6.78577 13.7632ZM9.89891 23.5645L2.39503 16.1517C2.70426 15.6787 3.08751 15.2586 3.52766 14.9074L11.1276 22.415C10.7819 22.8602 10.3666 23.2488 9.89891 23.5645ZM12.2342 16.8152L9.14739 13.7658L12.2307 13.7693L12.2342 16.8152ZM19.047 12.2367L13.7635 7.01737L13.7633 6.80246C13.761 6.16096 13.8761 5.54503 14.0879 4.97474L21.0813 11.8834C20.4949 12.1108 19.859 12.2361 19.1958 12.2369L19.047 12.2367ZM22.4666 11.0869L14.8664 3.57879C15.2122 3.13434 15.6281 2.74646 16.097 2.43149L23.601 9.84449C23.2911 10.3163 22.9072 10.7358 22.4666 11.0869Z" fill="white"/>
</svg>
