<svg width="170" height="101" viewBox="0 0 170 101" fill="none" xmlns="http://www.w3.org/2000/svg">
<path fill-rule="evenodd" clip-rule="evenodd" d="M133.537 21.4875C129.563 21.4875 126.343 23.2132 126.343 25.342C126.343 27.4708 129.563 29.1967 133.537 29.1967C137.511 29.1967 140.732 27.4708 140.732 25.342C140.732 23.2132 137.511 21.4875 133.537 21.4875ZM14.3049 44.7153C16.178 44.9434 17.6966 46.3937 17.6966 47.9549C17.6966 49.5159 16.178 50.5965 14.3049 50.3681C12.4314 50.1403 10.9128 48.6899 10.9128 47.1287C10.9128 45.5675 12.4314 44.4869 14.3049 44.7153ZM128.257 31.3167C135.891 29.3313 144.103 29.6473 150.852 32.1244C154.248 33.3711 157.275 35.1656 159.672 37.4899C162.073 39.8177 163.842 42.676 164.719 46.0469C165.013 47.1769 165.206 48.3642 165.289 49.6082C174.244 67.9929 169.164 94.7298 160.61 100.124H16.2149C2.06304 92.8338 -1.54939 79.015 0.812642 68.1498C-0.165114 58.3226 2.53001 47.8889 20.3012 52.3467C11.8193 -6.1432 119.047 -6.88992 124.543 32.9663C146.325 28.6301 158.754 36.8479 164.939 48.9136C164.839 47.9456 164.67 47.0141 164.438 46.1201C163.575 42.8031 161.833 39.99 159.469 37.6984C157.103 35.4035 154.111 33.6308 150.752 32.3975C144.057 29.9398 135.907 29.627 128.33 31.5977L128.257 31.3167ZM20.4727 53.5572C20.427 53.2884 20.3949 53.027 20.3602 52.7639L20.2292 52.6286C3.39421 48.4065 0.351782 57.8368 1.0334 67.2098C3.58609 57.129 11.3386 49.922 20.4727 53.5572Z" fill="#DADEE9"/>
<path fill-rule="evenodd" clip-rule="evenodd" d="M19.8439 45.6802C42.1392 32.5575 74.33 17.4861 68.5004 43.9924C68.5004 43.9924 88.9834 35.4565 86.7985 43.3788C86.7985 43.3788 130.381 32.9385 159.176 40.8205C160.032 41.693 160.832 42.6143 161.575 43.5786C132.904 34.1667 86.4275 45.2952 86.4275 45.2952C88.6121 37.3726 68.1294 45.9085 68.1294 45.9085C73.9252 19.5542 42.1365 34.3025 19.8579 47.3706C19.8398 46.7999 19.8405 46.2392 19.8439 45.6802Z" fill="#EAEDF5"/>
<path fill-rule="evenodd" clip-rule="evenodd" d="M125.696 42.7296C125.679 44.1888 125.737 45.9928 125.992 47.8617C124.003 46.812 123.829 44.0104 125.696 42.7296ZM99.9311 56.2892L99.9341 56.221C100.819 56.2635 100.882 54.9622 99.9972 54.9194C98.925 54.8673 97.8527 54.8156 96.7805 54.7635C95.933 54.7224 95.8419 56.0225 96.7362 56.066L96.7179 56.452L95.0727 56.2222C94.8407 56.1882 94.5854 56.4779 94.4337 56.8267L93.2501 60.1354L96.046 63.2992L92.7875 61.1283L92.1328 62.5714L96.268 65.7379L96.1907 67.3324C96.14 68.3743 97.0911 69.1829 98.1031 68.9793L98.7686 70.3432L99.262 72.4524L98.1601 72.9686C98.959 81.5205 103.684 96.4989 110.979 100.124H117.063C117.847 99.5905 118.612 98.8303 118.965 98.1218C118.978 98.8553 118.992 99.5256 119.007 100.124H152.376C153.091 96.4369 153.831 92.3972 154.53 88.4693C154.997 91.9437 155.289 95.5314 155.363 100.124H160.61C162.759 98.7694 164.686 96.06 166.229 92.4819C165.959 81.2074 162.498 68.8882 158.153 68.201C158.038 68.1829 157.927 68.1677 157.816 68.1542L147.25 62.6622L143.923 58.4464L145.238 48.0029C148.353 47.0056 147.788 42.3256 145.471 42.8897L145.472 42.8833C145.785 42.7448 146.85 42.1662 147.227 43.1937L147.38 43.1376C146.956 41.9827 145.787 42.5652 145.518 42.6846L146.989 36.3181C146.989 36.3181 147.148 34.2617 144.812 34.9264C144.812 34.9264 145.706 34.11 145.968 33.1144C145.844 33.0796 145.715 33.05 145.588 33.0182C145.6 33.5657 145.373 34.1976 144.812 34.9264C145.178 34.1981 145.26 33.5189 145.116 32.8985C139.442 31.4873 132.643 31.3537 124.543 32.9663C124.42 32.0703 124.227 31.2022 124.003 30.3475C123.425 30.7905 122.887 31.3414 122.449 31.9878C122.65 31.0583 123.037 30.1189 123.692 29.2229C123.646 29.0783 123.588 28.9388 123.539 28.7953C122.097 29.7719 119.833 31.9499 121.193 35.436C120.962 38.2227 121.84 40.7279 125.086 42.3275C125.016 42.4088 124.947 42.4947 124.882 42.5857L125.568 42.619C123.591 44.0146 123.855 47.0168 126.019 48.059C126.582 51.9756 128.022 56.1326 131.445 57.9711C131.445 57.9711 132.336 58.0414 133.648 57.9148L133.593 59.0639L130.015 61.7417C130.015 61.7417 129.987 61.8305 129.936 61.994L121.428 65.4613C115.907 65.2836 112.748 73.9858 111.269 81.5092C111.252 81.5986 111.235 81.6874 111.218 81.7762C108.521 76.5008 105.708 71.7079 104.835 69.8415L104.604 69.9492L104.049 68.1758L103.858 62.2434L102.357 58.3703C102.317 58.3206 100.61 57.2535 99.9311 56.2892Z" fill="#C0C8DB"/>
<path fill-rule="evenodd" clip-rule="evenodd" d="M136.665 41.7243L135.35 58.8158C135.35 61.555 133.129 63.7758 130.39 63.7758C127.651 63.7758 125.43 61.555 125.43 58.8158V47.6407L136.665 41.7243Z" fill="#EBB39D"/>
<path fill-rule="evenodd" clip-rule="evenodd" d="M125.43 57.4438V47.6406L135.003 42.5996L135.543 43.7553C135.543 43.7553 136.478 54.6144 125.43 57.4438Z" fill="#DC8C8C"/>
<path fill-rule="evenodd" clip-rule="evenodd" d="M135.469 30.489C136.295 28.6226 135.359 27.1461 133.566 26.1864C135.518 26.8504 137.121 28.1109 135.469 30.489ZM136.418 38.9281L137.71 31.774C137.71 31.774 137.769 29.7122 135.469 30.489C135.469 30.489 139.518 26.418 132.189 25.6039C128.279 24.3046 122.304 23.9274 119.465 27.6265C119.853 24.1695 115.06 25.2371 112.989 28.6361C113.206 27.3304 113.782 25.9882 114.946 24.7422C114.946 24.7422 109.742 27.3113 111.902 32.1408C111.759 36.3069 114.046 39.7301 122.83 40.1403C125.806 40.2791 135.646 43.2021 136.418 38.9281Z" fill="#3A3C6C"/>
<path fill-rule="evenodd" clip-rule="evenodd" d="M116.96 25.6868C117.499 25.5766 117.936 25.6941 117.936 25.9494C117.936 26.2051 117.499 26.5018 116.96 26.6119C116.42 26.722 115.983 26.6046 115.983 26.3491C115.983 26.0938 116.42 25.7972 116.96 25.6868Z" fill="#60629A"/>
<path fill-rule="evenodd" clip-rule="evenodd" d="M125.215 25.0226C126.687 24.8779 127.881 25.0299 127.881 25.3618C127.881 25.6936 126.687 26.0798 125.215 26.2245C123.742 26.3689 122.549 26.2171 122.549 25.8853C122.549 25.5532 123.742 25.1669 125.215 25.0226Z" fill="#60629A"/>
<path fill-rule="evenodd" clip-rule="evenodd" d="M116.778 35.8671C116.778 35.8671 115.702 50.5679 123.232 54.1534C123.232 54.1534 134.826 54.5122 135.543 43.7552C140.397 43.2488 138.665 35.7308 135.185 39.3033L133.974 36.0313C133.974 36.0313 124.189 37.6001 116.778 35.8671Z" fill="#DC8C8C"/>
<path fill-rule="evenodd" clip-rule="evenodd" d="M123.691 54.1491C125.847 54.0806 134.912 53.2277 135.543 43.7553C140.397 43.2489 138.665 35.7309 135.185 39.3034L133.974 36.0314C133.974 36.0314 128.871 36.8491 123.245 36.6511C123.128 38.6272 123.012 41.3509 123.072 43.6447C119.506 42.6701 120.436 47.4035 122.891 46.6386L123.691 54.1491Z" fill="#EBB39D"/>
<path fill-rule="evenodd" clip-rule="evenodd" d="M135.543 43.7552C138.404 43.4566 138.976 40.7226 138.252 39.259C137.101 39.0444 135.828 40.4991 135.828 40.4991C137.297 40.3109 137.036 42.4336 135.543 42.6507V43.7552Z" fill="#DC8C8C"/>
<path fill-rule="evenodd" clip-rule="evenodd" d="M135.185 39.3033L133.974 36.0314C133.974 36.0314 124.189 37.6002 116.778 35.8671C116.778 35.8671 124.772 39.1548 133.378 36.8838L135.185 39.3033Z" fill="#DC8C8C"/>
<path fill-rule="evenodd" clip-rule="evenodd" d="M122.822 46.1019C122.973 45.1557 124.205 45.0483 124.029 45.9037C124.029 45.9037 123.579 45.5882 122.822 46.1019Z" fill="#DC8C8C"/>
<path fill-rule="evenodd" clip-rule="evenodd" d="M115.933 39.1039H120.961C120.961 39.1039 121.827 38.5813 121.376 37.6978C121.376 37.6978 121.205 38.1667 120.988 38.3018C120.988 38.3018 120.889 37.608 119.772 37.3647C119.772 37.3647 117.222 37.1121 115.933 39.1039Z" fill="#3A3C6C"/>
<path fill-rule="evenodd" clip-rule="evenodd" d="M129.947 38.7991C130.14 37.4523 128.499 37.8826 128.499 37.8826C129.509 38.0754 129.947 38.7991 129.947 38.7991ZM129.746 39.1039H124.717C124.717 39.1039 123.852 38.5813 124.302 37.6978C124.302 37.6978 124.473 38.1667 124.69 38.3018C124.69 38.3018 124.525 37.7541 125.071 37.5152C125.087 37.9154 125.147 37.9822 125.147 37.9822C125.109 37.7262 125.193 37.4981 125.197 37.4927C126.512 36.863 128.969 37.9046 129.746 39.1039Z" fill="#3A3C6C"/>
<path fill-rule="evenodd" clip-rule="evenodd" d="M120.687 39.4777C120.144 38.9346 119.394 38.5986 118.565 38.5986C117.736 38.5986 116.986 38.9346 116.443 39.4775C115.9 40.0205 115.564 40.7709 115.564 41.5996C115.564 42.4286 115.9 43.179 116.443 43.7218C116.986 44.2649 117.736 44.6007 118.565 44.6007C119.394 44.6007 120.144 44.2649 120.687 43.7218C121.231 43.179 121.566 42.4286 121.566 41.5996C121.566 40.7709 121.231 40.0205 120.687 39.4777ZM118.565 38.4348C119.439 38.4348 120.23 38.7895 120.803 39.3619C121.376 39.9346 121.73 40.7259 121.73 41.5996C121.73 42.4736 121.376 43.2649 120.803 43.8373C120.23 44.41 119.439 44.7642 118.565 44.7642C117.691 44.7642 116.9 44.41 116.328 43.8373C115.755 43.2649 115.401 42.4736 115.401 41.5996C115.401 40.7259 115.755 39.9346 116.328 39.3619C116.9 38.7895 117.691 38.4348 118.565 38.4348Z" fill="#232446"/>
<path fill-rule="evenodd" clip-rule="evenodd" d="M128.791 39.2724C128.274 38.8512 127.614 38.5986 126.895 38.5986C126.067 38.5986 125.316 38.9346 124.773 39.4777C124.23 40.0206 123.894 40.7709 123.894 41.5997C123.894 42.4286 124.23 43.1787 124.773 43.7218C125.316 44.2649 126.067 44.6007 126.895 44.6007C127.724 44.6007 128.474 44.2649 129.018 43.7218C129.561 43.1787 129.897 42.4286 129.897 41.5997C129.897 41.4954 129.891 41.3938 129.881 41.2957C129.871 41.1946 129.856 41.094 129.836 40.9959C129.695 40.3054 129.317 39.7014 128.791 39.2724ZM130.057 41.4687L136.919 38.0183C136.922 38.0171 138.002 37.5538 138.431 38.5668L138.281 38.6299C137.925 37.7897 137.03 38.1488 136.983 38.1681L130.06 41.6498C130.046 42.504 129.695 43.2757 129.133 43.8374C128.56 44.4101 127.769 44.764 126.895 44.764C126.021 44.764 125.23 44.4101 124.658 43.8374C124.085 43.2647 123.731 42.4736 123.731 41.5997C123.731 40.7257 124.085 39.9347 124.658 39.362C125.23 38.7895 126.021 38.4349 126.895 38.4349C127.653 38.4349 128.348 38.7014 128.894 39.1458C129.448 39.5981 129.847 40.2354 129.996 40.9636C130.017 41.0666 130.033 41.1726 130.044 41.2793C130.05 41.3424 130.054 41.4058 130.057 41.4687Z" fill="#232446"/>
<path fill-rule="evenodd" clip-rule="evenodd" d="M129.844 43.0272C129.844 43.0272 128.676 44.8006 126.773 44.887C126.773 44.887 129.73 45.376 129.844 43.0272Z" fill="#DC8C8C"/>
<path fill-rule="evenodd" clip-rule="evenodd" d="M93.3612 57.7223C93.3612 57.7223 89.4353 55.3091 86.2083 54.801L85.1862 58.1633L88.1325 61.1881L84.7724 59.1773L84.7173 59.3124L84.1882 60.6502L88.8914 63.9038L89.4056 63.2024L92.8235 63.011L93.3612 57.7223Z" fill="#DC8C8C"/>
<path fill-rule="evenodd" clip-rule="evenodd" d="M97.4372 68.5998L96.3613 65.6719L95.8838 59.7555L88.5334 63.2511L91.192 68.092L92.1485 71.4386L97.4372 68.5998Z" fill="#EBB39D"/>
<path fill-rule="evenodd" clip-rule="evenodd" d="M97.4372 68.5998L96.6335 66.412L91.1857 68.0807L91.1921 68.092L92.1486 71.4386L97.4372 68.5998Z" fill="#DC8C8C"/>
<path fill-rule="evenodd" clip-rule="evenodd" d="M88.4717 52.6268H91.6732H91.6918C92.0501 52.6268 92.3431 52.9198 92.3431 53.2784C92.3431 53.6369 92.0501 53.9299 91.6918 53.9299H91.6732V65.2094C91.6732 66.09 90.9529 66.8103 90.0726 66.8103H90.0723C89.192 66.8103 88.4717 66.09 88.4717 65.2094V53.9299H88.4531C88.0948 53.9299 87.8014 53.6369 87.8014 53.2784C87.8014 52.9198 88.0948 52.6268 88.4531 52.6268H88.4717Z" fill="white"/>
<path fill-rule="evenodd" clip-rule="evenodd" d="M91.2536 61.1891V65.0196C91.2536 65.6694 90.7222 66.2007 90.0727 66.2007H90.0724C89.4229 66.2007 88.8915 65.6694 88.8915 65.0196V61.1891H91.2536Z" fill="#CF4970"/>
<path fill-rule="evenodd" clip-rule="evenodd" d="M95.0343 61.9654L95.884 59.7556L94.1977 55.9594C94.1977 55.9594 92.1659 54.7344 91.6876 54.0171C91.2096 53.3005 89.0583 56.0492 92.4346 58.2005C92.4346 58.2005 90.9443 61.753 92.1798 63.451C93.2853 65.2139 95.0343 61.9654 95.0343 61.9654Z" fill="#EBB39D"/>
<path fill-rule="evenodd" clip-rule="evenodd" d="M86.8173 54.1663L89.2077 54.3834C89.4667 54.4067 89.671 54.5924 89.7193 54.8479C89.8091 55.3215 89.8078 55.9454 89.2995 56.2092C88.5227 56.6123 86.4952 56.1194 86.19 55.7038C85.8978 55.263 86.3716 54.123 86.8173 54.1663Z" fill="#EBB39D"/>
<path fill-rule="evenodd" clip-rule="evenodd" d="M97.2268 67.2972L90.7115 70.7435C92.1638 80.9361 99.6963 100.081 109.496 97.7026C110.637 97.4255 112.492 95.7924 112.824 94.5363C114.599 89.3955 122.471 62.2655 114.224 62.1458C108.274 61.5401 105.373 70.7687 104.219 78.6402C104.206 78.7305 104.193 78.8198 104.18 78.9094C101.231 73.7705 98.1892 69.1196 97.2268 67.2972Z" fill="white"/>
<path fill-rule="evenodd" clip-rule="evenodd" d="M104.894 74.8901C104.57 76.1928 104.369 77.5805 104.18 78.9095C105.273 81.0564 105.532 81.5283 107.208 84.4897C107.208 84.4897 106.86 78.7012 104.894 74.8901Z" fill="#F1F2FF"/>
<path fill-rule="evenodd" clip-rule="evenodd" d="M97.361 53.2994L99.3366 52.1589L99.5174 52.4707L97.5416 53.6113L97.361 53.2994Z" fill="#3A3C6C"/>
<path fill-rule="evenodd" clip-rule="evenodd" d="M84.2289 50.477L85.0287 51.8625L84.7169 52.0419L83.9168 50.6561L84.2289 50.477Z" fill="#3A3C6C"/>
<path fill-rule="evenodd" clip-rule="evenodd" d="M78.7238 61.4133L80.7953 61.1893L80.8286 61.5459L78.7573 61.7701L78.7238 61.4133Z" fill="#3A3C6C"/>
<path fill-rule="evenodd" clip-rule="evenodd" d="M98.7516 65.2819L100.607 66.3529L100.428 66.6647L98.5727 65.5937L98.7516 65.2819Z" fill="#3A3C6C"/>
<path fill-rule="evenodd" clip-rule="evenodd" d="M88.5568 69.0329L87.735 70.4558L87.4229 70.2767L88.245 68.8537L88.5568 69.0329Z" fill="#3A3C6C"/>
<path fill-rule="evenodd" clip-rule="evenodd" d="M135.538 56.3705L150.228 63.1244C150.228 63.1244 147.595 86.4993 145.443 100.124H113.101C113.101 100.124 111.271 79.2284 112.136 62.7955L125.43 56.6123V58.8157C125.43 61.5551 127.65 63.7757 130.39 63.7757C133.129 63.7757 135.35 61.5551 135.35 58.8157H135.35L135.538 56.3705Z" fill="white"/>
<path fill-rule="evenodd" clip-rule="evenodd" d="M121.919 58.2452L125.43 56.6123V58.8157C125.43 60.8359 126.638 62.5738 128.37 63.3472C129.797 70.1851 131.759 79.1876 131.759 79.1876L126.776 90.4086C121.638 86.5368 120.382 76.3326 120.382 76.3326L123.525 74.5536L120.166 73.8668C119.387 68.2436 121.919 58.2452 121.919 58.2452Z" fill="#F1F2FF"/>
<path fill-rule="evenodd" clip-rule="evenodd" d="M135.818 56.4988L139.834 58.3454C139.993 59.761 141.467 68.4335 139.862 73.0509L136.319 74.9435L139.01 75.7659C139.01 75.7659 137.583 86.1472 132.195 91.3094L135.818 56.4988Z" fill="#F1F2FF"/>
<path fill-rule="evenodd" clip-rule="evenodd" d="M135.756 53.5337L139.816 58.1963C139.816 58.1963 141 67.9026 139.53 72.9495L135.986 74.8419L139.01 75.7658C139.01 75.7658 136.655 86.0076 132.219 90.9101L135.756 53.5337Z" fill="#6F89DB"/>
<path fill-rule="evenodd" clip-rule="evenodd" d="M125.43 55.141L121.986 57.9891C121.986 57.9891 119.409 67.5244 120.571 72.8596L123.525 74.5534L120.635 75.5361C120.635 75.5361 122.596 85.7104 126.954 90.6131L125.43 55.141Z" fill="#6F89DB"/>
<path fill-rule="evenodd" clip-rule="evenodd" d="M135.134 60.2675C134.513 62.2986 132.624 63.7757 130.39 63.7757C128.162 63.7757 126.277 62.3065 125.651 60.2839L127.139 100.124H131.361L135.134 60.2675Z" fill="#EEC16E"/>
<path fill-rule="evenodd" clip-rule="evenodd" d="M135.134 60.2675C134.513 62.2986 132.624 63.7757 130.39 63.7757C128.162 63.7757 126.277 62.3065 125.651 60.2839L125.79 64.0297C127.832 66.7136 132.395 66.8795 134.759 64.2275L135.134 60.2675Z" fill="white"/>
<path fill-rule="evenodd" clip-rule="evenodd" d="M148.968 73.8482C148.396 78.5752 147.682 84.2878 146.943 89.7495C146.617 83.0315 145.715 74.1306 145.715 74.1306L148.968 73.8482Z" fill="#F1F2FF"/>
<path fill-rule="evenodd" clip-rule="evenodd" d="M144.399 68.5255C144.399 68.5255 144.121 62.3951 150.404 63.0794C156.686 63.7642 162.311 88.5194 158.617 100.124H149.402C148.923 85.8877 147.248 80.9015 144.399 68.5255Z" fill="white"/>
<path fill-rule="evenodd" clip-rule="evenodd" d="M25.2508 85.6755C25.4123 87.6497 25.5819 89.6561 25.7564 91.6365L24.1504 91.1554C24.2407 90.0447 24.6947 88.0662 25.2508 85.6755ZM60.5457 97.7481C60.5457 97.7481 62.7046 100.748 66.5338 99.104C70.3634 97.4603 72.6696 86.1778 72.3651 74.0394C70.3098 72.2919 67.2495 71.9365 65.129 72.2856L64.1473 71.9679C63.5098 67.5067 61.8333 66.9812 61.8333 66.9812L61.8161 66.98L60.6027 66.3468L60.3318 65.1123C60.2931 64.9368 60.1179 64.8247 59.9421 64.8632L58.4064 65.2004L49.155 60.3726L58.6697 61.8726L58.4142 41.2159C58.7884 41.1589 59.1678 41.0962 59.5535 41.0262L59.5243 40.8654C59.1477 40.934 58.7774 40.9957 58.4122 41.0512L58.409 40.7864C59.8871 40.4822 61.2738 39.9968 62.4716 39.268C62.4716 39.268 61.6003 38.4488 60.3907 35.5356C59.1815 32.6222 48.8486 19.9114 40.5887 30.1003C26.5408 21.501 30.1841 56.7168 30.2891 57.3985L38.7088 58.726L38.7328 59.4949L25.4375 64.8874C25.0153 64.7315 24.5275 64.6676 23.9627 64.7153C15.8832 65.3979 11.3326 85.6285 11.9768 97.2314C12.0069 97.7686 12.2524 98.2197 12.6878 98.5354C13.4553 99.0925 14.6509 99.6213 16.215 100.125H60.3628C60.4196 99.4082 60.4813 98.6123 60.5457 97.7481Z" fill="#C0C8DB"/>
<path fill-rule="evenodd" clip-rule="evenodd" d="M56.7862 93.5887C56.7862 93.5887 59.0794 96.4872 62.8299 94.6702C66.5804 92.8535 68.3694 81.4775 67.5119 69.3653C65.0473 67.457 61.3274 67.4661 59.3004 68.1954C58.4999 63.2775 56.6687 62.7956 56.6687 62.7956L49.9783 62.5301L52.5403 68.5816L52.4552 68.5868L56.7862 93.5887Z" fill="#F1F2FF"/>
<path fill-rule="evenodd" clip-rule="evenodd" d="M33.251 56.3705L18.5611 63.1244C18.5611 63.1244 21.1941 86.4993 23.3456 100.124H56.5526C56.5526 100.124 57.5179 79.2284 56.6527 62.7955L43.3592 56.6123V58.8157C43.3592 61.5551 41.1386 63.7757 38.3989 63.7757C35.6597 63.7757 33.4392 61.5551 33.4392 58.8157H33.4389L33.251 56.3705Z" fill="white"/>
<path fill-rule="evenodd" clip-rule="evenodd" d="M33.6548 60.2675C34.2757 62.2986 36.1649 63.7757 38.3989 63.7757C40.6271 63.7757 42.5121 62.3065 43.1384 60.2839L41.6499 100.124H37.4282L33.6548 60.2675Z" fill="#EEC16E"/>
<path fill-rule="evenodd" clip-rule="evenodd" d="M33.6548 60.2675C34.2757 62.2986 36.1649 63.7757 38.3989 63.7757C40.6271 63.7757 42.5121 62.3065 43.1384 60.2839L42.9984 64.0297C40.9572 66.7136 36.3937 66.8795 34.0297 64.2275L33.6548 60.2675Z" fill="white"/>
<path fill-rule="evenodd" clip-rule="evenodd" d="M48.8267 90.3135H62.4707V88.3394H48.8267V90.3135Z" fill="#3A3C6C"/>
<path fill-rule="evenodd" clip-rule="evenodd" d="M47.4371 89.8656C45.2393 89.8656 43.249 88.9745 41.8085 87.5344C40.3681 86.0936 39.477 84.1036 39.477 81.9055C39.477 79.7073 40.3681 77.7175 41.8085 76.2772C43.249 74.8366 45.2393 73.9455 47.4371 73.9455V76.004C45.8076 76.004 44.3318 76.6646 43.264 77.7324C42.1961 78.8002 41.5356 80.2755 41.5356 81.9055C41.5356 83.5353 42.1961 85.0106 43.264 86.0787C44.3318 87.1465 45.8076 87.8071 47.4371 87.8071V89.8656Z" fill="#3A3C6C"/>
<path fill-rule="evenodd" clip-rule="evenodd" d="M51.7362 63.8672L56.1553 62.6831L60.6665 79.5182L56.2473 80.7025L51.7362 63.8672Z" fill="#3A3C6C"/>
<path fill-rule="evenodd" clip-rule="evenodd" d="M51.6985 64.7795L56.6444 63.4542C57.0783 63.3379 57.5284 63.5979 57.6446 64.0318L61.2818 77.6053C61.398 78.0398 61.1384 78.4898 60.7042 78.6059L55.7586 79.9314C55.3242 80.0476 54.8746 79.7877 54.7581 79.3536L51.121 65.78C51.0049 65.3458 51.2644 64.8957 51.6985 64.7795Z" fill="#6F89DB"/>
<path fill-rule="evenodd" clip-rule="evenodd" d="M52.7292 63.9956L55.3594 63.2907C55.5335 63.2444 55.6372 63.0646 55.5907 62.8903L55.0831 60.9965C55.0366 60.8224 54.8567 60.7187 54.6827 60.7657L52.0524 61.4705C51.8784 61.5168 51.7747 61.6964 51.8214 61.8707L52.3288 63.7648C52.3755 63.9385 52.5554 64.0423 52.7292 63.9956Z" fill="#3A3C6C"/>
<path fill-rule="evenodd" clip-rule="evenodd" d="M53.1609 67.4215L51.2022 65.1628L46.0829 74.0301C45.5946 74.8752 45.8841 75.9563 46.7297 76.4443C47.5748 76.9323 48.6559 76.6428 49.1439 75.7974L49.1453 75.795L53.5811 73.234L53.1609 67.4215Z" fill="#6F89DB"/>
<path fill-rule="evenodd" clip-rule="evenodd" d="M47.4373 76.0732C48.0424 76.0732 48.5358 75.5797 48.5358 74.9745C48.5358 74.369 48.0424 73.8756 47.4373 73.8756C46.8323 73.8756 46.3387 74.369 46.3387 74.9745C46.3387 75.5797 46.8323 76.0732 47.4373 76.0732Z" fill="#3A3C6C"/>
<path fill-rule="evenodd" clip-rule="evenodd" d="M42.2771 97.7813H46.3889V89.1766C46.3889 88.2005 47.1801 87.409 48.1562 87.409C49.1324 87.409 49.9237 88.2005 49.9237 89.1766V89.1795L54.2354 97.7813H59.1611C59.8055 97.7813 60.3322 98.3085 60.3322 98.9529V100.124H41.1055V98.9529C41.1055 98.3085 41.6325 97.7813 42.2771 97.7813Z" fill="#3A3C6C"/>
<path fill-rule="evenodd" clip-rule="evenodd" d="M48.2137 89.6938C48.6934 89.6938 49.085 89.3024 49.085 88.8222C49.085 88.3423 48.6934 87.9507 48.2137 87.9507C47.734 87.9507 47.3422 88.3423 47.3422 88.8222C47.3422 89.3024 47.734 89.6938 48.2137 89.6938Z" fill="#6F89DB"/>
<path fill-rule="evenodd" clip-rule="evenodd" d="M57.3902 86.807H58.2207L57.529 88.8362H56.6981L57.3902 86.807Z" fill="#3A3C6C"/>
<path fill-rule="evenodd" clip-rule="evenodd" d="M59.1085 86.807H58.2779L58.9698 88.8362H59.8004L59.1085 86.807Z" fill="#3A3C6C"/>
<path fill-rule="evenodd" clip-rule="evenodd" d="M52.5929 65.6725L55.172 64.9813L55.2386 65.2295L52.6592 65.9209L52.5929 65.6725Z" fill="#3A3C6C"/>
<path fill-rule="evenodd" clip-rule="evenodd" d="M52.8924 66.3261L53.8567 66.0677L53.923 66.3159L52.9587 66.5746L52.8924 66.3261Z" fill="#3A3C6C"/>
<path fill-rule="evenodd" clip-rule="evenodd" d="M55.3777 79.333C55.5806 79.333 55.7463 79.1673 55.7463 78.9644C55.7463 78.7615 55.5806 78.5958 55.3777 78.5958C55.1748 78.5958 55.0091 78.7615 55.0091 78.9644C55.0091 79.1673 55.1748 79.333 55.3777 79.333Z" fill="#3A3C6C"/>
<path fill-rule="evenodd" clip-rule="evenodd" d="M54.6137 86.3034H61.8848V86.8076C61.8848 87.0846 61.6587 87.311 61.3814 87.311H55.1174C54.8401 87.311 54.6137 87.0846 54.6137 86.8076V86.3034Z" fill="#6F89DB"/>
<path fill-rule="evenodd" clip-rule="evenodd" d="M59.4311 68.8245L58.0997 67.3675L52.9047 69.0727C52.5726 69.1816 52.3834 69.509 52.448 69.8632L52.5068 70.1848C52.5787 70.5805 52.951 70.8659 53.344 70.827L59.226 70.2445L59.4311 68.8245Z" fill="#EBB39D"/>
<path fill-rule="evenodd" clip-rule="evenodd" d="M59.7985 70.7748L58.6428 70.3022L53.2156 71.2464C53.0184 71.2802 52.8651 71.3813 52.7582 71.5472C52.652 71.7131 52.6214 71.8977 52.6679 72.0971L52.7381 72.3994C52.8243 72.7702 53.1677 73.0301 53.5404 73.0078L59.8551 72.6299L59.7985 70.7748Z" fill="#EBB39D"/>
<path fill-rule="evenodd" clip-rule="evenodd" d="M59.8444 74.2208L59.0766 72.6474L55.2175 73.1102C54.8225 73.1576 54.5569 73.5194 54.6233 73.919L54.6306 73.9631C54.6869 74.3033 54.9566 74.5664 55.2966 74.6139L56.7339 74.8146L56.73 75.2047C56.7268 75.5743 56.9936 75.9012 57.36 75.9756L59.6843 76.4497L59.8444 74.2208Z" fill="#DC8C8C"/>
<path fill-rule="evenodd" clip-rule="evenodd" d="M58.0996 67.3675L65.3991 69.3656C65.3991 69.3656 66.7766 72.2942 65.4912 75.2933L59.6843 76.4497L58.0996 67.3675Z" fill="#EBB39D"/>
<path fill-rule="evenodd" clip-rule="evenodd" d="M39.0722 93.8807L46.605 92.9597L45.0077 100.942L37.9265 99.2249L39.0722 93.8807Z" fill="#EBB39D"/>
<path fill-rule="evenodd" clip-rule="evenodd" d="M39.0722 93.8807L39.6327 93.8122L39.4166 99.5862L37.9265 99.225L39.0722 93.8807Z" fill="#DC8C8C"/>
<path fill-rule="evenodd" clip-rule="evenodd" d="M44.814 94.515L46.605 92.9599L51.8017 94.9676C52.1216 95.0912 52.3007 95.4225 52.229 95.7578L52.1911 95.9348C52.1512 96.1213 52.0496 96.2681 51.8891 96.3717C51.7283 96.4752 51.553 96.5065 51.3663 96.4659L45.7222 95.229L44.814 94.515Z" fill="#EBB39D"/>
<path fill-rule="evenodd" clip-rule="evenodd" d="M44.2182 95.9429L45.9385 95.1832L51.9683 96.7657C52.3315 96.8612 52.5525 97.2298 52.4659 97.5952L52.4532 97.649C52.3753 97.9784 52.078 98.1997 51.74 98.1803L44.8139 97.7814L44.2182 95.9429Z" fill="#EBB39D"/>
<path fill-rule="evenodd" clip-rule="evenodd" d="M45.5901 97.7954L50.1996 98.2352L50.1301 98.8025C50.0934 99.1024 49.8798 99.3344 49.5844 99.3961L49.0317 99.5111L48.9343 100.009C48.8753 100.31 48.6384 100.529 48.3335 100.564L45.0079 100.942L45.5901 97.7954Z" fill="#DC8C8C"/>
<path fill-rule="evenodd" clip-rule="evenodd" d="M18.7339 62.2592C10.6941 63.3098 7.0711 83.7267 8.24392 95.2882C8.29825 95.8237 8.56453 96.2628 9.01413 96.5584C12.3657 98.7646 23.3457 100.124 37.5174 100.951L39.1679 93.434L20.1277 88.663C20.304 83.6973 26.9057 61.1913 18.7339 62.2592Z" fill="white"/>
<path fill-rule="evenodd" clip-rule="evenodd" d="M39.1492 93.5131L16.0817 88.0022L16.1192 87.8439L39.1869 93.355L39.1492 93.5131Z" fill="#3A3C6C"/>
<path fill-rule="evenodd" clip-rule="evenodd" d="M52.0529 36.7838C53.516 36.4123 54.879 35.8643 56.042 35.0814C56.042 35.0814 55.1345 34.3031 53.7935 31.4481C52.4523 28.5929 41.5504 16.367 33.7638 26.9216C19.3386 18.972 24.5842 53.9852 24.7203 54.6612L53.2754 57.8363L52.0529 36.7838Z" fill="#3A3C6C"/>
<path fill-rule="evenodd" clip-rule="evenodd" d="M24.2592 51.0869C24.4839 53.1631 24.6941 54.5327 24.7203 54.6612L53.2754 57.8363L52.0686 37.0596L52.0573 37.0508L32.466 40.0237L30.5433 52.9389L24.2592 51.0869Z" fill="#232446"/>
<path fill-rule="evenodd" clip-rule="evenodd" d="M30.0926 26.1368C30.7808 26.1368 31.3391 26.3152 31.3391 26.535C31.3391 26.7553 30.7808 26.9335 30.0926 26.9335C29.4044 26.9335 28.8464 26.7553 28.8464 26.535C28.8464 26.3152 29.4044 26.1368 30.0926 26.1368ZM42.543 23.1363C44.3309 23.3744 45.7807 24.0279 45.7807 24.5957C45.7807 25.1632 44.3309 25.4302 42.543 25.1921C40.7549 24.954 39.3053 24.3008 39.3053 23.7329C39.3053 23.1651 40.7549 22.8981 42.543 23.1363Z" fill="#60629A"/>
<path fill-rule="evenodd" clip-rule="evenodd" d="M32.1246 41.7243L33.4388 58.8158H33.4393C33.4393 61.555 35.6599 63.7758 38.3991 63.7758C41.1385 63.7758 43.3591 61.555 43.3591 58.8158V47.6407L32.1246 41.7243Z" fill="#EBB39D"/>
<path fill-rule="evenodd" clip-rule="evenodd" d="M43.3591 57.4438V47.6406L33.7859 42.5996L33.246 43.7553C33.246 43.7553 32.3111 54.6144 43.3591 57.4438Z" fill="#DC8C8C"/>
<path fill-rule="evenodd" clip-rule="evenodd" d="M52.0106 35.8671C52.0106 35.8671 53.0863 50.5679 45.5565 54.1534C45.5565 54.1534 33.9631 54.5122 33.246 43.7552C28.392 43.2488 30.1241 35.7308 33.6044 39.3033L34.8146 36.0313C34.8146 36.0313 44.6 37.6001 52.0106 35.8671Z" fill="#DC8C8C"/>
<path fill-rule="evenodd" clip-rule="evenodd" d="M45.0975 54.1491C42.9416 54.0806 33.8777 53.2277 33.246 43.7553C28.392 43.2489 30.1241 35.7309 33.6046 39.3034L35.1944 36.6188C35.1944 36.6188 40.7122 37.505 45.5841 37.3606C45.6849 39.2476 45.7704 41.6145 45.7172 43.6447C49.2834 42.6701 48.3524 47.4035 45.8974 46.6386L45.0975 54.1491Z" fill="#EBB39D"/>
<path fill-rule="evenodd" clip-rule="evenodd" d="M33.2461 43.7552C30.3851 43.4566 29.8126 40.7226 30.5373 39.259C31.6878 39.0444 32.961 40.4991 32.961 40.4991C31.492 40.3109 31.7527 42.4336 33.2461 42.6507V43.7552Z" fill="#DC8C8C"/>
<path fill-rule="evenodd" clip-rule="evenodd" d="M45.9672 46.1019C45.8164 45.1557 44.5844 45.0483 44.7596 45.9037C44.7596 45.9037 45.2102 45.5882 45.9672 46.1019Z" fill="#DC8C8C"/>
<path fill-rule="evenodd" clip-rule="evenodd" d="M42.7779 42.0336C42.7779 42.0336 41.085 41.0498 39.0698 41.2872C39.0698 41.2872 41.9918 39.8667 42.7779 42.0336Z" fill="#3A3C6C"/>
<path fill-rule="evenodd" clip-rule="evenodd" d="M47.6047 42.0336C47.6047 42.0336 49.2178 41.1078 51.1384 41.3481C51.1384 41.3481 48.3537 39.9739 47.6047 42.0336Z" fill="#3A3C6C"/>
<path fill-rule="evenodd" clip-rule="evenodd" d="M46.8764 39.4799C46.8764 39.4799 48.6482 38.8894 51.3205 38.9824C50.7121 38.1434 47.5458 37.44 46.8764 39.4799Z" fill="#3A3C6C"/>
<path fill-rule="evenodd" clip-rule="evenodd" d="M43.09 39.2913C43.09 39.2913 41.1289 38.7518 38.4286 38.9768C39.0001 38.149 42.6037 37.349 43.09 39.2913Z" fill="#3A3C6C"/>
<path fill-rule="evenodd" clip-rule="evenodd" d="M33.7858 33.928L35.4077 35.911C35.7369 36.0938 42.2647 39.3141 53.1708 36.8119L53.2073 36.9712C41.9679 39.5496 35.3338 36.0558 35.3145 36.0451L35.3 36.0375L33.6595 34.0316L33.7858 33.928Z" fill="#3A3C6C"/>
<path fill-rule="evenodd" clip-rule="evenodd" d="M87.5932 100.124C87.9194 98.9738 88.9774 98.1306 90.2325 98.1306C91.4873 98.1306 92.5453 98.9738 92.8713 100.124H87.5932Z" fill="#3A3C6C"/>
<path fill-rule="evenodd" clip-rule="evenodd" d="M90.8226 78.6487C90.6743 78.5004 90.4687 78.4083 90.2421 78.4083C90.0149 78.4083 89.8096 78.5004 89.661 78.6487C89.5125 78.7972 89.4205 79.0028 89.4205 79.2295C89.4205 79.4563 89.5125 79.6622 89.661 79.8105C89.8096 79.9591 90.0149 80.0508 90.2421 80.0508C90.4687 80.0508 90.6743 79.9591 90.8226 79.8105C90.9712 79.6622 91.0632 79.4563 91.0632 79.2295C91.0632 79.0028 90.9712 78.7972 90.8226 78.6487ZM89.9141 100.847V80.7657C89.6118 80.7019 89.3417 80.5506 89.1312 80.3404C88.9417 80.1509 88.8008 79.9135 88.7271 79.6475H76.4088V78.8981H88.7063C88.7709 78.5973 88.9214 78.3283 89.1312 78.1188C89.3417 77.9086 89.6118 77.7576 89.9141 77.6932V76.8315H90.6635V77.7162C90.9278 77.7896 91.1643 77.9304 91.3525 78.1188C91.562 78.3283 91.7132 78.5973 91.7774 78.8981H104.025V79.6475H91.7563C91.6834 79.9135 91.5419 80.1509 91.3525 80.3404C91.1643 80.5291 90.9278 80.6698 90.6635 80.7432V100.847H89.9141Z" fill="#3A3C6C"/>
<path fill-rule="evenodd" clip-rule="evenodd" d="M103.098 81.9444L105.329 86.3513C105.612 86.9107 105.588 87.5268 105.261 88.0613C104.934 88.5963 104.397 88.8993 103.77 88.9025L99.3523 88.9248C98.7255 88.9277 98.1856 88.6301 97.853 88.0985C97.5212 87.5672 97.4906 86.9511 97.7681 86.3892L99.9547 81.9603C100.055 81.7564 100.187 81.5802 100.343 81.4353L100.329 78.5676L100.212 78.5684C99.9742 78.5696 99.7787 78.376 99.7777 78.1379C99.7765 77.9002 99.9698 77.7047 100.208 77.7034L100.324 77.703L102.686 77.691L102.802 77.6905C103.04 77.6893 103.236 77.8828 103.237 78.1207C103.238 78.3586 103.045 78.5537 102.807 78.5552L102.69 78.5556L102.704 81.4238C102.862 81.567 102.995 81.7417 103.098 81.9444Z" fill="#3A3C6C"/>
<path fill-rule="evenodd" clip-rule="evenodd" d="M80.4276 81.9444L82.6587 86.3513C82.9416 86.9107 82.9169 87.5268 82.5901 88.0613C82.2634 88.5963 81.7264 88.8993 81.0996 88.9025L76.6815 88.9248C76.055 88.9277 75.5148 88.6301 75.1827 88.0985C74.8506 87.5672 74.8195 86.9511 75.097 86.3892L77.2841 81.9603C77.3844 81.7564 77.5163 81.5802 77.6725 81.4353L77.658 78.5676L77.5413 78.5684C77.3037 78.5696 77.1079 78.376 77.1069 78.1379C77.1057 77.9002 77.2993 77.7047 77.5369 77.7034L77.6536 77.703L80.0147 77.691L80.1317 77.6905C80.3696 77.6893 80.5651 77.8828 80.5663 78.1207C80.5673 78.3586 80.3737 78.5537 80.1363 78.5552L80.0196 78.5556L80.0335 81.4238C80.1914 81.567 80.325 81.7417 80.4276 81.9444Z" fill="#3A3C6C"/>
<path fill-rule="evenodd" clip-rule="evenodd" d="M15.307 100.125H27.6275C27.6879 99.5032 28.2115 99.0178 28.8485 99.0178C29.4856 99.0178 30.0091 99.5032 30.0693 100.125H57.1873C57.1866 100.1 57.1858 100.076 57.1858 100.052C57.1858 99.0585 57.991 98.2532 58.9847 98.2532C59.8567 98.2532 60.5841 98.8739 60.7486 99.6977C60.9331 99.2775 61.3526 98.9843 61.8406 98.9843C62.4816 98.9843 63.0041 99.4899 63.0313 100.125H95.1888H97.9121H103.002H105.068H137.973C138.191 99.3269 138.921 98.7405 139.788 98.7405C140.551 98.7405 141.207 99.1943 141.502 99.8465C141.888 98.5286 143.105 97.5653 144.548 97.5653C146.091 97.5653 147.377 98.6656 147.663 100.125H155.683V100.847H15.307V100.125Z" fill="#3A3C6C"/>
<path fill-rule="evenodd" clip-rule="evenodd" d="M147.107 13.4097C147.771 13.4097 148.406 13.5368 148.987 13.7671L149.318 12.534C148.933 12.3453 148.669 11.9501 148.669 11.4926C148.669 10.8524 149.188 10.333 149.828 10.333C150.468 10.333 150.987 10.8524 150.987 11.4926C150.987 12.1329 150.468 12.652 149.828 12.652C149.801 12.652 149.775 12.651 149.749 12.6493L149.4 13.9523C150.438 14.4739 151.273 15.3383 151.757 16.3971L152.407 16.2226C152.409 15.7532 152.79 15.3736 153.259 15.3736C153.73 15.3736 154.111 15.7549 154.111 16.2255C154.111 16.6962 153.73 17.0772 153.259 17.0772C152.945 17.0772 152.67 16.9071 152.523 16.6538L151.926 16.8141C152.115 17.3477 152.218 17.9223 152.218 18.521C152.218 19.6708 151.839 20.7315 151.198 21.5857L151.263 21.651C151.479 21.4978 151.743 21.4077 152.029 21.4077C152.761 21.4077 153.354 22.0008 153.354 22.7328C153.354 23.4646 152.761 24.0578 152.029 24.0578C151.297 24.0578 150.704 23.4646 150.704 22.7328C150.704 22.4479 150.794 22.1836 150.947 21.9672L150.913 21.933C149.977 22.9758 148.619 23.6325 147.107 23.6325C146.596 23.6325 146.103 23.5569 145.637 23.4173L145.49 23.6729C145.712 23.8721 145.852 24.1616 145.852 24.4844C145.852 25.0855 145.365 25.5728 144.764 25.5728C144.163 25.5728 143.675 25.0855 143.675 24.4844C143.675 23.8829 144.163 23.3956 144.764 23.3956C144.883 23.3956 144.997 23.4147 145.104 23.4499L145.209 23.2681C143.558 22.6077 142.333 21.1111 142.055 19.3022H140.628C140.524 19.8431 140.048 20.2513 139.477 20.2513C138.829 20.2513 138.304 19.7266 138.304 19.0788C138.304 18.4309 138.829 17.9057 139.477 17.9057C140.048 17.9057 140.524 18.3142 140.628 18.8551H142.007C141.999 18.7444 141.996 18.6333 141.996 18.521C141.996 17.3291 142.404 16.2321 143.088 15.3628L142.224 14.4988C142.114 14.5588 141.988 14.5926 141.853 14.5926C141.422 14.5926 141.073 14.2431 141.073 13.8118C141.073 13.3804 141.422 13.0311 141.853 13.0311C142.285 13.0311 142.634 13.3804 142.634 13.8118C142.634 13.946 142.6 14.0725 142.541 14.1826L143.381 15.0231C144.313 14.0302 145.637 13.4097 147.107 13.4097Z" fill="#96C042"/>
<path fill-rule="evenodd" clip-rule="evenodd" d="M143.586 15.223C144.045 14.7291 144.614 14.5426 144.858 14.8062C145.102 15.07 144.928 15.6838 144.469 16.1775C144.011 16.6714 143.442 16.8581 143.198 16.5945C142.954 16.3307 143.128 15.7169 143.586 15.223Z" fill="#BDD95B"/>
<path fill-rule="evenodd" clip-rule="evenodd" d="M101.429 7.367C102.022 8.16585 102.437 9.04228 102.679 9.94833L104.458 9.24371C104.342 8.61275 104.581 7.94093 105.131 7.53221C105.901 6.95975 106.99 7.12006 107.562 7.89051C108.134 8.66097 107.974 9.7491 107.203 10.3216C106.433 10.894 105.345 10.7335 104.772 9.96301C104.749 9.93144 104.727 9.89864 104.705 9.8656L102.826 10.6104C103.126 12.3246 102.832 14.1019 101.992 15.6306L102.782 16.2571C103.348 15.8398 104.145 15.9583 104.565 16.5232C104.986 17.0892 104.868 17.8888 104.302 18.3093C103.736 18.73 102.936 18.6123 102.515 18.046C102.234 17.6681 102.194 17.1857 102.366 16.7818L101.641 16.2069C101.168 16.9113 100.569 17.5489 99.8483 18.0841C98.4655 19.1116 96.8497 19.603 95.2498 19.5954L95.2295 19.7327C95.6071 19.8556 95.9517 20.093 96.2065 20.4361C96.8604 21.3167 96.6771 22.5605 95.7968 23.2147C94.9162 23.8684 93.6724 23.6854 93.0184 22.8048C92.3642 21.9244 92.5475 20.6806 93.4281 20.0267C93.7713 19.7717 94.1692 19.6436 94.5664 19.6351L94.5772 19.5626C92.4861 19.3693 90.4824 18.322 89.1316 16.5038C88.6747 15.8888 88.3242 15.228 88.0761 14.5432L87.637 14.5941C87.5964 15.0405 87.3731 15.4678 86.9852 15.7561C86.262 16.2936 85.2402 16.1426 84.7032 15.4194C84.1658 14.6964 84.3165 13.6746 85.0395 13.1371C85.7627 12.5996 86.7848 12.7504 87.322 13.4736C87.4282 13.6163 87.5073 13.7712 87.5609 13.9311L87.8732 13.8951C87.1925 11.3189 87.8971 8.50678 89.8255 6.55616L88.5501 4.84001C87.8063 5.19758 86.8895 4.99029 86.379 4.30329C85.7999 3.52377 85.962 2.42242 86.7412 1.84385C87.5207 1.26478 88.6218 1.4268 89.2007 2.20631C89.7117 2.8938 89.6451 3.83117 89.0878 4.44034L90.3199 6.09825C90.4464 5.99105 90.5771 5.88703 90.7117 5.78669C92.1459 4.72107 93.8303 4.23182 95.4874 4.27808L95.7544 2.46672C95.5838 2.38742 95.4301 2.26579 95.3102 2.10425C94.925 1.58539 95.0329 0.852385 95.5515 0.466911C96.0704 0.0816841 96.8037 0.189371 97.1889 0.708231C97.5746 1.22733 97.4664 1.96034 96.9473 2.34557C96.7858 2.46574 96.6035 2.53794 96.4177 2.56462L96.1578 4.32629C98.1855 4.56051 100.115 5.59946 101.429 7.367Z" fill="#6F89DB"/>
<path fill-rule="evenodd" clip-rule="evenodd" d="M90.0587 7.34393C90.8603 6.48023 91.8561 6.15374 92.2825 6.61484C92.7091 7.07618 92.4051 8.15012 91.6033 9.01358C90.8015 9.87728 89.8061 10.2038 89.3796 9.74267C88.9527 9.28158 89.2572 8.20763 90.0587 7.34393Z" fill="#9AB4FB"/>
<path fill-rule="evenodd" clip-rule="evenodd" d="M94.9032 5.95985C95.0978 5.42019 94.83 4.99164 94.3048 5.0029C93.7796 5.01441 93.1958 5.46058 93.0013 6.00048C92.8067 6.53966 93.0742 6.9682 93.5997 6.95719C94.1247 6.94593 94.7084 6.49927 94.9032 5.95985Z" fill="#9AB4FB"/>
<path fill-rule="evenodd" clip-rule="evenodd" d="M72.6574 36.2134C71.9909 36.2844 71.368 36.4795 70.8088 36.7729L70.3455 35.571C70.7109 35.3407 70.9346 34.9156 70.8857 34.4569C70.8171 33.8142 70.2408 33.3487 69.5983 33.4175C68.9558 33.4858 68.4906 34.0619 68.5589 34.7046C68.6274 35.347 69.2035 35.8123 69.8462 35.744C69.8729 35.7411 69.8991 35.7372 69.9248 35.7328L70.4145 37.0027C69.4294 37.6369 68.6839 38.5933 68.3109 39.7074L67.6401 39.6019C67.5882 39.1313 67.1655 38.7911 66.6944 38.841C66.222 38.8914 65.8806 39.3148 65.9308 39.787C65.981 40.2593 66.4041 40.601 66.8765 40.5506C67.192 40.517 67.4492 40.3171 67.5703 40.0471L68.1861 40.144C68.0535 40.6996 68.0111 41.2872 68.0752 41.8878C68.1981 43.0413 68.6925 44.0653 69.4265 44.8539L69.3677 44.9264C69.1345 44.7957 68.8599 44.7335 68.574 44.7638C67.8393 44.8422 67.308 45.5008 67.3858 46.235C67.4644 46.9695 68.1227 47.5011 68.857 47.423C69.5914 47.3447 70.1233 46.6863 70.045 45.9521C70.0144 45.6657 69.8959 45.4105 69.719 45.2098L69.75 45.1716C70.8 46.1178 72.233 46.6312 73.7497 46.47C74.2626 46.4154 74.7492 46.2869 75.2017 46.097L75.377 46.3376C75.1746 46.5615 75.0649 46.8672 75.0994 47.1907C75.1635 47.7938 75.7047 48.2307 76.308 48.1665C76.911 48.1024 77.3481 47.5613 77.2835 46.9577C77.2194 46.3547 76.6783 45.9178 76.0752 45.9819C75.956 45.9947 75.8432 46.0262 75.7397 46.0727L75.6149 45.9017C77.2006 45.0624 78.2706 43.43 78.3555 41.5856L79.787 41.4331C79.9498 41.9644 80.4706 42.3235 81.0443 42.2625C81.6938 42.1933 82.165 41.6101 82.0955 40.9603C82.0264 40.3102 81.4432 39.8396 80.7932 39.9086C80.22 39.9698 79.786 40.4304 79.7393 40.9842L78.3565 41.1318C78.3518 41.0202 78.3435 40.9081 78.3318 40.7955C78.2043 39.5992 77.6776 38.5427 76.8983 37.7436L77.6724 36.7844C77.7897 36.8324 77.9201 36.8532 78.055 36.8388C78.4877 36.7927 78.8009 36.4046 78.7547 35.9719C78.7089 35.5392 78.3205 35.2256 77.8878 35.2717C77.4551 35.3179 77.1416 35.7061 77.1878 36.1385C77.202 36.2734 77.2498 36.3965 77.3215 36.5008L76.5681 37.4335C75.5268 36.5372 74.1317 36.0566 72.6574 36.2134Z" fill="#96C042"/>
<path fill-rule="evenodd" clip-rule="evenodd" d="M71.0363 37.9247C71.5013 38.1934 71.4749 39.1098 70.9776 39.9715C70.48 40.833 69.6998 41.3139 69.2345 41.0452C68.7695 40.7767 68.7954 39.8606 69.2932 38.9989C69.7908 38.1369 70.5711 37.6562 71.0363 37.9247Z" fill="#BDD95B"/>
<path fill-rule="evenodd" clip-rule="evenodd" d="M23.8406 4.35632C23.0855 4.43684 22.3797 4.6576 21.746 4.98996L21.2211 3.6282C21.6354 3.36706 21.8882 2.88565 21.8329 2.36581C21.7556 1.63769 21.1024 1.11051 20.3743 1.18785C19.6461 1.26544 19.119 1.91842 19.1963 2.64653C19.2741 3.37465 19.9271 3.90207 20.655 3.82424C20.6851 3.82082 20.7149 3.81666 20.7446 3.81176L21.2991 5.25086C20.1829 5.96943 19.3382 7.05341 18.9153 8.31556L18.1554 8.19612C18.0964 7.66282 17.6179 7.2771 17.0839 7.33413C16.5489 7.39091 16.1612 7.87061 16.2182 8.40562C16.2753 8.94063 16.755 9.32807 17.29 9.27129C17.6476 9.23335 17.939 9.00647 18.0763 8.70054L18.7741 8.81019C18.6236 9.43991 18.5761 10.1056 18.6486 10.7863C18.7876 12.0934 19.3478 13.2538 20.1797 14.1468L20.1134 14.2293C19.8488 14.0813 19.5377 14.0108 19.2134 14.0453C18.3813 14.1339 17.7787 14.8803 17.8673 15.712C17.9562 16.5444 18.7024 17.1469 19.5343 17.0583C20.3667 16.9697 20.969 16.2235 20.8806 15.3911C20.8459 15.0671 20.7113 14.778 20.5111 14.5504L20.5461 14.5071C21.7363 15.5793 23.3599 16.1613 25.0785 15.9783C25.6595 15.9166 26.2112 15.7712 26.7237 15.5561L26.9224 15.8285C26.6931 16.0823 26.5687 16.4286 26.6079 16.795C26.6806 17.4783 27.2937 17.9737 27.9773 17.9007C28.6608 17.8278 29.1557 17.2147 29.0828 16.5314C29.0103 15.8478 28.3972 15.3529 27.7137 15.4256C27.5786 15.4398 27.4508 15.4753 27.3333 15.5282L27.1921 15.3343C28.9888 14.3835 30.2013 12.534 30.2974 10.4436L31.9198 10.2708C32.1039 10.8731 32.6942 11.2799 33.344 11.2106C34.0802 11.1321 34.614 10.4715 34.5352 9.73508C34.4569 8.99864 33.7963 8.46534 33.0599 8.54341C32.4103 8.61268 31.9186 9.13496 31.8655 9.76224L30.2984 9.9294C30.2933 9.80263 30.284 9.67585 30.2703 9.54834C30.1261 8.19318 29.5292 6.99565 28.6461 6.08985L29.5238 5.00342C29.6564 5.058 29.804 5.08101 29.9567 5.06485C30.447 5.01248 30.8021 4.57292 30.75 4.08269C30.6976 3.59223 30.258 3.2371 29.7676 3.28948C29.2771 3.34161 28.9222 3.78141 28.9746 4.27164C28.9905 4.42436 29.0446 4.56411 29.1256 4.68232L28.2722 5.73888C27.092 4.72319 25.5112 4.17814 23.8406 4.35632Z" fill="#6F89DB"/>
<path fill-rule="evenodd" clip-rule="evenodd" d="M22.0035 6.29575C22.5309 6.59997 22.5011 7.63818 21.9372 8.61471C21.3733 9.591 20.4893 10.136 19.9621 9.83158C19.4349 9.52712 19.4645 8.48891 20.0284 7.51238C20.5921 6.53585 21.4763 5.99129 22.0035 6.29575Z" fill="#9AB4FB"/>
<path fill-rule="evenodd" clip-rule="evenodd" d="M8.66714 38.4772C9.72027 38.4772 10.5791 37.6184 10.5791 36.5653C10.5791 35.5121 9.72027 34.6531 8.66714 34.6531C7.614 34.6531 6.75494 35.5121 6.75494 36.5653C6.75494 37.6184 7.614 38.4772 8.66714 38.4772Z" fill="#6F89DB"/>
<path fill-rule="evenodd" clip-rule="evenodd" d="M66.6664 6.60934C67.7898 6.60934 68.7059 5.69326 68.7059 4.56989C68.7059 3.44675 67.7898 2.53018 66.6664 2.53018C65.5433 2.53018 64.627 3.44675 64.627 4.56989C64.627 5.69326 65.5433 6.60934 66.6664 6.60934Z" fill="#96C042"/>
<path fill-rule="evenodd" clip-rule="evenodd" d="M157.698 46.7685C158.611 46.7685 159.356 46.024 159.356 45.1116C159.356 44.1989 158.611 43.4542 157.698 43.4542C156.786 43.4542 156.041 44.1989 156.041 45.1116C156.041 46.024 156.786 46.7685 157.698 46.7685Z" fill="#EAEDF5"/>
<path fill-rule="evenodd" clip-rule="evenodd" d="M164.996 33.1265C165.698 33.1265 166.27 32.5541 166.27 31.8519C166.27 31.15 165.698 30.5773 164.996 30.5773C164.294 30.5773 163.721 31.15 163.721 31.8519C163.721 32.5541 164.294 33.1265 164.996 33.1265Z" fill="#DADEE9"/>
<path fill-rule="evenodd" clip-rule="evenodd" d="M69.9733 53.3384C70.6189 53.3384 71.1454 52.812 71.1454 52.1663C71.1454 51.5207 70.6189 50.9942 69.9733 50.9942C69.3279 50.9942 68.8012 51.5207 68.8012 52.1663C68.8012 52.812 69.3279 53.3384 69.9733 53.3384Z" fill="#96C042"/>
<path fill-rule="evenodd" clip-rule="evenodd" d="M48.0177 19.4307C48.3574 19.4307 48.6345 19.1539 48.6345 18.8142C48.6345 18.4745 48.3574 18.1972 48.0177 18.1972C47.678 18.1972 47.4007 18.4745 47.4007 18.8142C47.4007 19.1539 47.678 19.4307 48.0177 19.4307Z" fill="white"/>
<path fill-rule="evenodd" clip-rule="evenodd" d="M108.25 18.3002C108.76 18.3002 109.175 17.8849 109.175 17.3751C109.175 16.8655 108.76 16.4497 108.25 16.4497C107.741 16.4497 107.326 16.8655 107.326 17.3751C107.326 17.8849 107.741 18.3002 108.25 18.3002Z" fill="white"/>
<path fill-rule="evenodd" clip-rule="evenodd" d="M10.8091 59.4147C11.2053 59.4147 11.5284 59.0914 11.5284 58.6949C11.5284 58.2984 11.2053 57.9754 10.8091 57.9754C10.4126 57.9754 10.0895 58.2984 10.0895 58.6949C10.0895 59.0914 10.4126 59.4147 10.8091 59.4147Z" fill="white"/>
<path fill-rule="evenodd" clip-rule="evenodd" d="M104.071 45.7802C104.298 45.7802 104.482 45.5954 104.482 45.369C104.482 45.1429 104.298 44.9579 104.071 44.9579C103.845 44.9579 103.66 45.1429 103.66 45.369C103.66 45.5954 103.845 45.7802 104.071 45.7802Z" fill="#EAEDF5"/>
</svg>
