<svg width="8" height="14" viewBox="0 0 8 14" fill="none" xmlns="http://www.w3.org/2000/svg">
<path d="M7.12 0.5H0.879999C0.449959 0.5 0.0999985 0.880391 0.0999985 1.34783V13.2174C0.0999985 13.3234 0.154338 13.4203 0.240918 13.4686C0.327498 13.517 0.431759 13.5088 0.511059 13.4474L4 10.7386L7.48894 13.4474C7.53392 13.4822 7.5867 13.5 7.64 13.5C7.68056 13.5 7.72138 13.4895 7.75908 13.4686C7.84566 13.4203 7.9 13.3234 7.9 13.2174V1.34783C7.9 0.880391 7.55004 0.5 7.12 0.5ZM7.38 12.6683L4.15106 10.1613C4.10582 10.1262 4.05304 10.1087 4 10.1087C3.94696 10.1087 3.89418 10.1262 3.84894 10.1613L0.619999 12.6683V3.32609H7.38V12.6683ZM7.38 2.76087H0.619999V1.34783C0.619999 1.19211 0.736739 1.06522 0.879999 1.06522H7.12C7.26352 1.06522 7.38 1.19211 7.38 1.34783V2.76087Z" fill="#3D4C59"/>
</svg>
