<svg width="20" height="18" viewBox="0 0 20 18" fill="none" xmlns="http://www.w3.org/2000/svg">
<path fill-rule="evenodd" clip-rule="evenodd" d="M19.9999 11.4088C19.9999 12.3963 19.7799 13.3427 19.3459 14.2251L19.9885 17.3226C20.0608 17.6711 19.7842 17.9981 19.4139 17.9981C19.4069 17.9981 19.4025 17.9985 19.3981 17.9987C19.3515 18.001 19.304 17.9881 16.0472 17.3674C12.2491 19.1041 7.67615 17.1219 6.53758 13.1702C5.63463 13.1287 4.76778 12.9205 3.95287 12.5478L0.699856 13.1678C0.290724 13.2458 -0.0701271 12.8973 0.011668 12.503L0.654271 9.40548C0.220218 8.52308 0.000301024 7.57668 0.000301024 6.58927C0.000301024 2.95594 3.08434 0 6.87515 0C9.95352 0 12.644 1.98367 13.463 4.8276C17.0974 4.99711 19.9999 7.88415 19.9999 11.4088ZM3.92018 11.4026C4.04924 11.378 4.1833 11.396 4.30052 11.4538C4.93676 11.7673 5.61315 11.9575 6.31919 12.0229C5.97306 8.43008 8.67101 5.31441 12.2532 4.87293C11.4969 2.66997 9.33272 1.12959 6.87515 1.12959C3.73049 1.12959 1.17215 3.5788 1.17215 6.58927C1.17215 7.4636 1.37992 8.29856 1.78956 9.07105C1.84975 9.18442 1.86835 9.3141 1.84245 9.43892L1.33273 11.8958L3.92018 11.4026Z" fill="#354356"/>
</svg>
