<svg width="14" height="16" viewBox="0 0 14 16" fill="none" xmlns="http://www.w3.org/2000/svg">
<path d="M13.3913 0H2.51087C1.12635 0 0 0.925219 0 2.0625V13.75C0 14.9907 1.22877 16 2.73913 16H13.3913C13.7275 16 14 15.7761 14 15.5C14 15.2239 13.7275 15 13.3913 15H2.73913C1.90004 15 1.21739 14.4392 1.21739 13.75C1.21739 13.0608 1.90004 12.5 2.73913 12.5H13.3913C13.7275 12.5 14 12.2761 14 12V0.5C14 0.223875 13.7275 0 13.3913 0ZM1.21739 11.6072V2.0625C1.21739 1.47569 1.79649 1 2.51087 1H2.54891C2.65395 1 2.73913 1.06997 2.73913 1.15625V11.3489C2.73913 11.4306 2.66255 11.4994 2.56329 11.5046C2.17963 11.5247 1.81722 11.61 1.49229 11.7471C1.36664 11.8001 1.21739 11.7232 1.21739 11.6072Z" fill="#354356"/>
<path d="M13.3913 13.25H2.73913C2.40294 13.25 2.13043 13.4739 2.13043 13.75C2.13043 14.0261 2.40294 14.25 2.73913 14.25H13.3913C13.7275 14.25 14 14.0261 14 13.75C14 13.4739 13.7275 13.25 13.3913 13.25Z" fill="#354356"/>
</svg>
