<svg width="54" height="54" viewBox="0 0 54 54" fill="none" xmlns="http://www.w3.org/2000/svg">
<path d="M51.2069 0H2.7931C1.2505 0 0 1.25863 0 2.81128C0 4.36393 1.2505 5.62256 2.7931 5.62256V44.0434C2.7931 44.5609 3.20997 44.9805 3.72414 44.9805H14.8211L8.58321 52.8286L10.0375 54L17.2064 44.9805H26.069V47.0271C24.6146 47.5446 23.8524 49.1509 24.3667 50.6146C24.8808 52.0785 26.4768 52.8456 27.931 52.328C29.3853 51.8104 30.1476 50.2042 29.6333 48.7404C29.3521 47.9398 28.7264 47.3101 27.931 47.0271V44.9805H36.7936L43.9625 54L45.4168 52.8286L39.1789 44.9805H50.2759C50.79 44.9805 51.2069 44.5609 51.2069 44.0434V5.62256C52.7495 5.62256 54 4.36393 54 2.81128C54 1.25863 52.7495 0 51.2069 0ZM27 50.603C26.4858 50.603 26.069 50.1835 26.069 49.6659C26.069 49.1484 26.4858 48.7289 27 48.7289C27.5142 48.7289 27.931 49.1484 27.931 49.6659C27.931 50.1835 27.5142 50.603 27 50.603ZM49.3448 43.1063H4.65517V5.62256H49.3448V43.1063ZM51.2069 3.74837H2.7931C2.27894 3.74837 1.86207 3.32879 1.86207 2.81128C1.86207 2.29377 2.27894 1.87419 2.7931 1.87419H51.2069C51.7211 1.87419 52.1379 2.29377 52.1379 2.81128C52.1379 3.32879 51.7211 3.74837 51.2069 3.74837Z" fill="white"/>
<path d="M23.2759 29.987H8.37931V31.8612H23.2759V29.987Z" fill="white"/>
<path d="M23.2759 33.7354H8.37931V35.6095H23.2759V33.7354Z" fill="white"/>
<path d="M19.5517 37.4837H8.37931V39.3579H19.5517V37.4837Z" fill="white"/>
<path d="M23.2759 26.2386H15.8276V28.1128H23.2759V26.2386Z" fill="white"/>
<path d="M45.6207 13.1193H30.7241V14.9935H45.6207V13.1193Z" fill="white"/>
<path d="M45.6207 16.8677H30.7241V18.7419H45.6207V16.8677Z" fill="white"/>
<path d="M41.8966 20.6161H30.7241V22.4902H41.8966V20.6161Z" fill="white"/>
<path d="M45.6207 9.37093H38.1724V11.2451H45.6207V9.37093Z" fill="white"/>
<path d="M15.8276 8.43384C11.714 8.43384 8.37931 11.7903 8.37931 15.9306C8.38397 20.069 11.7159 23.4226 15.8276 23.4273C19.9411 23.4273 23.2759 20.0709 23.2759 15.9306C23.2759 11.7903 19.9411 8.43384 15.8276 8.43384ZM16.7866 10.398C18.2085 10.6484 19.4785 11.4439 20.3301 12.617L16.7586 14.4125L16.7866 10.398ZM12.6082 11.3452C13.3002 10.854 14.0942 10.5282 14.9301 10.3922L14.8966 15.5557L11.2655 19.1607C9.49201 16.6293 10.0931 13.1302 12.6082 11.3452ZM17.4562 21.3084C16.9283 21.4706 16.3796 21.553 15.8276 21.5531C14.6569 21.5533 13.5163 21.1807 12.569 20.4886L16.3937 16.6934L21.1689 14.2897C22.0692 17.2599 20.407 20.4022 17.4562 21.3084Z" fill="white"/>
<path d="M30.7241 34.6725H28.8621V39.3579H30.7241V34.6725Z" fill="white"/>
<path d="M45.6207 32.7983H43.7586V39.3579H45.6207V32.7983Z" fill="white"/>
<path d="M34.4483 31.8612H32.5862V39.3579H34.4483V31.8612Z" fill="white"/>
<path d="M38.1724 28.1128H36.3103V39.3579H38.1724V28.1128Z" fill="white"/>
<path d="M41.8966 30.9241H40.0345V39.3579H41.8966V30.9241Z" fill="white"/>
<path d="M13.9655 26.2386H12.1034V28.1128H13.9655V26.2386Z" fill="white"/>
<path d="M36.3103 9.37093H34.4483V11.2451H36.3103V9.37093Z" fill="white"/>
</svg>
