<svg width="50" height="44" viewBox="0 0 50 44" fill="none" xmlns="http://www.w3.org/2000/svg">
<path d="M19.7275 32.0083C19.5386 32.0083 19.3484 31.9435 19.1931 31.8116L13.8515 27.275C13.6673 27.1183 13.5613 26.8895 13.5613 26.6478C13.5613 26.4066 13.6677 26.1778 13.8515 26.0211L19.1931 21.4845C19.54 21.1895 20.061 21.2313 20.3567 21.5773C20.652 21.9237 20.6105 22.4434 20.2632 22.7379L15.66 26.6478L20.2632 30.5578C20.6105 30.8527 20.652 31.3724 20.3567 31.7184C20.1932 31.9099 19.961 32.0083 19.7275 32.0083Z" fill="white"/>
<path d="M30.2725 32.0083C30.039 32.0083 29.8068 31.9099 29.6437 31.7184C29.348 31.3724 29.3899 30.8527 29.7368 30.5578L34.34 26.6478L29.7368 22.7379C29.3899 22.4434 29.348 21.9237 29.6437 21.5773C29.939 21.2313 30.4605 21.1895 30.8069 21.4845L36.1485 26.0211C36.3327 26.1778 36.4387 26.4066 36.4387 26.6478C36.4387 26.8895 36.3327 27.1183 36.1485 27.275L30.8069 31.8116C30.6516 31.9435 30.4614 32.0083 30.2725 32.0083Z" fill="white"/>
<path d="M23.1091 35.411C23.0524 35.411 22.9953 35.405 22.9377 35.3931C22.4918 35.2993 22.2062 34.8624 22.3002 34.4176L25.6292 18.6524C25.7232 18.2077 26.1608 17.9228 26.6072 18.0165C27.0531 18.1103 27.3387 18.5467 27.2447 18.992L23.9156 34.7572C23.8337 35.145 23.4909 35.411 23.1091 35.411Z" fill="white"/>
<path d="M44.4575 44H5.54245C2.48655 44 0 41.5203 0 38.4719V5.52814C0 2.48013 2.48655 0 5.54245 0H44.4575C47.5135 0 50 2.48013 50 5.52814V38.4719C50 41.5203 47.5135 44 44.4575 44ZM5.54245 1.64668C3.39678 1.64668 1.65094 3.38801 1.65094 5.52814V38.4719C1.65094 40.612 3.39678 42.3533 5.54245 42.3533H44.4575C46.6032 42.3533 48.3491 40.612 48.3491 38.4719V5.52814C48.3491 3.38801 46.6032 1.64668 44.4575 1.64668H5.54245Z" fill="white"/>
<path d="M49.1745 13.184H0.825472C0.369435 13.184 0 12.8155 0 12.3607C0 11.9063 0.369435 11.5373 0.825472 11.5373H49.1745C49.6306 11.5373 50 11.9063 50 12.3607C50 12.8155 49.6306 13.184 49.1745 13.184Z" fill="white"/>
<path d="M14.104 9.2442C12.664 9.2442 11.4917 8.07489 11.4917 6.63864C11.4917 5.20193 12.664 4.03308 14.104 4.03308C15.5444 4.03308 16.7163 5.20193 16.7163 6.63864C16.7163 8.07489 15.5444 9.2442 14.104 9.2442ZM14.104 5.67976C13.5742 5.67976 13.1426 6.10981 13.1426 6.63864C13.1426 7.16747 13.5742 7.59752 14.104 7.59752C14.6342 7.59752 15.0653 7.16747 15.0653 6.63864C15.0653 6.10981 14.6342 5.67976 14.104 5.67976Z" fill="white"/>
<path d="M6.07772 9.21893C4.63729 9.21893 3.46542 8.05008 3.46542 6.61337C3.46542 5.17666 4.63729 4.00781 6.07772 4.00781C7.51815 4.00781 8.69002 5.17666 8.69002 6.61337C8.69002 8.05008 7.51815 9.21893 6.07772 9.21893ZM6.07772 5.65449C5.54798 5.65449 5.11636 6.085 5.11636 6.61337C5.11636 7.1422 5.54798 7.57225 6.07772 7.57225C6.60792 7.57225 7.03908 7.1422 7.03908 6.61337C7.03908 6.085 6.60792 5.65449 6.07772 5.65449Z" fill="white"/>
<path d="M22.1302 9.26901C20.6902 9.26901 19.5184 8.10016 19.5184 6.66345C19.5184 5.2272 20.6902 4.05835 22.1302 4.05835C23.5706 4.05835 24.7425 5.2272 24.7425 6.66345C24.7425 8.10016 23.5706 9.26901 22.1302 9.26901ZM22.1302 5.70457C21.6005 5.70457 21.1693 6.13462 21.1693 6.66345C21.1693 7.19228 21.6005 7.62233 22.1302 7.62233C22.6604 7.62233 23.0916 7.19228 23.0916 6.66345C23.0916 6.13462 22.6604 5.70457 22.1302 5.70457Z" fill="white"/>
</svg>
