<svg width="58" height="58" viewBox="0 0 58 58" fill="none" xmlns="http://www.w3.org/2000/svg">
<path d="M44.9032 20.5806V18.7097C46.4505 18.7097 47.7097 17.4505 47.7097 15.9032C47.7097 14.3559 46.4505 13.0968 44.9032 13.0968H43.0323C42.5159 13.0968 42.0968 12.6777 42.0968 12.1613C42.0968 11.6449 42.5159 11.2258 43.0323 11.2258H45.8387V12.1613H47.7097V9.35484H44.9032V7.48387H43.0323V9.35484C41.485 9.35484 40.2258 10.614 40.2258 12.1613C40.2258 13.7086 41.485 14.9677 43.0323 14.9677H44.9032C45.4196 14.9677 45.8387 15.3868 45.8387 15.9032C45.8387 16.4196 45.4196 16.8387 44.9032 16.8387H42.0968V15.9032H40.2258V18.7097H43.0323V20.5806H44.9032Z" fill="white"/>
<path d="M54.2581 14.0323C54.2581 8.35855 49.6415 3.74194 43.9677 3.74194C38.294 3.74194 33.6774 8.35855 33.6774 14.0323C33.6774 19.706 38.294 24.3226 43.9677 24.3226C49.6415 24.3226 54.2581 19.706 54.2581 14.0323ZM35.5484 14.0323C35.5484 9.38945 39.3249 5.6129 43.9677 5.6129C48.6105 5.6129 52.3871 9.38945 52.3871 14.0323C52.3871 18.6751 48.6105 22.4516 43.9677 22.4516C39.3249 22.4516 35.5484 18.6751 35.5484 14.0323Z" fill="white"/>
<path d="M58 14.0323C58 6.29487 51.7051 0 43.9677 0C36.2304 0 29.9355 6.29487 29.9355 14.0323C29.9355 19.9894 33.6727 25.0785 38.9217 27.1103L37.0321 29H29.5108L22.9624 36.4839H11.7525L0.248839 48.9454L1.62306 50.2149L12.571 38.3548H23.8127L30.3611 30.871H37.8076L40.9499 27.7287C41.8068 27.9176 42.6927 28.0224 43.6001 28.0458L38.903 32.7419H30.4032L24.7903 40.2258H13.6075L0 55.7773V58H54.2581V23.5405C56.5725 21.0372 58 17.7022 58 14.0323ZM31.8065 14.0323C31.8065 7.32671 37.2622 1.87097 43.9677 1.87097C50.6733 1.87097 56.129 7.32671 56.129 14.0323C56.129 20.7378 50.6733 26.1935 43.9677 26.1935C37.2622 26.1935 31.8065 20.7378 31.8065 14.0323ZM46.7742 27.782V56.129H43.0323V31.2583L46.4608 27.8297C46.5646 27.811 46.6713 27.8026 46.7742 27.782ZM39.6776 34.6129L41.1613 33.1292V56.129H37.4194V34.6129H39.6776ZM13.0968 56.129H9.35484V47.9276L13.0968 43.6515V56.129ZM14.9677 42.0968H18.7097V56.129H14.9677V42.0968ZM20.5806 42.0968H24.3226V56.129H20.5806V42.0968ZM26.1935 41.4728L29.9355 36.4839V56.129H26.1935V41.4728ZM31.8065 34.6129H35.5484V56.129H31.8065V34.6129ZM7.48387 50.0662V56.129H2.17874L7.48387 50.0662ZM48.6452 56.129V27.246C50.0007 26.7642 51.2589 26.0822 52.3871 25.2319V56.129H48.6452Z" fill="white"/>
<path d="M5.6129 34.6129H7.48387V30.871H9.35484V19.6452H7.48387V15.9032H5.6129V19.6452H3.74194V30.871H5.6129V34.6129ZM5.6129 21.5161H7.48387V29H5.6129V21.5161Z" fill="white"/>
<path d="M13.0968 29.9355H14.9677V26.1935H16.8387V16.8387H14.9677V13.0968H13.0968V16.8387H11.2258V26.1935H13.0968V29.9355ZM13.0968 18.7097H14.9677V24.3226H13.0968V18.7097Z" fill="white"/>
<path d="M20.5806 23.3871H22.4516V19.6452H24.3226V12.1613H22.4516V8.41935H20.5806V12.1613H18.7097V19.6452H20.5806V23.3871ZM20.5806 14.0323H22.4516V17.7742H20.5806V14.0323Z" fill="white"/>
</svg>
