<svg width="66" height="46" viewBox="0 0 66 46" fill="none" xmlns="http://www.w3.org/2000/svg">
<path d="M64.7265 10.3279L50.7941 5.64693C50.2884 5.47777 49.7396 5.7469 49.5685 6.24978C49.3976 6.75267 49.6691 7.29823 50.1749 7.46817L63.9743 12.1045L57.4787 15.2527C57.209 15.0718 56.9063 14.933 56.5781 14.8478L37.0947 9.78576C36.4754 6.61836 32.5525 5.28899 30.143 7.54314C29.3091 8.32336 28.8308 9.42358 28.8308 10.5617V10.5828C28.8376 11.9229 29.9534 13.0131 31.3182 13.0131H34.6821C35.5507 13.0131 36.4194 12.5625 36.87 11.7143L55.0395 16.435C49.2984 19.2176 36.4104 25.4641 34.7675 26.2604C33.6078 26.8224 32.3157 26.7855 31.2325 26.2604L2.0256 12.1045L31.7085 2.1316C32.5412 1.8517 33.4587 1.8517 34.2913 2.1316L45.8803 6.02538C46.3863 6.19519 46.9348 5.92568 47.1059 5.42253C47.2768 4.91965 47.0053 4.37408 46.4995 4.20415L34.9105 0.310363C33.6783 -0.103454 32.3215 -0.103454 31.0894 0.310363L1.27339 10.3279C-0.310702 10.8605 -0.453668 13.0416 1.05192 13.7712L16.3537 21.1876C15.5119 25.1662 14.2267 29.4496 12.8297 33.2515C12.2579 34.8063 12.7506 36.5359 14.0555 37.5555C18.4714 41.0059 23.6891 43.6713 29.0368 45.3846C31.5498 46.1896 34.352 46.2206 36.9625 45.3846C42.312 43.6705 47.5301 41.0041 51.9438 37.5555C53.2534 36.5319 53.7394 34.8016 53.1695 33.2515C51.8021 29.5339 50.4993 25.2226 49.6456 21.188L56.8434 17.6994V32.1658C55.6132 32.2594 54.6404 33.2823 54.6404 34.5288V37.3298C54.6404 37.746 54.8221 38.1198 55.1096 38.3802L54.7505 43.7784C54.6803 44.833 55.5238 45.7293 56.5874 45.7293H59.0334C60.0964 45.7293 60.9403 44.8334 60.8701 43.7784L60.5111 38.3802C60.7986 38.1198 60.9804 37.7461 60.9804 37.3298V34.5287C60.9804 33.2821 60.0074 32.2593 58.7772 32.1656V17.6785C58.7772 17.3831 58.7304 17.097 58.6469 16.8253L64.9479 13.7713C66.4516 13.0425 66.3131 10.8612 64.7265 10.3279ZM34.6821 11.0908H31.3182C31.0195 11.0908 30.7659 10.8537 30.7645 10.5779V10.5617C30.7645 9.94249 31.0143 9.36771 31.4682 8.943C32.8606 7.64028 35.1424 8.57801 35.2328 10.4517C35.2543 10.9003 34.9637 11.0908 34.6821 11.0908ZM50.2648 30.7806C45.0409 34.845 37.6276 37.7525 35.0741 38.2364C34.5495 38.3359 34.2055 38.8393 34.3055 39.3606C34.4055 39.8822 34.9133 40.2242 35.4363 40.1247C38.1073 39.6183 45.4254 36.7911 50.919 32.704C51.0541 33.0871 51.2106 33.5232 51.3533 33.9114C51.6369 34.6829 51.3939 35.5397 50.7489 36.044C45.542 40.1121 40.0553 42.3738 36.3694 43.5545C34.1678 44.26 31.7766 44.2426 29.6299 43.5545C25.944 42.3737 20.4573 40.1121 15.2505 36.044C14.6055 35.54 14.3621 34.6833 14.6461 33.9113C14.6518 33.8959 14.6574 33.8802 14.663 33.8649C14.8035 33.4822 14.9593 33.0479 15.0803 32.7038C20.4442 36.693 27.7422 39.5903 30.5621 40.1251C31.0873 40.2242 31.593 39.8825 31.6931 39.3611C31.7931 38.8396 31.449 38.3362 30.9246 38.2368C28.5139 37.7799 21.0752 34.9339 15.7346 30.7805C16.5198 28.3933 17.4296 25.3255 18.1449 22.0557L30.385 27.9881C32.0147 28.7781 33.9216 28.8089 35.615 27.9881L47.8544 22.056C48.5696 25.3256 49.4794 28.3935 50.2648 30.7806ZM56.6864 43.8069L57.0227 38.7525H58.5978L58.934 43.8069H56.6864ZM59.0465 34.5286V36.83H56.5741V34.5286C56.5741 34.2847 56.7812 34.0786 57.0267 34.0786H58.5938C58.8391 34.0788 59.0465 34.2847 59.0465 34.5286Z" fill="white"/>
</svg>
