<svg width="16" height="16" viewBox="0 0 16 16" fill="none" xmlns="http://www.w3.org/2000/svg">
<path d="M13.0909 13V9.66667C13.0909 8.564 14.0698 7.66667 15.2727 7.66667C15.6742 7.66667 16 7.96533 16 8.33333C16 8.704 15.6698 9.00467 15.264 9C14.8655 8.99533 14.5455 9.30133 14.5455 9.66667V11.6667C14.5455 12.4033 13.8945 13 13.0909 13Z" fill="#5467FF"/>
<path d="M2.90909 13V9.66667C2.90909 8.564 1.93018 7.66667 0.727273 7.66667C0.325818 7.66667 0 7.96533 0 8.33333C0 8.704 0.330182 9.00467 0.736 9C1.13455 8.99533 1.45455 9.30133 1.45455 9.66667V11.6667C1.45455 12.4033 2.10545 13 2.90909 13Z" fill="#5467FF"/>
<path d="M11.0909 16H4.90909C4.50764 16 4.18182 15.7013 4.18182 15.3333C4.18182 14.9653 4.50764 14.6667 4.90909 14.6667H11.0909C11.4924 14.6667 11.8182 14.9653 11.8182 15.3333C11.8182 15.7013 11.4924 16 11.0909 16Z" fill="#5467FF"/>
<path d="M8 16C7.59855 16 7.27273 15.7013 7.27273 15.3333V12.5C7.27273 12.132 7.59855 11.8333 8 11.8333C8.40146 11.8333 8.72727 12.132 8.72727 12.5V15.3333C8.72727 15.7013 8.40146 16 8 16Z" fill="#5467FF"/>
<path d="M11.6807 8.66667H4.31927C3.94255 8.66667 3.58764 8.51467 3.34545 8.25067C3.10255 7.98667 3.00073 7.64 3.06545 7.3L4.26691 0.966667C4.37309 0.406667 4.90036 0 5.52073 0H10.4785C11.0996 0 11.6269 0.406667 11.7324 0.967333L12.9338 7.30067C12.9985 7.64067 12.8967 7.98733 12.6538 8.25133C12.4124 8.51467 12.0575 8.66667 11.6807 8.66667Z" fill="#5467FF"/>
<path d="M13.2727 13H2.72727C2.42618 13 2.18182 12.776 2.18182 12.5V11.1667C2.18182 10.1553 3.07855 9.33333 4.18182 9.33333H11.8182C12.9215 9.33333 13.8182 10.1553 13.8182 11.1667V12.5C13.8182 12.776 13.5738 13 13.2727 13Z" fill="#5467FF"/>
</svg>
