<svg width="94" height="102" viewBox="0 0 94 102" fill="none" xmlns="http://www.w3.org/2000/svg">
<defs>
<filter id="filter0_d" x="0" y="0" width="94" height="102" filterUnits="userSpaceOnUse" color-interpolation-filters="sRGB">
<feFlood flood-opacity="0" result="BackgroundImageFix"/>
<feColorMatrix in="SourceAlpha" type="matrix" values="0 0 0 0 0 0 0 0 0 0 0 0 0 0 0 0 0 0 127 0" result="hardAlpha"/>
<feOffset dy="10"/>
<feGaussianBlur stdDeviation="11"/>
<feColorMatrix type="matrix" values="0 0 0 0 0.329412 0 0 0 0 0.403922 0 0 0 0 1 0 0 0 0.64 0"/>
<feBlend mode="normal" in2="BackgroundImageFix" result="effect1_dropShadow"/>
<feBlend mode="normal" in="SourceGraphic" in2="effect1_dropShadow" result="shape"/>
</filter>
</defs>
<g filter="url(#filter0_d)">
<path d="M47 52.9746C55.3087 52.9746 62.0442 46.0634 62.0442 37.5382C62.0442 29.0129 55.3087 22.1018 47 22.1018C38.6913 22.1018 31.9558 29.0129 31.9558 37.5382C31.9558 46.0634 38.6913 52.9746 47 52.9746Z" fill="#5467FF"/>
<path d="M64.6777 19.5131C59.9559 14.6682 53.6778 12 47 12C40.3222 12 34.0441 14.6682 29.3223 19.5131C24.6004 24.3582 22 30.7998 22 37.6517C22 49.7396 30.2361 60.1755 41.6778 62.7187L47 70L52.3223 62.7186C63.7639 60.1754 72 49.7396 72 37.6517C72 30.7998 69.3996 24.3582 64.6777 19.5131ZM47 18.6967C57.1253 18.6967 65.3628 27.149 65.3628 37.5382C65.3628 47.9273 57.1253 56.3796 47 56.3796C36.8747 56.3796 28.6372 47.9273 28.6372 37.5382C28.6372 27.149 36.8747 18.6967 47 18.6967Z" fill="#5467FF"/>
</g>

</svg>
