<svg width="22" height="24" viewBox="0 0 22 24" fill="none" xmlns="http://www.w3.org/2000/svg">
<path d="M19.8 0H2.2C0.98692 0 0 0.946266 0 2.10938V21.8906C0 23.0537 0.98692 24 2.2 24H19.8C21.0131 24 22 23.0537 22 21.8906V2.10938C22 0.946266 21.0131 0 19.8 0ZM20.5333 21.8906C20.5333 22.2783 20.2044 22.5938 19.8 22.5938H2.2C1.79564 22.5938 1.46667 22.2783 1.46667 21.8906V2.10938C1.46667 1.72167 1.79564 1.40625 2.2 1.40625H19.8C20.2044 1.40625 20.5333 1.72167 20.5333 2.10938V21.8906Z" fill="white"/>
<path d="M18.3333 2.8125H3.66667C3.26167 2.8125 2.93333 3.12731 2.93333 3.51562V9.23438C2.93333 9.62269 3.26167 9.9375 3.66667 9.9375H18.3333C18.7383 9.9375 19.0667 9.62269 19.0667 9.23438V3.51562C19.0667 3.12731 18.7383 2.8125 18.3333 2.8125ZM17.6 8.53125H4.4V4.21875H17.6V8.53125Z" fill="white"/>
<path d="M6.6 11.3438H3.66667C3.26167 11.3438 2.93333 11.6586 2.93333 12.0469V14.8594C2.93333 15.2477 3.26167 15.5625 3.66667 15.5625H6.6C7.005 15.5625 7.33333 15.2477 7.33333 14.8594V12.0469C7.33333 11.6586 7.005 11.3438 6.6 11.3438ZM5.86667 14.1562H4.4V12.75H5.86667V14.1562Z" fill="white"/>
<path d="M6.6 16.9688H3.66667C3.26167 16.9688 2.93333 17.2836 2.93333 17.6719V20.4844C2.93333 20.8727 3.26167 21.1875 3.66667 21.1875H6.6C7.005 21.1875 7.33333 20.8727 7.33333 20.4844V17.6719C7.33333 17.2836 7.005 16.9688 6.6 16.9688ZM5.86667 19.7812H4.4V18.375H5.86667V19.7812Z" fill="white"/>
<path d="M12.4667 11.3438H9.53333C9.12834 11.3438 8.8 11.6586 8.8 12.0469V14.8594C8.8 15.2477 9.12834 15.5625 9.53333 15.5625H12.4667C12.8717 15.5625 13.2 15.2477 13.2 14.8594V12.0469C13.2 11.6586 12.8717 11.3438 12.4667 11.3438ZM11.7333 14.1562H10.2667V12.75H11.7333V14.1562Z" fill="white"/>
<path d="M12.4667 16.9688H9.53333C9.12834 16.9688 8.8 17.2836 8.8 17.6719V20.4844C8.8 20.8727 9.12834 21.1875 9.53333 21.1875H12.4667C12.8717 21.1875 13.2 20.8727 13.2 20.4844V17.6719C13.2 17.2836 12.8717 16.9688 12.4667 16.9688ZM11.7333 19.7812H10.2667V18.375H11.7333V19.7812Z" fill="white"/>
<path d="M18.3333 11.3438H15.4C14.995 11.3438 14.6667 11.6586 14.6667 12.0469V20.4844C14.6667 20.8727 14.995 21.1875 15.4 21.1875H18.3333C18.7383 21.1875 19.0667 20.8727 19.0667 20.4844V12.0469C19.0667 11.6586 18.7383 11.3438 18.3333 11.3438ZM17.6 19.7812H16.1333V12.75H17.6V19.7812Z" fill="white"/>
</svg>
