<svg width="17" height="16" viewBox="0 0 17 16" fill="none" xmlns="http://www.w3.org/2000/svg">
<path fill-rule="evenodd" clip-rule="evenodd" d="M2.05714 0H9.71429C10.72 0.64 10.1333 1.33333 9.71429 1.6H2.17143C1.80571 1.64571 1.6 2.0381 1.54286 2.22857V13.7143C1.58857 14.08 1.94286 14.3238 2.11429 14.4H14.4C14.9486 14.4 15.1238 13.9429 15.1429 13.7143V6.97143C15.92 6.10286 16.5333 6.60952 16.7429 6.97143V13.8857C16.4229 15.3486 15.2381 15.9048 14.6857 16H2.28571C0.64 15.8629 0.0761905 14.6476 0 14.0571V2C0.182857 0.582857 1.44762 0.0761905 2.05714 0ZM3.08571 4C3.08571 3.55817 3.44389 3.2 3.88571 3.2H8C8.44183 3.2 8.8 3.55817 8.8 4C8.8 4.44183 8.44183 4.8 8 4.8H3.88571C3.44389 4.8 3.08571 4.44183 3.08571 4ZM4 6.4C3.55817 6.4 3.2 6.75817 3.2 7.2C3.2 7.64183 3.55817 8 4 8H11.0857C11.5275 8 11.8857 7.64183 11.8857 7.2C11.8857 6.75817 11.5275 6.4 11.0857 6.4H4Z" fill="#354356"/>
<circle cx="14" cy="3" r="3" fill="#354356"/>
</svg>
