<svg width="287" height="256" viewBox="0 0 287 256" fill="none" xmlns="http://www.w3.org/2000/svg">
<path fill-rule="evenodd" clip-rule="evenodd" d="M85.3303 54.375L85.3081 54.5064C85.3073 54.523 84.8443 60.1467 83.2146 65.5154C73.4822 57.4033 65.974 52.4247 62.941 50.5069C66.5423 50.8654 70.1437 51.3467 73.7316 51.953C77.6076 52.6084 81.4812 53.4149 85.3303 54.375ZM108.085 62.1476C108.055 62.2149 108.033 62.2869 108.022 62.3629C108.016 62.3961 106.37 73.2904 102.142 83.0006C95.9198 76.6495 89.9598 71.2166 84.614 66.6924C86.3086 61.4495 86.888 55.7728 86.9782 54.7969C94.2323 56.6941 101.318 59.1367 108.085 62.1476ZM132.915 77.1221C132.855 77.1957 132.806 77.2811 132.772 77.3769C132.751 77.4355 125.88 96.8788 120.981 104.487C115.104 96.9785 109.156 90.2531 103.411 84.305C107.564 75.0594 109.379 64.5545 109.654 62.8583C113.225 64.5063 116.704 66.3148 120.068 68.2896C124.577 70.9356 128.877 73.8769 132.915 77.1221ZM149.994 94.9697C149.822 95.09 149.695 95.2744 149.65 95.4961C149.643 95.5364 147.044 109.223 135.706 125.427C131.306 118.422 126.719 111.913 122.077 105.896C126.777 98.9431 133.37 80.7179 134.261 78.2238C138.402 81.6716 142.253 85.4495 145.751 89.5669C147.229 91.3066 148.645 93.1081 149.994 94.9697ZM159.696 112.194C159.445 112.294 159.247 112.513 159.185 112.797C156.674 124.314 148.812 139.478 146.312 144.123C143.255 138.117 140.023 132.404 136.674 126.981C146.974 112.476 150.401 99.7741 151.142 96.5931C154.457 101.396 157.334 106.592 159.696 112.194ZM165.608 132.615C165.283 132.666 165.005 132.903 164.919 133.242C161.687 146.175 156.47 157.734 154.456 161.952C152.204 156.413 149.785 151.083 147.237 145.962C148.732 143.243 157.489 127.011 160.567 114.337C161.568 116.897 162.466 119.538 163.249 122.263C164.205 125.59 164.996 129.04 165.608 132.615ZM167.013 156.057C166.632 156.037 166.271 156.278 166.158 156.661C166.147 156.698 162.683 168.469 159.33 175.075C158.064 171.32 156.72 167.65 155.304 164.068C156.382 161.901 162.278 149.737 166.065 135.551C166.972 141.987 167.311 148.821 167.013 156.057ZM162.628 185.72C161.818 182.86 160.961 180.046 160.06 177.279C162.603 172.861 165.324 164.909 166.758 160.432C166.716 161.004 166.669 161.579 166.619 162.154C166.268 166.149 165.728 170.264 164.99 174.499C164.357 178.132 163.571 181.874 162.628 185.72ZM123.243 182.268C136.217 182.548 154.677 178.954 158.567 178.162C159.542 181.172 160.465 184.239 161.331 187.361C146.591 188.008 133.998 186.091 123.243 182.268ZM103.196 171.636C109.454 171.13 142.873 168.311 153.881 165.069C155.348 168.8 156.737 172.627 158.039 176.549C153.481 177.47 133.098 181.389 120.551 180.45C120.194 180.422 119.871 180.622 119.724 180.925C113.607 178.42 108.119 175.279 103.196 171.636ZM86.288 154.625C91.5388 153.964 137.924 148.115 145.807 146.881C148.444 152.191 150.941 157.728 153.255 163.493C141.185 166.993 102.167 170.023 102.052 170.032C101.819 170.05 101.616 170.159 101.474 170.324C95.6183 165.729 90.5922 160.414 86.288 154.625ZM75.2995 135.861L135.243 127.869C138.641 133.375 141.919 139.182 145.012 145.294C135.296 146.759 85.7355 152.995 85.5851 153.013C85.4482 153.031 85.3224 153.08 85.2155 153.154C81.3316 147.708 78.0587 141.877 75.2995 135.861ZM67.614 114.424C74.2769 112.386 115.958 107.388 120.671 106.827C125.299 112.821 129.874 119.309 134.26 126.294L74.7985 134.22C74.7233 134.231 74.6537 134.25 74.5872 134.276C72.8087 130.248 71.2542 126.149 69.8991 122.032C69.0641 119.497 68.3058 116.956 67.614 114.424ZM62.5571 88.5664L102.102 85.3687C107.777 91.2354 113.651 97.8682 119.461 105.274C111.563 106.219 73.7933 110.812 67.1779 112.797C64.9838 104.427 63.5196 96.1839 62.5571 88.5664ZM60.9527 68.5603L60.9741 68.558C66.6832 67.7601 81.1883 67.8148 83.3499 67.8274C88.5992 72.2591 94.4524 77.5803 100.57 83.7992L62.3537 86.89C61.5527 80.1211 61.1411 73.8896 60.9527 68.5603ZM61.058 51.3237C62.956 52.4841 70.7318 57.3883 81.3166 66.1281C76.5826 66.1281 65.8347 66.2033 60.8997 66.8626C60.6836 59.1153 60.9306 53.5162 61.058 51.3237ZM164.001 187.787C165.127 183.364 166.054 179.043 166.79 174.818C167.538 170.53 168.085 166.365 168.44 162.32C169.768 147.192 168.442 133.697 165.007 121.761C161.29 108.844 155.106 97.7518 147.143 88.3796C139.764 79.696 130.865 72.4997 120.992 66.7051C110.4 60.4902 98.6846 55.8844 86.5223 52.7849C82.4183 51.7385 78.2487 50.8623 74.0379 50.1499C69.7772 49.4297 65.4928 48.8835 61.2131 48.5076L61.2139 48.5044C60.7295 48.4609 60.272 48.62 59.9238 48.9097C59.5779 49.1993 59.3412 49.6204 59.2977 50.104L59.2921 50.2275C59.171 51.8999 56.6849 87.7575 68.1578 122.603C79.7612 157.85 105.586 192.064 162.374 189.15C162.778 189.13 163.146 188.973 163.434 188.727C163.711 188.487 163.913 188.159 164 187.787H164.001Z" fill="#5EA9BE"/>
<path fill-rule="evenodd" clip-rule="evenodd" d="M143.562 241.306C144.325 230.85 144.259 221.104 143.45 212.036C140.281 176.483 125.756 151.117 105.175 134.131C84.6198 117.166 58.0347 108.588 30.6985 106.587C21.0135 105.878 11.2489 105.991 1.63956 106.848C1.10925 106.895 0.716665 107.363 0.762414 107.893L0.77381 107.977C1.05669 110.717 17.9123 271.165 142.818 242.217C143.253 242.114 143.55 241.734 143.562 241.306Z" fill="#3F7787"/>
<path fill-rule="evenodd" clip-rule="evenodd" d="M6.87364 111.699C6.4114 111.523 5.89415 111.756 5.71884 112.219C5.5432 112.681 5.77511 113.197 6.23735 113.374C6.32141 113.405 16.0842 117.029 30.6687 125.26C25.6731 126.15 14.2751 128.266 9.32509 129.881C8.85359 130.033 8.59635 130.539 8.75038 131.009C8.9025 131.48 9.40796 131.738 9.87946 131.586C15.693 129.688 30.8499 127.045 33.1089 126.655C39.4156 130.306 46.5193 134.772 54.0656 140.127L14.712 150.478C14.2337 150.603 13.9483 151.093 14.0751 151.571C14.2012 152.05 14.6909 152.335 15.1686 152.209L55.958 141.481C62.9763 146.551 70.346 152.382 77.7917 159.033C69.6962 161.5 30.8887 173.398 24.5322 176.658C24.0932 176.882 23.9194 177.422 24.1445 177.861C24.3693 178.299 24.9073 178.473 25.3463 178.249C31.9002 174.886 74.526 161.896 79.3446 160.43C85.2944 165.828 91.279 171.751 97.1606 178.229L36.5432 197.579C36.0707 197.73 35.8095 198.236 35.9615 198.708C36.1118 199.178 36.6176 199.44 37.0894 199.289L98.4801 179.691C103.054 184.808 107.559 190.262 111.926 196.069C102.053 199.407 51.4599 215.146 51.3072 215.195C50.8362 215.341 50.5726 215.844 50.7191 216.315C50.8663 216.786 51.3681 217.051 51.8391 216.904C51.9958 216.854 104.58 200.494 113.052 197.576C116.795 202.631 120.432 207.948 123.923 213.536C111.971 219.439 71.7905 229.87 71.6718 229.899C71.1921 230.024 70.9032 230.513 71.0275 230.994C71.1518 231.473 71.6417 231.762 72.1206 231.637C72.2409 231.606 112.852 221.066 124.87 215.066C127.096 218.69 129.26 222.427 131.35 226.28C126.763 228.091 106.208 235.979 92.9285 237.335C92.4361 237.384 92.076 237.825 92.1259 238.317C92.1741 238.81 92.6142 239.17 93.1073 239.12C106.8 237.722 127.993 229.533 132.203 227.866C133.822 230.905 135.396 234.016 136.916 237.197C137.131 237.646 137.667 237.834 138.113 237.621C138.561 237.407 138.749 236.871 138.537 236.424C136.944 233.093 135.295 229.841 133.596 226.667C136.24 219.328 137.902 204.243 137.907 204.198C137.961 203.705 137.607 203.263 137.116 203.207C136.623 203.153 136.18 203.509 136.126 204C136.122 204.041 134.695 216.979 132.424 224.5C130.403 220.815 128.315 217.234 126.169 213.756C126.924 211.182 131.135 196.251 132.256 179.903C132.291 179.41 131.92 178.982 131.426 178.946C130.934 178.91 130.505 179.282 130.47 179.775C129.503 193.884 126.207 206.925 124.89 211.703C121.507 206.338 117.99 201.222 114.374 196.351C115.463 193.135 121.937 173.478 122.47 159.564C122.49 159.07 122.103 158.653 121.609 158.633C121.112 158.611 120.694 158.998 120.675 159.492C120.197 171.988 114.811 189.286 113.066 194.603C108.756 188.9 104.317 183.538 99.8106 178.497C109.115 158.781 109.29 143.283 109.29 143.238C109.301 142.743 108.907 142.334 108.412 142.323C107.917 142.313 107.506 142.707 107.498 143.203C107.496 143.246 107.33 158.022 98.5086 177.054C92.6103 170.558 86.6075 164.617 80.6395 159.197C84.5163 150.468 88.2522 127.779 88.2633 127.711C88.3425 127.224 88.0116 126.764 87.5241 126.684C87.0365 126.605 86.5766 126.937 86.4967 127.424C86.4872 127.489 82.9317 149.073 79.233 157.929C71.6971 151.183 64.234 145.268 57.1271 140.127C59.9773 128.761 59.648 116.349 59.6473 116.313C59.6354 115.818 59.2246 115.425 58.7299 115.438C58.2352 115.45 57.8434 115.86 57.8553 116.355C57.8561 116.389 58.1656 128.073 55.5591 139.001C47.8776 133.527 40.6432 128.963 34.2186 125.235C35.0876 118.883 34.4592 112.235 34.4568 112.215C34.4125 111.723 33.9756 111.36 33.4832 111.405C32.9909 111.451 32.6284 111.887 32.6735 112.38C32.6751 112.398 33.2387 118.356 32.5374 124.267C17.2602 115.552 6.95991 111.731 6.87364 111.699Z" fill="#519BAF"/>
<path fill-rule="evenodd" clip-rule="evenodd" d="M261.04 112.157L261.039 112.287C261.036 112.304 260.517 117.809 261.164 123.267C271.946 117.117 280.043 113.606 283.299 112.278C279.764 112.005 276.206 111.849 272.644 111.818C268.791 111.783 264.917 111.894 261.04 112.157ZM237.757 115.74C237.774 115.81 237.783 115.884 237.78 115.959C237.779 115.991 237.495 126.782 239.902 136.874C246.995 131.82 253.678 127.605 259.612 124.162C258.879 118.813 259.297 113.238 259.378 112.281C252.054 112.863 244.801 114.001 237.757 115.74ZM211.232 125.912C211.279 125.994 211.312 126.085 211.327 126.183C211.338 126.243 214.62 146.177 218.035 154.358C224.997 148.126 231.889 142.663 238.454 137.916C236.038 128.283 236.095 117.839 236.122 116.157C232.393 117.132 228.727 118.278 225.143 119.603C220.339 121.379 215.686 123.477 211.232 125.912ZM191.691 140.188C191.836 140.334 191.927 140.533 191.931 140.756C191.932 140.795 192.085 154.443 200.233 172.022C205.682 166.022 211.225 160.532 216.737 155.529C213.4 148.014 210.176 129.302 209.745 126.743C205.158 129.357 200.795 132.338 196.712 135.707C194.988 137.132 193.312 138.624 191.691 140.188ZM179.371 155.133C179.596 155.272 179.749 155.517 179.761 155.802C180.201 167.343 185.175 183.318 186.788 188.229C190.77 182.962 194.869 178.007 199.031 173.354C191.593 157.592 190.472 144.754 190.305 141.558C186.281 145.619 182.613 150.136 179.371 155.133ZM170.157 173.81C170.46 173.915 170.689 174.194 170.713 174.534C171.607 187.566 174.649 199.61 175.867 204.023C178.992 199.068 182.241 194.343 185.58 189.843C184.605 186.963 178.952 169.803 178.163 157.048C176.757 159.345 175.437 161.739 174.213 164.234C172.718 167.276 171.362 170.467 170.157 173.81ZM164.77 196.178C165.141 196.225 165.447 196.52 165.49 196.908C165.494 196.946 166.811 208.895 168.909 215.842C170.775 212.438 172.703 209.13 174.685 205.919C174.018 203.643 170.424 190.899 169.211 176.564C167.229 182.615 165.728 189.147 164.77 196.178ZM163.897 225.541C165.17 222.922 166.481 220.356 167.825 217.842C166.134 213.145 164.877 205.006 164.263 200.442C164.206 201.001 164.152 201.562 164.101 202.127C163.753 206.039 163.566 210.1 163.549 214.313C163.535 217.928 163.649 221.67 163.897 225.541ZM202.477 228.987C189.916 227.025 172.73 220.384 169.113 218.951C167.656 221.687 166.239 224.485 164.866 227.347C178.97 230.508 191.446 230.824 202.477 228.987ZM223.64 222.182C217.691 220.616 185.945 212.15 175.885 207.129C173.829 210.476 171.83 213.928 169.901 217.487C174.137 219.158 193.123 226.444 205.386 227.698C205.735 227.731 206.012 227.979 206.102 228.296C212.433 226.933 218.267 224.847 223.64 222.182ZM242.874 208.681C237.924 207.142 194.191 193.521 186.8 190.976C183.344 195.643 179.985 200.555 176.76 205.716C187.799 211.167 224.91 220.802 225.02 220.829C225.241 220.886 225.419 221.029 225.526 221.212C231.965 217.787 237.726 213.525 242.874 208.681ZM256.699 192.474L200.259 174.457C196.035 179.181 191.875 184.219 187.84 189.581C196.96 192.666 243.687 207.204 243.828 207.249C243.958 207.288 244.07 207.358 244.161 207.447C248.844 202.863 253.002 197.803 256.699 192.474ZM267.798 173.121C261.723 170.011 222.382 158.02 217.933 156.668C212.439 161.653 206.909 167.124 201.479 173.106L257.464 190.978L257.658 191.069C260.066 187.49 262.272 183.802 264.287 180.065C265.528 177.764 266.696 175.444 267.798 173.121ZM277.122 149.052L239.533 139.165C233.051 143.848 226.244 149.235 219.367 155.377C226.822 157.65 262.461 168.574 268.499 171.626C272.054 163.932 274.884 156.233 277.122 149.052ZM282.111 130.033L282.092 130.025C276.722 128.275 262.723 125.831 260.637 125.473C254.812 128.845 248.251 132.971 241.281 137.916L277.609 147.469C279.545 141.079 281.012 135.139 282.111 130.033ZM284.975 113.39C282.944 114.182 274.601 117.575 262.89 124.183C267.455 124.998 277.808 126.918 282.456 128.404C283.995 120.969 284.72 115.526 284.975 113.39ZM162.217 227.299C161.892 222.842 161.741 218.513 161.757 214.313C161.774 210.048 161.964 205.936 162.317 201.974C163.638 187.153 167.237 174.369 172.604 163.445C178.409 151.626 186.283 141.992 195.575 134.323C204.184 127.216 214.006 121.806 224.525 117.916C235.809 113.743 247.9 111.317 260.164 110.418C264.301 110.116 268.475 109.988 272.658 110.025C276.891 110.063 281.117 110.273 285.309 110.648V110.644C285.784 110.685 286.198 110.917 286.484 111.257C286.768 111.595 286.923 112.042 286.882 112.516L286.866 112.637C286.696 114.27 282.925 149.281 265.868 180.915C248.614 212.914 217.822 241.472 163.553 228.894C163.166 228.805 162.838 228.589 162.604 228.303C162.376 228.024 162.237 227.673 162.218 227.299H162.217Z" fill="#5EA9BE"/>
<path fill-rule="evenodd" clip-rule="evenodd" d="M191.582 126.772C192.258 121.487 194.379 112.932 200.705 102.594C211.441 85.0474 216.586 65.7196 207.129 59.6876C198.02 53.8779 182.812 78.7597 182.351 124.989L191.548 126.765L191.582 126.772Z" fill="#3F7787"/>
<path fill-rule="evenodd" clip-rule="evenodd" d="M204.907 64.9828C205.152 64.6836 205.107 64.2443 204.808 64.0005C204.509 63.7567 204.068 63.801 203.825 64.1002C203.809 64.12 202.359 65.8637 200.293 69.1856L200.681 65.1957C200.705 64.9408 200.519 64.7136 200.264 64.6883C200.009 64.6638 199.78 64.8506 199.755 65.1062L199.181 71.0354C198.258 72.616 197.257 74.4547 196.231 76.5474L195.885 71.7343C195.867 71.477 195.644 71.2839 195.388 71.3021C195.131 71.3203 194.937 71.5427 194.956 71.8L195.42 78.2508C194.392 80.4567 193.357 82.9048 192.367 85.592L191.912 81.4263C191.885 81.1706 191.655 80.9854 191.4 81.0139C191.144 81.0408 190.959 81.2696 190.987 81.5252L191.653 87.6079C190.67 90.4605 189.748 93.5521 188.947 96.8804L188.073 92.9561C188.018 92.7052 187.771 92.5469 187.52 92.6023C187.27 92.6577 187.112 92.9055 187.166 93.1556L188.464 98.9866C187.771 102.153 187.189 105.515 186.762 109.066L185.744 106.911C185.634 106.679 185.357 106.58 185.124 106.69C184.892 106.8 184.794 107.077 184.903 107.309L186.566 110.83C186.283 113.556 186.092 116.388 186.018 119.325L184.916 117.213C184.798 116.985 184.516 116.897 184.288 117.016C184.06 117.134 183.972 117.415 184.091 117.643L185.986 121.277C185.974 122.727 185.99 124.202 186.035 125.7L187.443 125.971C187.392 124.47 187.371 122.993 187.38 121.54C188.17 120.701 190.109 118.724 191.317 118.219C191.555 118.12 191.667 117.847 191.568 117.609C191.469 117.372 191.197 117.259 190.96 117.357C189.892 117.805 188.396 119.186 187.399 120.186C187.419 119.05 187.456 117.927 187.511 116.821C188.376 116.07 190.564 114.276 192.55 113.519C192.789 113.427 192.909 113.157 192.818 112.917C192.725 112.677 192.457 112.556 192.216 112.649C190.514 113.299 188.695 114.643 187.576 115.551C187.711 113.286 187.917 111.091 188.176 108.964C189.657 108.177 194.392 105.725 196.839 105.25C197.09 105.201 197.255 104.956 197.207 104.704C197.158 104.453 196.914 104.287 196.662 104.336C194.365 104.783 190.245 106.835 188.321 107.838C188.621 105.577 188.985 103.395 189.401 101.297C190.846 100.483 195.634 97.9007 199.78 97.0142C200.031 96.9604 200.191 96.7126 200.137 96.4609C200.083 96.21 199.835 96.0501 199.584 96.1039C195.851 96.9018 191.631 99.0254 189.644 100.102C189.86 99.0713 190.09 98.0629 190.329 97.0751C191.746 96.1593 196.664 93.1738 202.682 91.6169C202.931 91.5536 203.081 91.2995 203.018 91.051C202.955 90.8016 202.701 90.6521 202.451 90.7154C197.182 92.0775 192.734 94.5162 190.651 95.777C191.563 92.2256 192.604 88.9566 193.703 85.9845C195.683 85.3157 203.407 82.7655 207.531 82.2684C207.788 82.2376 207.968 82.0056 207.939 81.75C207.907 81.4959 207.675 81.3139 207.42 81.344C203.602 81.8054 196.855 83.9551 194.125 84.8606C194.971 82.6547 195.844 80.6237 196.709 78.7676C198.669 78.3141 205.91 76.6424 207.692 76.3409C207.944 76.2989 208.115 76.0591 208.073 75.8058C208.031 75.5525 207.792 75.3823 207.538 75.4243C205.906 75.7005 199.833 77.092 197.218 77.6959C198.377 75.2913 199.511 73.2097 200.536 71.4699C202.412 71.1589 206.934 70.4164 208.072 70.308C208.327 70.2835 208.515 70.0555 208.49 69.8006C208.466 69.545 208.239 69.3566 207.983 69.3811C206.97 69.4777 203.314 70.0698 201.164 70.4244C203.339 66.8705 204.891 65.0041 204.907 64.9828Z" fill="#519BAF"/>
<path fill-rule="evenodd" clip-rule="evenodd" d="M173.665 198.137C177.582 188.739 186.539 172.588 206.316 154.208C237.601 125.136 258.716 90.9212 243.213 76.6131C228 62.571 182.283 105.615 155.614 194.632C162.734 196.627 168.688 197.728 173.665 198.137Z" fill="#3F7787"/>
<path fill-rule="evenodd" clip-rule="evenodd" d="M165.118 192.33C166.1 192.072 168.729 191.514 172.392 191.799C172.648 191.818 172.872 191.628 172.893 191.372C172.913 191.117 172.722 190.891 172.466 190.871C169.257 190.622 166.785 191.004 165.464 191.294C165.96 189.815 166.46 188.354 166.963 186.913C168.538 186.542 173.619 185.36 175.556 185.06C175.811 185.02 175.985 184.782 175.945 184.528C175.906 184.273 175.668 184.099 175.413 184.138C173.635 184.414 169.322 185.406 167.325 185.872C168.275 183.181 169.239 180.562 170.213 178.001C171.75 177.704 176.529 176.836 181.93 176.429C182.186 176.409 182.379 176.186 182.359 175.93C182.34 175.673 182.116 175.482 181.86 175.5C176.962 175.869 172.569 176.614 170.599 176.979C171.588 174.405 172.592 171.901 173.602 169.458C175.71 169.049 182.575 167.792 190.333 167.208C190.59 167.187 190.783 166.965 190.763 166.709C190.744 166.452 190.52 166.258 190.264 166.279C183.085 166.819 176.676 167.93 174.034 168.426C175.372 165.228 176.726 162.143 178.091 159.166C180.267 158.606 189.314 156.444 196.612 157.186C196.866 157.212 197.097 157.026 197.122 156.771C197.149 156.515 196.964 156.286 196.708 156.26C189.91 155.567 181.655 157.337 178.583 158.084C180.272 154.443 181.978 150.971 183.693 147.654C186.72 147.187 198.957 145.546 205.439 148.34C205.677 148.441 205.949 148.332 206.05 148.094C206.151 147.859 206.042 147.586 205.805 147.485C199.516 144.774 188.159 146.069 184.228 146.632C186.057 143.132 187.894 139.808 189.73 136.656C192.019 136.688 201.631 136.972 211.14 139.465C211.388 139.53 211.643 139.383 211.708 139.134C211.774 138.886 211.625 138.632 211.377 138.565C202.37 136.205 193.281 135.804 190.266 135.736C191.358 133.882 192.449 132.087 193.539 130.352C195.721 130.337 205.056 130.483 218.051 133.688C218.3 133.75 218.552 133.597 218.614 133.348C218.676 133.099 218.524 132.846 218.275 132.785C206.151 129.795 197.155 129.446 194.13 129.422C196.723 125.335 199.3 121.57 201.831 118.12C204.66 118.432 219.014 120.127 227.008 123.113C227.248 123.204 227.515 123.082 227.605 122.84C227.695 122.6 227.573 122.331 227.332 122.242C219.656 119.375 206.276 117.692 202.473 117.255C203.953 115.262 205.416 113.369 206.857 111.58C209.286 111.869 220.443 113.319 231.076 116.801C231.319 116.881 231.582 116.748 231.663 116.505C231.742 116.26 231.609 115.998 231.366 115.918C221.346 112.637 210.875 111.146 207.551 110.727C210.933 106.583 214.186 102.991 217.229 99.9008C219.583 99.9522 230.233 100.341 238.761 103.135C239.005 103.216 239.267 103.083 239.348 102.838C239.427 102.595 239.295 102.332 239.051 102.252C231.211 99.6823 221.631 99.1188 218.131 98.9953C219.395 97.7352 220.619 96.5654 221.801 95.4755C223.649 95.276 230.558 94.7172 239.958 96.2076C240.212 96.2488 240.451 96.0762 240.492 95.8222C240.532 95.5681 240.36 95.3291 240.106 95.2879C232.08 94.016 225.826 94.2225 222.936 94.441C232.506 85.8302 238.943 82.7932 238.995 82.7671C239.341 82.5977 239.485 82.179 239.315 81.8331C239.145 81.4872 238.727 81.344 238.381 81.5141C238.346 81.5307 235.516 82.8668 230.828 86.2529C231.866 84.1649 233.352 81.2727 233.815 80.8327C234.001 80.6569 234.009 80.3625 233.832 80.1765C233.656 79.9905 233.362 79.9826 233.176 80.1583C232.46 80.8366 230.026 85.7598 229.196 87.4607C227.306 88.891 225.177 90.6109 222.852 92.6672L225.452 82.779C225.517 82.5312 225.369 82.2764 225.122 82.2107C224.874 82.145 224.619 82.293 224.553 82.5415L221.594 93.7935C220.005 95.238 218.334 96.8337 216.598 98.5845L219.199 86.966C219.256 86.7159 219.099 86.4666 218.847 86.4104C218.598 86.3534 218.349 86.5109 218.292 86.7602L215.362 99.8478C212.773 102.525 210.047 105.543 207.224 108.954L209.096 97.0878C209.137 96.8345 208.964 96.5955 208.711 96.5551C208.456 96.5139 208.218 96.6865 208.177 96.9398L206.055 110.387C204.772 111.971 203.474 113.628 202.161 115.371L203.625 104.727C203.661 104.472 203.484 104.236 203.229 104.201C202.974 104.165 202.739 104.342 202.703 104.597L201.008 116.918C198.587 120.203 196.123 123.768 193.642 127.626L194.277 117.399C194.292 117.144 194.098 116.922 193.841 116.906C193.584 116.89 193.363 117.084 193.347 117.341L192.608 129.242C191.631 130.794 190.649 132.398 189.668 134.045L189.607 126.351C189.605 126.094 189.395 125.887 189.138 125.891C188.883 125.891 188.675 126.101 188.677 126.358L188.751 135.594C186.935 138.693 185.119 141.961 183.311 145.397L182.969 136.88C182.959 136.623 182.743 136.424 182.486 136.435C182.229 136.445 182.03 136.661 182.039 136.919L182.446 147.044C180.872 150.09 179.306 153.274 177.753 156.589L177.118 149.091C177.096 148.836 176.871 148.645 176.615 148.666C176.359 148.688 176.168 148.913 176.19 149.169L176.963 158.293C175.616 161.219 174.282 164.249 172.962 167.387L171.61 160.784C171.56 160.534 171.314 160.37 171.063 160.421C170.81 160.472 170.647 160.718 170.698 160.97L172.323 168.908C171.374 171.2 170.434 173.546 169.504 175.952L167.606 170.483C167.523 170.241 167.257 170.111 167.015 170.196C166.771 170.28 166.644 170.544 166.728 170.786L168.988 177.3C168.137 179.53 167.293 181.806 166.462 184.135L165.03 180.645C164.932 180.406 164.66 180.294 164.423 180.391C164.185 180.489 164.07 180.761 164.169 180.998L165.994 185.451C165.377 187.202 164.765 188.985 164.16 190.791L162.021 188.128C161.861 187.929 161.568 187.898 161.369 188.059C161.169 188.219 161.137 188.512 161.298 188.712L163.81 191.839C163.318 193.318 162.83 194.817 162.347 196.335C162.81 196.436 163.269 196.536 163.72 196.631C164.183 195.181 164.649 193.748 165.118 192.33Z" fill="#519BAF"/>
<path fill-rule="evenodd" clip-rule="evenodd" d="M182.677 39.1844L193.931 45.6091C193.931 45.6091 178.857 62.9984 189.935 79.6177C201.015 96.2353 191.543 100.345 187.97 100.345C187.97 100.345 197.084 120.895 176.176 127.507C155.27 134.118 124.178 122.503 124.178 122.503C124.178 122.503 108.438 107.915 122.927 84.263C137.415 60.612 182.677 39.1844 182.677 39.1844Z" fill="#201313"/>
<path fill-rule="evenodd" clip-rule="evenodd" d="M67.2849 85.0909C67.2849 85.0909 70.8364 85.7471 73.6368 85.8619C76.4363 85.9766 76.4767 85.9473 77.102 86.6146C77.7288 87.2826 79.5802 89.969 79.7852 91.5512C79.991 93.1334 78.4911 96.0224 77.0078 97.7946C75.5245 99.5668 72.5144 101.407 71.9081 105.616L69.5138 107.943L60.3521 106.622C60.3521 106.622 60.4796 105.739 60.7044 104.181C60.9291 102.625 58.796 101.462 58.5625 99.5043C58.3298 97.5453 58.6179 95.8641 58.9393 93.6368C59.2606 91.4079 60.0561 85.8904 60.0561 85.8904C60.0561 85.8904 61.8568 84.5432 67.2849 85.0909Z" fill="#EF7164"/>
<path fill-rule="evenodd" clip-rule="evenodd" d="M73.6874 88.1976L76.0508 86.0067C76.0508 86.0067 74.9807 84.8638 75.3337 82.4172C75.6859 79.9699 78.4229 60.9904 78.7221 58.9127C79.0221 56.8342 74.1931 58.2819 73.0114 63.3467C71.8297 68.4123 71.4292 73.6917 70.9321 77.1403C70.9321 77.1403 57.1734 81.7911 56.1729 83.0908C55.1725 84.3905 55.0197 91.0937 55.4463 92.8255C55.8737 94.5573 59.9144 96.5844 59.9144 96.5844L73.6874 88.1976Z" fill="#F4A175"/>
<path fill-rule="evenodd" clip-rule="evenodd" d="M74.4677 87.4734L76.0499 86.0067C76.0499 86.0067 74.9798 84.8638 75.3328 82.4172L75.9359 78.2302C74.8452 85.7954 67.8555 85.1907 67.8555 85.1907L69.0704 88.1335L74.4677 87.4734Z" fill="#EF7164"/>
<path fill-rule="evenodd" clip-rule="evenodd" d="M67.6233 91.89L70.9397 89.8709L67.2015 86.3969L65.2781 85.4012C65.2781 85.4012 64.4082 86.4413 64.8562 88.4074C65.2069 89.9516 66.9094 91.3589 67.6233 91.89Z" fill="#EF7164"/>
<path fill-rule="evenodd" clip-rule="evenodd" d="M67.2855 85.0909C67.2855 85.0909 70.837 85.7471 73.6373 85.8619C76.4369 85.9766 76.4772 85.9473 77.1025 86.6146C77.7294 87.2826 79.5807 89.969 79.7857 91.5512C79.9915 93.1334 78.4916 96.0224 77.0083 97.7946C75.5251 99.5668 72.515 101.407 71.9087 105.616L69.5144 107.943L67.9496 107.718L68.7624 102.077C68.9666 100.661 66.5636 99.737 67.0583 96.3058C67.553 92.8754 71.2399 90.8428 71.2399 90.8428C65.2972 89.9864 64.8936 87.2739 65.0621 86.1072C65.2212 85.0078 65.7864 84.9833 65.8521 84.9841C66.2993 85.0047 66.7758 85.0395 67.2855 85.0909Z" fill="#F4A175"/>
<path fill-rule="evenodd" clip-rule="evenodd" d="M126.157 109.82C122.801 111.822 118.98 114.514 115.68 117.889C107.638 126.108 73.2402 166.584 72.4368 167.118C71.6319 167.654 71.096 167.208 70.7383 166.584C70.3813 165.957 73.0621 105.961 73.0621 105.961C73.0621 105.961 72.9236 105.124 72.0324 104.928C72.0324 104.928 67.3562 106.758 60.7043 104.181C60.7043 104.181 59.95 104.397 59.7276 104.777C59.5036 105.156 48.6489 174.288 48.6489 180.007C48.6489 185.723 53.2943 191.978 59.7276 195.375C69.1418 200.341 108.392 170.437 117.087 164.816L129.849 128.373C128.585 121.1 126.338 110.659 126.157 109.82Z" fill="#B1542E"/>
<path fill-rule="evenodd" clip-rule="evenodd" d="M68.2605 105.551L68.2612 105.551C68.2612 105.551 65.5931 106.149 63.5201 111.224C61.4511 116.289 49.478 172.433 49.4321 172.646C51.9262 153.448 59.5412 105.094 59.728 104.777C59.9504 104.397 60.7047 104.181 60.7047 104.181C63.7093 105.346 66.3118 105.61 68.2605 105.551ZM126.157 109.82C122.801 111.822 118.981 114.514 115.68 117.889C112.311 121.333 104.314 130.439 96.1016 139.898C94.4569 149.789 89.157 179.77 84.7483 183.342C79.4785 187.617 64.6908 195.651 64.5823 195.708C78.5405 193.196 109.486 169.731 117.088 164.816L129.849 128.373C128.585 121.1 126.339 110.659 126.157 109.82Z" fill="#863225"/>
<path fill-rule="evenodd" clip-rule="evenodd" d="M187.764 118.416C186.14 116.78 184.499 115.42 182.817 114.286C176.82 112.321 166.615 108.984 166.476 108.939C158.225 108.052 148.337 108.434 135.445 107.166C129.459 107.365 125.176 109.73 121.73 113.323C115.129 120.206 106.443 135.152 99.8709 144.508C96.7856 148.903 97.0531 156.145 99.3342 163.153V163.155C99.3342 163.155 102.199 172.267 104.04 185.275C105.617 196.43 105.755 233.147 105.025 246.23C104.904 248.402 106.153 249.173 105.975 249.635C105.975 249.635 159.273 265.772 183.495 242.648C164.984 195.303 173.357 183.736 184.475 151.178C184.891 149.959 185.295 148.702 185.676 147.425C188.146 136.427 188.434 123.879 187.764 118.416Z" fill="#C75E35"/>
<path fill-rule="evenodd" clip-rule="evenodd" d="M99.3023 145.416C96.8304 149.861 97.2048 156.609 99.3339 163.153V163.155C99.3339 163.155 99.789 164.605 100.454 167.169C100.953 165.965 101.595 164.936 102.339 164.881C104.18 164.745 150.251 170.889 155.217 177.297C160.183 183.704 166.372 233.759 161.735 242.721C157.497 250.91 132.15 253.627 127.808 254.037C132.632 254.647 137.939 255.082 143.395 255.109C157.496 255.043 172.427 252.183 182.416 242.648C163.903 195.303 172.277 183.736 183.395 151.178C185.173 145.969 186.73 140.075 187.28 134.703C187.595 131.625 187.881 128.94 188.06 126.556C188.071 125.935 188.075 125.332 188.074 124.748C183.424 120.586 177.819 118.18 174.965 126.709C169.567 142.84 159.814 157.841 151.904 158.283C143.995 158.727 109.091 152.416 103.314 150.444C100.004 149.311 99.2999 147.1 99.3023 145.416Z" fill="#A7472D"/>
<path fill-rule="evenodd" clip-rule="evenodd" d="M134.889 114.744C134.889 114.744 133.151 115.982 131.436 117.296C130.04 118.367 128.659 119.487 128.242 120.033C127.312 121.248 134.103 148.838 134.103 148.838L143.252 146.407L134.889 114.744Z" fill="#D96B40"/>
<path fill-rule="evenodd" clip-rule="evenodd" d="M136.284 115.892L135.958 154.344L153.772 127.433L149.252 127.737L140.476 130.956L136.284 115.892Z" fill="#F9D3CD"/>
<path fill-rule="evenodd" clip-rule="evenodd" d="M136.107 136.8L136.046 144.013C137.721 143.93 140.953 143.385 141.751 143.121C142.114 142.999 143.348 142.101 144.824 140.949L153.772 127.433L149.252 127.737L142.144 130.343L139.035 132.365C139.035 132.365 137.3 134.493 136.107 136.8Z" fill="white"/>
<path fill-rule="evenodd" clip-rule="evenodd" d="M166.66 108.775C165.822 108.803 165.023 108.793 164.275 108.733C158.6 118.522 151.246 125.773 142.79 134.3C126.672 150.554 122.779 150.434 127.031 174.356C128.013 179.872 133.814 225.9 131.816 254.486C148.879 256.172 170.421 255.13 183.495 242.648C166.595 199.423 172.103 186.02 181.651 159.238L181.689 159.138H181.686L181.706 159.097C181.742 159.013 181.785 158.93 181.832 158.847C189.092 144.432 188.842 116.276 186.925 115.637C184.995 114.994 166.472 108.937 166.472 108.937L166.66 108.775Z" fill="#B1542E"/>
<path fill-rule="evenodd" clip-rule="evenodd" d="M125.973 155.128C125.207 158.469 125.273 162.537 126.071 168.35C138.899 170.695 152.631 173.959 155.217 177.297C160.183 183.704 166.372 233.759 161.735 242.721C158.25 249.455 140.492 252.49 131.875 253.583C131.856 253.885 131.837 254.188 131.816 254.486C135.538 254.855 139.474 255.093 143.488 255.109C157.562 255.031 173.528 252.163 183.495 242.648C164.984 195.303 173.357 183.736 184.475 151.178C186.254 145.969 186.73 140.075 187.28 134.703C187.595 131.625 187.881 128.94 188.06 126.556C188.071 125.934 188.074 125.332 188.074 124.746C183.424 120.586 178.401 124.274 178.401 124.274C178.401 124.274 157.889 157.947 151.904 158.283C145.92 158.62 136.669 156.958 125.973 155.128Z" fill="#863225"/>
<path fill-rule="evenodd" clip-rule="evenodd" d="M186.925 115.638C186.925 115.638 191.425 117.471 194.212 122.618C202.311 137.566 211.845 182.361 213.142 201.669C214.396 220.324 198.65 221.701 193.052 206.653C188.649 194.819 179.133 161.929 179.133 161.929C179.133 161.929 167.34 124.546 186.925 115.638Z" fill="#B1542E"/>
<path fill-rule="evenodd" clip-rule="evenodd" d="M212.411 194.323C212.749 197.039 212.998 199.514 213.141 201.669C214.396 220.324 198.649 221.701 193.051 206.653C188.649 194.819 179.133 161.929 179.133 161.929C179.133 161.929 171.732 138.463 178.399 124.285C178.349 124.693 177.027 136.084 181.099 147.032C185.245 158.182 197.36 190.576 198.592 194.75C199.21 196.838 205.891 195.841 212.411 194.323Z" fill="#863225"/>
<path fill-rule="evenodd" clip-rule="evenodd" d="M159.936 115.355C155.029 122.053 149.229 127.805 142.79 134.3C136.283 140.863 131.769 144.755 128.979 148.64C129.057 148.59 162.98 127.894 164.694 127.038C166.409 126.18 163.837 116.459 163.837 116.459L159.936 115.355Z" fill="#CD6338"/>
<path fill-rule="evenodd" clip-rule="evenodd" d="M160.741 80.0752L160.401 87.5422C160.401 87.5422 160.353 102.84 160.347 105.163C160.343 106.325 161.481 107.589 163.462 108.671C160.527 113.162 146.298 131.672 141.01 131.096C135.725 130.519 136.063 107.87 136.063 107.87C136.755 107.499 137.453 106.978 138.126 106.251C138.821 105.497 139.321 104.032 139.631 102.233C140.463 97.402 139.919 90.1573 138.065 87.7828C135.52 84.5226 160.741 80.0752 160.741 80.0752Z" fill="#EF7164"/>
<path fill-rule="evenodd" clip-rule="evenodd" d="M160.742 80.0752L160.401 87.5422C160.401 87.5422 160.354 102.84 160.347 105.163C160.343 106.325 161.482 107.589 163.463 108.671C160.527 113.162 146.298 131.672 141.011 131.096C140.707 131.063 140.422 130.953 140.155 130.783C139.895 130.58 139.74 130.451 139.699 130.418L139.684 130.404C139.711 130.372 156.792 109.579 155.078 108.936C153.802 108.458 144.267 104.897 139.461 103.102C139.524 102.823 139.58 102.533 139.632 102.233C140.464 97.402 139.919 90.1573 138.066 87.7828C135.52 84.5226 160.742 80.0752 160.742 80.0752Z" fill="#EC5152"/>
<path fill-rule="evenodd" clip-rule="evenodd" d="M180.02 58.3278C180.24 58.365 180.455 58.4093 180.669 58.4623L180.676 58.4639H180.675C184.623 59.4367 187.521 63.0325 187.454 67.271C187.373 72.1981 183.314 76.1279 178.386 76.048C173.459 75.968 169.529 71.9092 169.609 66.9829C169.655 64.1184 171.046 61.5927 173.169 59.9947C172.849 62.6193 173.153 65.8922 176.502 66.337L176.587 61.1914C176.62 59.109 178.595 58.2201 180.02 58.3278Z" fill="#E94E50"/>
<path fill-rule="evenodd" clip-rule="evenodd" d="M115.659 56.0617C115.438 56.0838 115.219 56.1124 115.001 56.1496L114.994 56.1519L114.995 56.1511C110.988 56.8445 107.845 60.2274 107.614 64.4604C107.348 69.3804 111.122 73.5864 116.042 73.8531C120.962 74.1199 125.169 70.3468 125.435 65.4276C125.591 62.5671 124.382 59.9496 122.376 58.2059C122.509 60.8463 121.977 64.0899 118.605 64.2989L118.883 59.1596C118.996 57.0804 117.089 56.0546 115.659 56.0617Z" fill="#E94E50"/>
<path fill-rule="evenodd" clip-rule="evenodd" d="M149.406 12.65C166.199 13.2413 179.454 27.4646 178.864 44.2556L177.885 72.0248C177.294 88.8174 163.071 102.072 146.278 101.48C129.489 100.889 116.233 86.6668 116.825 69.875L117.802 42.1059C118.393 25.3141 132.617 12.0595 149.406 12.65Z" fill="#F4A175"/>
<path fill-rule="evenodd" clip-rule="evenodd" d="M173.084 25.3354C176.932 30.652 179.111 37.2286 178.864 44.2556L177.885 72.0248C177.293 88.8173 163.071 102.072 146.278 101.481C143.469 101.382 140.76 100.9 138.197 100.089C165.617 101.53 170.088 79.4871 170.23 76.4849C170.372 73.4835 170.588 68.9798 170.588 65.0492C170.588 61.1178 169.28 58.8802 169.28 58.8802C169.28 58.8802 161.33 48.9658 159.973 47.5728C158.615 46.1789 157.47 45.4642 156.398 45.4642C155.326 45.4642 154.827 45.4642 154.827 45.4642C150.466 50.3241 138.231 52.5458 135.164 52.5458C132.096 52.5458 131.171 52.5458 125.229 52.5458C119.286 52.5458 117.331 55.5021 117.331 55.5021V55.5013L117.736 43.9801C122.509 38.4483 133.093 27.0316 140.211 25.7375C146.385 24.6144 158.439 24.9619 173.084 25.3354Z" fill="#EF7164"/>
<path fill-rule="evenodd" clip-rule="evenodd" d="M150.302 79.1721C150.32 83.5388 146.794 87.0919 142.428 87.1093C138.061 87.1283 134.508 83.6045 134.489 79.2378H134.503C134.5 78.4866 135.111 77.87 135.863 77.8669L148.917 77.8131C149.668 77.8091 150.285 78.4209 150.288 79.1713L150.302 79.1721Z" fill="white"/>
<path fill-rule="evenodd" clip-rule="evenodd" d="M125.368 71.4937C127.587 71.5301 129.356 73.3585 129.32 75.5763C129.284 77.7949 127.455 79.5647 125.238 79.5282C123.02 79.4918 121.25 77.6643 121.286 75.4465C121.322 73.2279 123.15 71.4581 125.368 71.4937Z" fill="#E94E50"/>
<path fill-rule="evenodd" clip-rule="evenodd" d="M159.925 72.0533C162.143 72.0905 163.912 73.918 163.876 76.1358C163.84 78.3552 162.013 80.1242 159.795 80.0886C157.576 80.0522 155.806 78.2246 155.842 76.0052C155.879 73.7875 157.707 72.0176 159.925 72.0533Z" fill="#E94E50"/>
<path fill-rule="evenodd" clip-rule="evenodd" d="M155.256 67.628C155.281 66.899 155.593 66.2135 156.128 65.7165C156.662 65.2186 157.367 64.9551 158.096 64.9812C158.827 65.0073 159.511 65.3191 160.008 65.8534C160.506 66.3877 160.768 67.0921 160.743 67.8219C160.72 68.4638 161.229 69.0091 161.872 69.0321C162.514 69.0543 163.06 68.5461 163.082 67.9034C163.129 66.5531 162.641 65.2455 161.72 64.2569C160.798 63.2691 159.529 62.6906 158.179 62.6431C156.828 62.5964 155.521 63.0831 154.533 64.0045C153.544 64.9258 152.966 66.1953 152.918 67.5472C152.896 68.1883 153.404 68.7329 154.047 68.7559C154.69 68.7788 155.233 68.2707 155.256 67.628Z" fill="#201313"/>
<path fill-rule="evenodd" clip-rule="evenodd" d="M123.801 66.5214C123.827 65.7917 124.14 65.1062 124.675 64.6084C125.208 64.1113 125.913 63.8477 126.642 63.8739C127.371 63.9 128.055 64.2126 128.553 64.7453C129.051 65.2796 129.314 65.984 129.289 66.7146C129.266 67.3565 129.775 67.9018 130.418 67.9248C131.06 67.9469 131.605 67.438 131.627 66.7961C131.676 65.445 131.186 64.139 130.264 63.1496C129.344 62.161 128.075 61.5832 126.725 61.5358C125.374 61.4883 124.068 61.9758 123.077 62.8971C122.09 63.8184 121.512 65.088 121.464 66.4391C121.441 67.081 121.949 67.6256 122.591 67.6485C123.233 67.6707 123.779 67.1634 123.801 66.5214Z" fill="#201313"/>
<path fill-rule="evenodd" clip-rule="evenodd" d="M162.072 57.9566C162.635 58.2629 163.349 58.0531 163.655 57.4911C163.961 56.9284 163.751 56.2144 163.186 55.9073C160.292 54.333 156.523 53.9816 153.577 55.6113C153.013 55.924 152.808 56.6339 153.118 57.1967C153.43 57.761 154.141 57.9668 154.705 57.6558C156.876 56.4543 159.95 56.7242 162.072 57.9566Z" fill="#201313"/>
<path fill-rule="evenodd" clip-rule="evenodd" d="M123.161 56.5904C125.53 55.5947 128.286 55.3398 130.541 56.8041C131.081 57.1547 131.804 56.9996 132.155 56.459C132.504 55.9192 132.349 55.1958 131.81 54.8451C129.028 53.0397 125.147 53.0737 122.201 54.4652C121.617 54.7319 121.358 55.4277 121.625 56.0102C121.892 56.5951 122.586 56.8532 123.161 56.5904Z" fill="#201313"/>
<path fill-rule="evenodd" clip-rule="evenodd" d="M117.166 60.1902C117.166 60.1902 116.66 56.9964 112.745 56.8595C101.213 42.6196 103.57 20.7463 116.8 9.8267C130.028 -1.09132 157.604 -0.8507 162.359 0.922272C167.112 2.69445 171.78 11.0306 171.78 11.0306C171.78 11.0306 175.993 7.53054 179.715 9.55996C183.437 11.5878 195.278 35.9377 195.069 41.9151C194.858 47.8926 182.87 59.3282 182.87 59.3282C178.954 59.1897 178.227 62.3407 178.227 62.3407L178.075 66.6409C174.16 66.5032 174.01 61.5357 174.116 58.5842C174.116 58.5842 167.871 52.6416 168.071 46.9546L170.548 38.7863L166.974 29.8518L150.893 22.5256L121.619 28.4002L120.447 45.3827V45.3843V45.3835C120.447 45.3835 120.231 57.3598 117.166 60.1902Z" fill="#201313"/>
<path fill-rule="evenodd" clip-rule="evenodd" d="M105.981 42.1961C103.672 30.2737 107.613 17.4093 116.8 9.82672C130.028 -1.0913 157.604 -0.850685 162.359 0.922283C167.113 2.69447 171.78 11.0306 171.78 11.0306C171.78 11.0306 175.993 7.53055 179.715 9.55997C182.272 10.953 188.665 22.8881 192.346 32.1582C190.234 36.1308 187.112 39.5556 182.677 39.1844C178.641 38.8465 173.603 37.0086 169.001 34.919L166.974 29.8518L150.893 22.5256L121.619 28.4002L120.47 45.0416C114.906 44.55 109.808 43.3375 105.981 42.1961Z" fill="#271315"/>
<path fill-rule="evenodd" clip-rule="evenodd" d="M133.685 58.3151C131.858 56.4012 129.3 55.1855 126.444 55.1206C123.59 55.0557 120.978 56.1543 119.065 57.9827C117.152 59.811 115.936 62.3692 115.871 65.2241C115.806 68.0791 116.904 70.6903 118.733 72.6033C120.561 74.5172 123.12 75.7322 125.974 75.7979C128.829 75.8628 131.441 74.7634 133.354 72.9358C135.267 71.1074 136.483 68.5493 136.548 65.6943C136.612 62.8393 135.514 60.2282 133.685 58.3151ZM166.999 59.0718C165.171 57.1587 162.612 55.9422 159.758 55.8773C156.903 55.8124 154.292 56.911 152.378 58.7393C150.465 60.5677 149.249 63.1267 149.185 65.9808C149.12 68.8358 150.218 71.447 152.047 73.36C153.873 75.2739 156.433 76.4896 159.287 76.5545C162.143 76.6195 164.754 75.5208 166.667 73.6925C168.58 71.8641 169.797 69.3059 169.861 66.451C169.926 63.596 168.828 60.9848 166.999 59.0718ZM126.487 53.255C129.857 53.3318 132.876 54.7676 135.035 57.0265C136.991 59.0742 138.24 61.7993 138.4 64.8023L147.375 65.0065C147.67 62.0138 149.041 59.348 151.089 57.3906C153.347 55.2322 156.43 53.9357 159.8 54.0117C163.17 54.0885 166.19 55.5242 168.349 57.7832C170.305 59.8308 171.554 62.5568 171.713 65.5597L179.331 65.7323L179.289 67.5987L171.67 67.4253C171.376 70.418 170.004 73.0846 167.956 75.0412C165.698 77.1996 162.615 78.4969 159.245 78.4201C155.875 78.3433 152.856 76.9083 150.698 74.6494C148.741 72.601 147.492 69.875 147.333 66.8729L138.357 66.6686C138.062 69.6605 136.69 72.3271 134.643 74.2845C132.384 76.4421 129.302 77.7402 125.933 77.6627C122.562 77.5867 119.542 76.1509 117.383 73.8927C115.225 71.6337 113.929 68.5516 114.005 65.1814C114.081 61.812 115.517 58.7916 117.776 56.6339C120.034 54.4755 123.116 53.179 126.487 53.255Z" fill="#201313"/>
<path fill-rule="evenodd" clip-rule="evenodd" d="M139.045 116.568L141.011 131.096L139.592 131.82C139.592 131.82 132.811 119.552 132.687 119.249C132.562 118.945 132.633 118.677 132.847 118.409C133.062 118.141 135.473 115.693 135.473 115.693L139.045 116.568Z" fill="#FEF4F5"/>
<path fill-rule="evenodd" clip-rule="evenodd" d="M138.656 105.475C138.656 105.475 137.721 105.095 137.328 105.167C136.935 105.238 135.47 106.274 135.148 106.488C134.827 106.703 132.326 115.102 132.397 115.53C132.468 115.959 132.862 116.031 133.112 116.031C133.361 116.031 139.045 116.568 139.045 116.568L137.661 106.72C137.661 106.72 138.385 106.221 138.656 105.475Z" fill="white"/>
<path fill-rule="evenodd" clip-rule="evenodd" d="M153.343 118.366L139.034 132.365C139.034 132.365 162.283 124.619 162.711 124.369C163.141 124.118 163.212 123.977 163.248 123.368C163.284 122.76 161.89 117.686 161.89 117.686L153.343 118.366Z" fill="#FEF4F5"/>
<path fill-rule="evenodd" clip-rule="evenodd" d="M160.679 106.29C160.679 106.29 162.042 105.49 162.972 105.49C163.9 105.49 166.472 108.937 166.472 108.937C166.472 108.937 166.458 117.329 165.885 119.187C165.885 119.187 165.778 119.473 165.278 119.473C164.777 119.473 153.343 118.366 153.343 118.366C153.343 118.366 162.15 110.767 162.562 108.128C162.562 108.128 161.277 107.384 160.679 106.29Z" fill="white"/>
<path fill-rule="evenodd" clip-rule="evenodd" d="M152.927 157.981L149.646 155.666C149.646 155.666 152.805 152.364 153.653 151.704C154.501 151.042 155.706 150.447 158.605 150.252C161.504 150.058 178.441 149.657 193.366 158.41C193.366 158.41 195.642 159.934 197.43 161.564C197.43 161.564 197.742 161.667 198.378 161.471C199.013 161.276 200.755 161.019 201.344 160.059C201.446 159.894 201.614 159.33 201.865 158.479C204.677 148.966 209.595 138.074 220.518 134.934C220.518 134.934 221.384 134.856 222.071 135.086C222.755 135.314 223.99 136.544 223.99 136.544L214.455 162.493C214.455 162.493 206.531 170.264 205.472 171.633C204.413 172.999 196.817 176.146 189.913 174.053C183.01 171.96 152.927 157.981 152.927 157.981Z" fill="white"/>
<path fill-rule="evenodd" clip-rule="evenodd" d="M147.791 155.216C147.791 155.216 146.535 155.969 146.63 157.457C146.724 158.948 150.819 193.256 151.103 194.88C151.39 196.502 151.848 197.376 153.414 197.326C154.98 197.279 181.518 197.12 201.441 203.183C201.441 203.183 202.738 203.556 203.768 203.147C204.799 202.739 207.702 200.782 208.11 200.129C208.517 199.477 214.586 186.244 219.539 184.193C219.539 184.193 220.872 183.486 220.984 181.89C221.099 180.296 221.767 170.887 222.299 163.392C222.831 155.898 224.055 140.918 226.173 135.94C226.173 135.94 226.351 135.111 225.605 134.898C224.859 134.684 209.174 140.651 203.706 161.712C203.706 161.712 199.83 164.402 195.546 163.776C195.546 163.776 172.801 150.061 147.791 155.216Z" fill="#F4AA10"/>
<path fill-rule="evenodd" clip-rule="evenodd" d="M150.472 189.969C150.806 192.678 151.042 194.532 151.103 194.88C151.39 196.502 151.848 197.376 153.414 197.326C154.98 197.279 181.518 197.12 201.441 203.183C201.441 203.183 202.738 203.556 203.768 203.147C204.799 202.739 207.702 200.782 208.11 200.129C208.517 199.477 214.586 186.244 219.539 184.193C219.539 184.193 220.872 183.486 220.985 181.89L221.201 178.85C212.158 181.442 209.103 178.192 208.545 175.154C208.006 172.221 206.976 161.137 206.353 154.136C205.332 156.411 204.429 158.93 203.707 161.712C203.707 161.712 199.829 164.402 195.546 163.776C195.546 163.776 193.667 162.644 190.398 161.152C192.41 166.877 194.118 173.458 193.893 178.906C193.374 191.537 190.855 194.898 185.584 195.257C180.312 195.614 165.66 194.004 158.155 193.38C154.879 193.108 152.318 191.591 150.472 189.969Z" fill="#F29B10"/>
<path fill-rule="evenodd" clip-rule="evenodd" d="M199.253 202.549C199.99 202.753 200.72 202.963 201.442 203.183C201.442 203.183 202.738 203.556 203.769 203.147C204.626 202.807 206.781 201.395 207.715 200.555C207.121 192.634 205.15 166.306 205.072 164.532C204.98 162.442 203.706 161.712 203.706 161.712C203.706 161.712 199.83 164.402 195.546 163.776C195.546 163.776 196.084 164.414 196.114 165.118C196.144 165.821 199.253 202.549 199.253 202.549Z" fill="#E96F18"/>
<path fill-rule="evenodd" clip-rule="evenodd" d="M206.314 210.142C206.314 210.142 203.826 210.768 201.758 209.419C199.69 208.069 199.331 206.361 199.114 204.342C198.895 202.323 198.787 201.032 198.787 201.032C198.787 201.032 196.655 196.634 196.126 196.197C195.596 195.758 192.352 193.484 191.765 192.72C191.178 191.958 191.263 190.201 193.022 190.246C193.022 190.246 191.478 189.414 190.963 188.777C190.447 188.139 190.31 186.688 190.588 186.146C190.868 185.606 193.445 185.987 193.445 185.987C193.445 185.987 191.539 184.61 191.235 183.828C190.929 183.044 190.977 181.806 191.288 181.387C191.597 180.968 196.194 182.257 200.327 183.311C200.327 183.311 202.343 183.695 203.981 184.893C205.618 186.091 206.646 186.845 206.646 186.845C206.646 186.845 204.345 183.157 203.107 181.985C201.866 180.816 198.346 177.923 197.767 177.04C197.189 176.157 197.208 174.755 197.316 174.362C197.424 173.97 197.82 173.477 198.982 174.04C200.144 174.603 203.508 176.885 206.542 178.743C209.575 180.602 209.755 181.457 210.951 183.786C212.148 186.114 213.543 190.739 214.099 192.504C214.655 194.266 212.969 198.834 211.768 202.195C210.568 205.554 209.229 209.747 206.314 210.142Z" fill="#F4A175"/>
<path fill-rule="evenodd" clip-rule="evenodd" d="M206.416 186.482C206.612 186.454 206.87 186.355 207.128 186.065C207.653 185.474 206.472 183.112 203.455 180.226C200.784 177.67 198.729 174.5 198.293 173.804C197.652 173.699 197.4 174.061 197.316 174.362C197.208 174.755 197.189 176.157 197.767 177.04C198.346 177.923 201.866 180.816 203.107 181.985C204.107 182.931 205.803 185.52 206.416 186.482ZM203.521 184.584C204.964 185.624 206.079 186.457 206.079 186.457L206.141 186.474C205.682 186.139 204.935 185.592 203.981 184.893C203.831 184.783 203.677 184.68 203.521 184.584ZM191.05 185.91C191.872 185.754 193.445 185.987 193.445 185.987C193.445 185.987 191.539 184.61 191.235 183.828C191.073 183.415 191.011 182.874 191.033 182.393C196.043 185.188 202.855 186.618 203.783 188.162C204.767 189.803 205.226 190.067 204.767 190.001C204.307 189.936 195.517 186.065 192.565 186C191.976 185.986 191.474 185.948 191.05 185.91ZM192.656 190.265C195.355 190.735 202.667 193.477 202.667 193.477C202.667 193.477 201.815 192.624 199.256 191.313C197.292 190.305 192.739 188.913 190.521 187.695C190.603 188.115 190.75 188.515 190.963 188.777C191.478 189.414 193.022 190.246 193.022 190.246C192.891 190.242 192.769 190.25 192.656 190.265ZM206.314 210.142C206.314 210.142 203.826 210.768 201.758 209.419C199.69 208.069 199.331 206.361 199.114 204.342C198.895 202.323 198.787 201.032 198.787 201.032C198.787 201.032 196.655 196.634 196.126 196.197C195.596 195.758 192.352 193.484 191.765 192.72C191.465 192.332 191.341 191.685 191.524 191.149C192.102 191.635 193.26 192.316 195.058 193.215C199.125 195.249 201.421 197.676 201.684 201.153C201.922 204.31 205.889 208.491 211.036 204.231C209.982 207.053 208.657 209.825 206.314 210.142Z" fill="#EF7164"/>
<path fill-rule="evenodd" clip-rule="evenodd" d="M113.635 42.003L116.851 51.9198C116.851 51.9198 148.479 53.5281 156.164 36.0168C156.164 36.0168 160.273 52.6345 176.356 51.205C192.438 49.7756 173.961 21.3993 171.459 20.1487C168.958 18.8982 145.904 15.968 142.583 16.8957C139.261 17.8257 124.286 19.6176 122.855 22.2985C121.425 24.9785 121.247 26.9438 121.247 29.0888C121.247 31.2322 113.635 42.003 113.635 42.003Z" fill="#201313"/>
<path fill-rule="evenodd" clip-rule="evenodd" d="M113.635 42.003L114.35 44.2073C127.836 46.6626 146.742 46.1821 156.08 28.025C156.08 28.025 172.537 38.3335 182.676 39.1844C180.88 30.0307 174.098 18.8942 172.603 18.147C170.101 16.8964 145.19 12.3935 141.868 13.3228C138.546 14.252 120.068 16.3606 118.638 19.0406C117.208 21.7214 117.03 23.6875 117.03 25.8309C117.03 27.9751 113.635 42.003 113.635 42.003Z" fill="#271315"/>
<path fill-rule="evenodd" clip-rule="evenodd" d="M115.413 34.3626C111.826 34.2304 108.363 33.7294 105.419 32.9664C105.374 33.6249 105.347 34.2858 105.338 34.9467C108.004 35.8308 111.174 36.6255 114.792 37.0909C115.453 37.1756 116.128 37.2492 116.817 37.3117C117.314 37.3553 117.819 37.3932 118.33 37.4241C119.196 37.4771 120.082 37.5096 120.99 37.5199C121.876 37.5294 122.781 37.5175 123.705 37.4819C127.06 37.3521 130.664 36.9073 134.493 36.0311C141.56 34.4132 146.434 30.1708 149.793 25.0117C150.291 24.2464 150.757 23.4612 151.191 22.6618C152.133 20.922 152.93 19.1134 153.603 17.2938C153.955 16.3424 154.271 15.3862 154.559 14.4364C154.67 14.0708 154.775 13.7051 154.877 13.341C156.288 8.28644 156.858 3.463 157.084 0.120476C153.527 -0.103519 148.697 -0.0417671 143.478 0.532867C143.715 3.81286 143.818 8.36321 143.211 13.0648L143.193 13.1977C143.03 14.4309 142.818 15.6736 142.547 16.9067C141.943 19.6509 141.043 22.3452 139.734 24.7648C139.497 25.2017 139.248 25.6299 138.983 26.047C136.807 29.4956 132.938 31.719 128.399 32.998C126.131 33.6368 123.694 34.0396 121.216 34.2407C120.509 34.2985 119.798 34.3396 119.086 34.3657C118.95 34.3705 118.815 34.3744 118.68 34.3784C117.586 34.4085 116.494 34.4029 115.413 34.3626Z" fill="#301418"/>
<path fill-rule="evenodd" clip-rule="evenodd" d="M72.7996 111.907C73.3014 111.766 73.3331 111.452 73.3426 111.233C73.4858 107.964 73.0624 105.961 73.0624 105.961C73.0624 105.961 72.9239 105.124 72.0326 104.928C72.0326 104.928 67.3564 106.758 60.7046 104.181C60.7046 104.181 59.9503 104.397 59.7279 104.777C59.6915 104.837 58.8683 106.649 58.3736 109.705C58.334 109.943 58.4512 110.302 58.7678 110.465C60.6167 111.412 65.9555 113.627 72.7996 111.907Z" fill="white"/>
<path fill-rule="evenodd" clip-rule="evenodd" d="M65.957 105.467C64.4191 105.311 62.647 104.934 60.7046 104.181C60.7046 104.181 59.9503 104.397 59.7279 104.777C59.6915 104.837 58.8683 106.649 58.3736 109.705C58.334 109.943 58.4512 110.302 58.7678 110.465C59.6044 110.894 61.1534 111.581 63.2335 112.046C63.8912 107.968 65.0421 106.216 65.957 105.467Z" fill="#FBE3D4"/>
<path fill-rule="evenodd" clip-rule="evenodd" d="M155.731 175.342C154.658 175.342 154.472 174.181 154.472 174.181L153.311 163.009C153.311 163.009 153.204 162.177 153.965 161.908C154.724 161.641 173.875 160.449 190.134 170.046C190.134 170.046 190.728 170.319 190.775 171.111C190.821 171.902 190.841 175.69 190.841 175.824C190.841 175.957 190.841 176.851 190.841 177.924C190.841 178.995 190.841 178.907 190.841 179.198C190.841 179.487 190.651 179.632 190.407 179.677C190.161 179.722 171.198 174.797 155.731 175.342Z" fill="#E98E14"/>
</svg>
