<svg width="225" height="323" viewBox="0 0 225 323" fill="none" xmlns="http://www.w3.org/2000/svg">
<circle cx="112.5" cy="207.5" r="112.5" fill="#FE9E98"/>
<path d="M81.6033 29.1086C80.9645 29.1086 80.2781 28.9848 79.5606 28.707C75.926 26.0159 77.5083 21.475 81.0035 20.8319C81.2588 20.7852 81.515 20.7618 81.7687 20.7618C83.4894 20.7618 85.0968 21.8109 85.7079 23.4659C86.6999 26.1535 84.7134 29.1086 81.6033 29.1086Z" fill="#FC9C94"/>
<path d="M98.3944 25.0118C94.6629 25.0118 91.236 22.5467 90.1792 18.7779C88.9059 14.2379 91.5546 9.52656 96.0945 8.2533C96.8649 8.0369 97.6405 7.9339 98.4031 7.9339C102.135 7.9339 105.562 10.3991 106.618 14.1687C107.892 18.7087 105.243 23.42 100.703 24.6933C99.9325 24.9088 99.157 25.0118 98.3944 25.0118Z" fill="#FC9C94"/>
<path d="M109.747 130.1L122.411 176.406L117.897 171.201C119.57 172.09 121.504 172.774 123.647 173.254C125.787 173.736 128.124 174.014 130.564 174.141C133.005 174.267 135.552 174.246 138.153 174.137C140.756 174.028 143.416 173.834 146.115 173.603L146.129 173.603C150.112 173.262 153.617 176.216 153.956 180.198C154.28 183.996 151.585 187.361 147.884 187.961C145.1 188.404 142.268 188.825 139.363 189.161C136.458 189.495 133.481 189.748 130.397 189.818C127.314 189.884 124.119 189.77 120.817 189.291C117.522 188.813 114.102 187.954 110.761 186.512C108.622 185.589 107.099 183.835 106.407 181.789L106.247 181.308L91.0542 135.771C89.3464 130.652 92.1119 125.118 97.2309 123.41C102.349 121.702 107.883 124.468 109.591 129.586C109.644 129.747 109.702 129.939 109.747 130.1Z" fill="#F4A175"/>
<path d="M114.623 297.968C114.435 297.968 114.243 297.936 114.056 297.868L47.7132 273.949C46.8441 273.637 46.3931 272.678 46.7065 271.809C47.0198 270.939 47.9789 270.487 48.8488 270.802L115.19 294.72C116.06 295.034 116.51 295.992 116.197 296.862C115.952 297.543 115.308 297.968 114.623 297.968Z" fill="#D1692A"/>
<path d="M45.8607 297.867L44.1322 296.5C43.818 295.631 44.0857 295.036 44.9547 294.721L112.084 270.409C112.953 270.094 113.913 270.543 114.227 271.412C114.542 272.281 114.093 273.24 113.224 273.555L46.0938 297.867C45.906 297.935 45.8607 297.867 45.8607 297.867Z" fill="#D1692A"/>
<path d="M117.632 319L115.632 319L105.705 248.76H55.5613L48.6322 299.5L46.1323 298L43.7661 296L50.212 245.521C50.3999 244.097 51.6143 243.032 53.0511 243.032H108.211C109.645 243.032 110.859 244.093 111.049 245.515L121.132 318.5L119.132 319C119.003 319.018 117.759 319 117.632 319Z" fill="#F7942C"/>
<path d="M92.2356 245.895H56.411C45.0615 245.895 32.9073 239.684 31.1646 228.468C28.8346 213.472 28.2581 198.948 28.909 185.62C29.6444 170.548 36.8422 156.525 48.6917 147.18C48.6917 147.18 55.8475 178.367 46.8498 221.408C50.2853 237.764 92.2356 245.895 92.2356 245.895Z" fill="#F7942C"/>
<path d="M84.7704 62.9883C84.7704 62.9883 80.5091 52.7251 69.2367 54.6579C61.3564 56.0091 57.9997 65.8265 58.4637 80.9854C59.1397 103.048 51.6758 116.344 51.6758 116.344L61.5823 118.596C61.5823 118.596 86.7967 80.7733 84.7704 62.9883Z" fill="#33313B"/>
<path d="M175.115 302.375H159.114C159.114 302.375 155.411 284.615 154.169 274.656C152.925 264.696 152.281 241.085 152.281 241.085C152.281 241.085 139.529 245.227 112.836 243.665C53.6909 240.211 76.1172 196.758 76.1172 196.758C78.1159 199.517 90.356 197.603 98.7227 198.923C124.401 201.387 146.671 211.465 160.036 217.231C163.254 218.619 166.115 220.088 168.621 221.633C171.844 223.619 173.859 229.645 175.074 237.571C178.726 261.393 175.115 302.375 175.115 302.375Z" fill="#33313B"/>
<path d="M161.099 293.817C160.833 293.817 160.593 293.63 160.539 293.357C158.231 281.932 157.456 267.711 156.833 256.285C156.316 246.81 155.829 237.861 154.612 236.786C153.626 235.914 149.533 236.593 144.35 237.454C134.042 239.166 118.464 241.751 101.285 237.754C91.9274 235.576 85.0486 231.031 80.8384 224.244C73.5788 212.539 76.8888 198.027 76.9226 197.882C76.9953 197.575 77.3043 197.383 77.6116 197.456C77.9197 197.529 78.1101 197.837 78.0374 198.145C78.0045 198.285 74.8053 212.353 81.8174 223.649C85.8614 230.163 92.4987 234.533 101.544 236.638C118.502 240.584 133.944 238.021 144.163 236.324C150.282 235.308 153.976 234.695 155.37 235.927C156.876 237.258 157.3 243.801 157.976 256.222C158.598 267.612 159.37 281.787 161.661 293.131C161.723 293.441 161.524 293.743 161.214 293.806L161.099 293.817Z" fill="#4F5058"/>
<path d="M175.422 294.118H175.409L157.615 293.736C157.299 293.73 157.048 293.467 157.055 293.151C157.062 292.835 157.32 292.578 157.64 292.591L175.434 292.973C175.75 292.98 176.001 293.241 175.994 293.558C175.987 293.87 175.732 294.118 175.422 294.118Z" fill="#4F5058"/>
<path d="M174 302L160.938 309L160.014 302.375H174.047L174 302Z" fill="#F57A68"/>
<path d="M46.4988 182.984C46.4988 182.984 45.9924 186.433 50.6163 187.403L98.8084 189.01C98.8084 189.01 102.066 187.373 101.478 183.338C101.478 183.338 81.1298 171.909 46.4988 182.984Z" fill="#304DA8"/>
<path d="M99.4701 198.923C74.4539 212.682 47.1396 201.601 47.1396 201.601C48.4761 197.956 49.4655 193.844 50.1839 190.105C51.0175 185.755 51.4849 181.911 51.6987 179.891C62.3401 179.308 88.4227 178.198 98.6426 180.622L98.7239 184.718L99.4701 198.923Z" fill="#F57A68"/>
<path d="M80.9907 192.322C80.8055 193.612 80.2238 194.595 79.6897 194.519C79.1565 194.442 78.8735 193.335 79.0587 192.045C79.244 190.755 79.8265 189.772 80.3597 189.848C80.8938 189.925 81.1759 191.032 80.9907 192.322Z" fill="#F14558"/>
<path d="M98.7236 184.718C88.0718 184.07 67.11 183.846 50.1836 190.105C51.0171 185.755 51.4846 181.911 51.6984 179.891C62.3398 179.308 88.4223 178.198 98.6423 180.622L98.7236 184.718Z" fill="#F14558"/>
<path d="M110.609 164.925C110.508 165.234 110.387 165.523 110.249 165.795C110.198 165.896 110.145 165.999 110.089 166.099C108.75 168.584 106.675 170.737 104.939 172.27C104.578 172.586 104.231 172.878 103.91 173.139C103.268 173.66 102.724 174.064 102.35 174.331C102.006 174.578 101.804 174.705 101.804 174.705L101.797 174.78C101.778 174.965 101.763 175.161 101.747 175.367C101.687 176.153 101.633 177.093 101.595 178.162C101.561 179.022 101.538 179.966 101.515 180.98C101.502 181.732 101.487 182.519 101.478 183.338C87.3409 177.022 58.2271 181.008 46.5002 182.983C46.7148 181.969 46.9105 180.978 47.0905 180.009C47.9197 175.536 48.3854 171.509 48.5706 167.904C48.8485 162.534 48.3793 154.465 47.2394 146.131C47.1675 145.589 47.0905 145.051 47.0117 144.51C46.9607 144.156 46.9079 143.806 46.8507 143.453C46.4508 140.836 45.9851 138.215 45.4545 135.673C43.1417 124.58 44.7655 112.936 56.012 111.559C56.8283 111.458 57.6333 111.366 58.414 111.284C63.7148 110.718 68.0765 110.525 69.2883 110.478C69.5099 110.47 69.6242 110.465 69.6242 110.465L91.3675 116.781L93.4354 117.38C94.623 117.762 95.7223 118.133 96.7385 118.494C97.1721 118.651 97.5928 118.804 97.997 118.955C99.0513 119.351 100.008 119.737 100.875 120.12C102.616 120.89 103.995 121.64 105.086 122.416C109.855 125.802 109.116 129.628 108.994 137.184L108.992 137.286C108.991 137.381 108.991 137.478 108.988 137.578V137.707C108.984 138.015 108.984 138.323 108.986 138.632C108.992 139.608 109.027 140.579 109.086 141.55C109.167 142.977 109.295 144.394 109.45 145.785C109.511 146.342 109.575 146.896 109.643 147.445C109.707 147.961 109.772 148.476 109.841 148.984C110.712 155.598 111.79 161.394 110.609 164.925Z" fill="#2F67BA"/>
<path d="M108.993 137.286C108.991 137.381 108.991 137.478 108.989 137.578V137.707C108.985 138.015 108.985 138.323 108.987 138.632L104.419 141.499C104.281 141.586 104.122 141.614 103.97 141.588C103.798 141.559 103.639 141.459 103.539 141.299C103.352 141 103.443 140.607 103.741 140.42L108.585 137.38C108.71 137.301 108.855 137.272 108.993 137.286Z" fill="#304DA8"/>
<path d="M78.8692 161.759C78.6952 161.759 78.5212 161.687 78.3949 161.548C78.1594 161.285 78.1811 160.882 78.4425 160.647L82.6942 156.821C82.9556 156.585 83.359 156.606 83.5944 156.868C83.8298 157.13 83.8091 157.533 83.5468 157.768L79.2959 161.595C79.1739 161.705 79.0215 161.759 78.8692 161.759Z" fill="#304DA8"/>
<path d="M109.841 148.984L106.929 151.605C106.805 151.715 106.655 151.768 106.502 151.768C106.328 151.768 106.153 151.698 106.027 151.558C105.792 151.297 105.813 150.892 106.074 150.656L109.643 147.445C109.707 147.961 109.773 148.476 109.841 148.984Z" fill="#304DA8"/>
<path d="M70.2479 146.375C70.1484 146.231 70.1077 146.048 70.151 145.864C70.2315 145.521 70.5751 145.309 70.9179 145.39L76.4844 146.702C76.8272 146.783 77.0401 147.126 76.9596 147.469C76.8783 147.812 76.5346 148.024 76.1919 147.943L70.6253 146.632C70.466 146.594 70.3345 146.499 70.2479 146.375Z" fill="#304DA8"/>
<path d="M50.3863 157.295C50.2114 157.295 50.0383 157.223 49.912 157.084C49.6765 156.822 49.6982 156.419 49.9596 156.184L54.2104 152.357C54.4727 152.121 54.8752 152.142 55.1115 152.404C55.3469 152.666 55.3253 153.069 55.0639 153.305L50.813 157.131C50.691 157.24 50.5386 157.295 50.3863 157.295Z" fill="#304DA8"/>
<path d="M99.8655 156.384C99.9201 156.219 100.044 156.076 100.216 156.001C100.539 155.861 100.915 156.009 101.055 156.332L103.339 161.574C103.479 161.897 103.331 162.274 103.008 162.414C102.686 162.555 102.31 162.407 102.17 162.084L99.8854 156.841C99.8205 156.69 99.8171 156.528 99.8655 156.384Z" fill="#304DA8"/>
<path d="M110.609 164.925C110.508 165.234 110.387 165.523 110.25 165.795C110.199 165.896 110.145 165.999 110.089 166.099L106.985 165.119C106.827 165.07 106.703 164.966 106.627 164.834C106.538 164.685 106.51 164.498 106.567 164.32C106.674 163.983 107.031 163.797 107.367 163.904L110.609 164.925Z" fill="#304DA8"/>
<path d="M93.0547 165.384C93.2279 165.366 93.4088 165.419 93.5473 165.546C93.8078 165.782 93.8277 166.185 93.5914 166.446L89.7474 170.682C89.5111 170.942 89.1077 170.962 88.8472 170.725C88.5858 170.488 88.5667 170.085 88.803 169.824L92.6471 165.589C92.757 165.467 92.9033 165.399 93.0547 165.384Z" fill="#304DA8"/>
<path d="M90.7919 155.617C90.6196 155.587 90.4603 155.487 90.3608 155.328C90.173 155.03 90.263 154.636 90.5616 154.449L95.4054 151.408C95.704 151.221 96.097 151.311 96.2848 151.61C96.4718 151.908 96.3818 152.301 96.0831 152.488L91.2394 155.529C91.1009 155.616 90.9407 155.643 90.7919 155.617Z" fill="#304DA8"/>
<path d="M93.8779 137.199C93.9939 137.329 94.0571 137.506 94.0363 137.693C93.9982 138.044 93.6832 138.296 93.3335 138.257L87.6475 137.638C87.2978 137.6 87.045 137.285 87.0822 136.935C87.1212 136.585 87.4354 136.332 87.786 136.37L93.4711 136.99C93.6347 137.008 93.7767 137.085 93.8779 137.199Z" fill="#304DA8"/>
<path d="M85.6103 124.866C85.6519 124.696 85.7627 124.544 85.928 124.455C86.2387 124.289 86.6257 124.405 86.7919 124.715L89.4977 129.754C89.6647 130.064 89.5487 130.451 89.238 130.618C88.9281 130.784 88.5412 130.668 88.375 130.357L85.6683 125.319C85.5904 125.174 85.5748 125.013 85.6103 124.866Z" fill="#304DA8"/>
<path d="M104.939 172.27C104.578 172.586 104.231 172.878 103.91 173.139L103.162 171.234C103.101 171.082 103.105 170.92 103.158 170.777C103.22 170.614 103.347 170.475 103.521 170.408C103.849 170.278 104.219 170.439 104.348 170.767L104.939 172.27Z" fill="#304DA8"/>
<path d="M52.6592 162.579C52.577 162.426 52.5571 162.239 52.6203 162.063C52.7397 161.731 53.1059 161.56 53.4365 161.678L58.8187 163.615C59.1494 163.733 59.3216 164.098 59.2022 164.431C59.0836 164.762 58.7174 164.934 58.3868 164.814L53.0046 162.878C52.8505 162.823 52.7311 162.714 52.6592 162.579Z" fill="#304DA8"/>
<path d="M55.2968 169.855C55.4707 169.856 55.6447 169.929 55.7694 170.069C56.0022 170.332 55.9771 170.736 55.714 170.969L51.4302 174.759C51.1662 174.992 50.7629 174.968 50.5291 174.704C50.2963 174.44 50.3214 174.037 50.5845 173.803L54.8692 170.014C54.9912 169.906 55.1444 169.853 55.2968 169.855Z" fill="#304DA8"/>
<path d="M63.0573 175.872C63.1655 176.009 63.2183 176.19 63.1863 176.375C63.1274 176.722 62.7976 176.956 62.4505 176.896L56.8121 175.935C56.465 175.877 56.2313 175.548 56.2911 175.2C56.3499 174.852 56.6788 174.62 57.0268 174.678L62.6643 175.639C62.8262 175.666 62.963 175.753 63.0573 175.872Z" fill="#304DA8"/>
<path d="M67.7731 122.327C67.728 122.159 67.7505 121.972 67.8527 121.814C68.044 121.518 68.4378 121.433 68.7338 121.624L73.5404 124.724C73.8364 124.915 73.9213 125.31 73.7308 125.606C73.5395 125.902 73.1448 125.987 72.8488 125.797L68.0431 122.696C67.9055 122.607 67.8129 122.474 67.7731 122.327Z" fill="#304DA8"/>
<path d="M100.565 125.982C100.718 125.898 100.905 125.878 101.082 125.941C101.414 126.058 101.587 126.423 101.47 126.755L99.5575 132.146C99.4397 132.477 99.0753 132.651 98.743 132.532C98.4114 132.415 98.2375 132.05 98.3552 131.719L100.268 126.328C100.323 126.174 100.431 126.054 100.565 125.982Z" fill="#304DA8"/>
<path d="M97.9978 118.955L95.0427 122.743C94.8263 123.021 94.4264 123.07 94.1486 122.854C93.8698 122.637 93.8205 122.237 94.0378 121.959L96.7392 118.494C97.1729 118.651 97.5936 118.804 97.9978 118.955Z" fill="#304DA8"/>
<path d="M69.1129 171.268C69.1743 171.451 69.3267 171.578 69.505 171.613C69.5915 171.631 69.6824 171.628 69.7707 171.598C69.8651 171.567 79.1155 168.571 88.8507 172.605C93.7966 174.653 98.1946 175.438 101.749 175.367C101.763 175.161 101.779 174.964 101.798 174.779L101.805 174.706C101.805 174.706 102.007 174.577 102.351 174.331C98.8568 174.502 94.3748 173.764 89.2497 171.642C79.1449 167.457 69.833 170.48 69.4435 170.611C69.17 170.701 69.0228 170.995 69.1129 171.268Z" fill="#304DA8"/>
<path d="M91.3666 116.782C90.1495 118.67 87.6342 120.81 82.5446 120.44C75.523 119.93 70.9034 113.233 69.2891 110.478C69.5089 110.47 69.624 110.467 69.624 110.467L91.3666 116.782Z" fill="#304DA8"/>
<path d="M83.8977 129.21C84.1046 129.252 84.3114 129.281 84.5183 129.298C86.4607 129.454 88.0326 128.891 89.1916 127.625C92.5682 123.936 91.1816 115.526 91.121 115.171C91.0734 114.888 90.8024 114.697 90.5211 114.745C90.2372 114.793 90.0468 115.062 90.0944 115.346C90.1091 115.428 91.4577 123.61 88.423 126.923C87.4786 127.954 86.2296 128.392 84.6023 128.26C77.7971 127.713 70.1757 110.432 70.0986 110.259C69.9844 109.995 69.6779 109.875 69.4139 109.989C69.1508 110.105 69.0296 110.412 69.1456 110.675C69.4581 111.391 76.6866 127.748 83.8977 129.21Z" fill="white"/>
<path d="M105.087 122.416C104.64 127.405 105.866 135.635 109.086 141.55C109.01 140.273 108.975 138.992 108.989 137.707L108.988 137.577C108.992 137.445 108.993 137.315 108.996 137.185C109.117 129.628 109.856 125.801 105.087 122.416Z" fill="#F57A68"/>
<path d="M65.0918 131.193C62.5963 140.817 53.4774 148.541 47.24 146.131C47.1656 145.59 47.0894 145.051 47.0106 144.51C46.9596 144.157 46.9059 143.806 46.8496 143.453C46.4515 140.836 45.9832 138.216 45.4526 135.673C43.1406 124.58 44.7645 112.937 56.0101 111.559C56.8272 111.459 57.6322 111.367 58.4138 111.284C64.0453 113.684 67.9638 120.11 65.0918 131.193Z" fill="#EF7164"/>
<path d="M66.3776 123.853L80.992 177.293L75.783 171.288C77.7141 172.312 79.9464 173.102 82.4185 173.655C84.8889 174.212 87.5852 174.533 90.4009 174.679C93.2192 174.826 96.1579 174.8 99.1606 174.675C102.164 174.549 105.234 174.325 108.35 174.059L108.366 174.058C112.962 173.666 117.006 177.074 117.397 181.671C117.772 186.052 114.661 189.936 110.391 190.629C107.178 191.141 103.909 191.626 100.557 192.013C97.2044 192.4 93.7671 192.691 90.2079 192.772C86.6512 192.849 82.9647 192.717 79.1527 192.164C75.3502 191.611 71.404 190.62 67.5478 188.957C65.0792 187.892 63.3212 185.867 62.5223 183.506L62.3379 182.951L44.8038 130.396C42.8329 124.489 46.0243 118.102 51.9319 116.131C57.8395 114.161 64.2257 117.352 66.1975 123.26C66.259 123.445 66.3248 123.666 66.3776 123.853Z" fill="#FAB368"/>
<path d="M72.9181 175.583C72.7675 175.583 72.6212 175.504 72.5415 175.364C72.4229 175.157 72.4948 174.892 72.7025 174.774C72.8367 174.697 76.035 172.891 79.3779 172.634C79.6176 172.615 79.8245 172.793 79.8427 173.032C79.8609 173.27 79.6826 173.478 79.4445 173.497C76.299 173.739 73.163 175.509 73.1319 175.526L72.9181 175.583Z" fill="#EF7164"/>
<path d="M78.2275 173.653L78.0042 173.59C75.9883 172.367 73.5491 172.182 73.524 172.18C73.286 172.164 73.1059 171.956 73.1232 171.718C73.1405 171.48 73.3405 171.302 73.5854 171.317C73.6936 171.325 76.2601 171.519 78.4526 172.851C78.6577 172.974 78.7227 173.241 78.5989 173.445C78.5166 173.579 78.3738 173.653 78.2275 173.653Z" fill="#EF7164"/>
<path d="M91.2611 145.486C97.7296 146.796 100.559 140.108 100.587 140.041C100.696 139.775 100.569 139.471 100.303 139.362C100.036 139.252 99.7325 139.379 99.6235 139.645C99.5196 139.898 97.083 145.604 91.468 144.465C85.5769 143.272 74.5848 131.677 74.4741 131.56C74.2767 131.351 73.9478 131.341 73.7383 131.539C73.5288 131.736 73.5193 132.065 73.7167 132.275C74.1763 132.762 85.0488 144.227 91.2611 145.486Z" fill="#304DA8"/>
<path d="M81.0927 103.396C81.0927 103.396 70.7135 101.442 67.787 90.9682C65.0015 80.995 67.1456 75.8214 70.0435 70.434C72.2257 66.377 79.1486 60.8936 88.8561 62.861C98.6579 64.8476 105.983 69.8775 107.066 77.936C109.092 93.0162 96.9259 111.413 81.0927 103.396Z" fill="#33313B"/>
<path d="M68.2802 92.5825C68.0915 92.5825 67.9098 92.4847 67.8094 92.3098C67.6224 91.98 63.2529 84.1275 66.8797 73.7925C69.1441 67.3387 73.607 64.4494 76.9516 63.1614C80.5663 61.7704 83.6114 61.902 83.7404 61.908C84.039 61.9228 84.2684 62.1764 84.2545 62.475C84.2398 62.7728 83.9914 63.0039 83.6884 62.9891C83.659 62.9874 80.7082 62.8654 77.3004 64.1862C72.7657 65.9451 69.6037 69.2975 67.9002 74.1508C64.444 84.002 68.7061 91.6979 68.7503 91.774C68.8974 92.0337 68.8065 92.3644 68.5468 92.5115C68.4629 92.56 68.3703 92.5825 68.2802 92.5825Z" fill="#F7942C"/>
<path d="M101.224 92.753C101.224 92.753 104.602 90.0852 105.49 93.6177C106.378 97.1493 103.872 103.427 99.9404 101.52L101.224 92.753Z" fill="#EC5152"/>
<path d="M97.9259 99.2422C96.2493 99.7971 94.7622 101.282 94.3874 103.132C93.8309 105.88 95.6131 108.57 98.3622 109.126C101.11 109.684 103.8 107.901 104.356 105.152C104.774 103.094 103.879 101.068 102.249 99.9477C101.702 99.5711 101.073 99.2968 100.382 99.1574L100.332 99.1487C100.235 99.495 100.276 99.7737 100.473 99.9892C101.028 100.136 101.532 100.388 101.968 100.72C103.239 101.687 103.921 103.327 103.582 104.995C103.112 107.316 100.842 108.822 98.5188 108.352C96.1973 107.882 94.6912 105.609 95.1613 103.289C95.504 101.601 96.7505 100.403 98.3249 100.024L97.9259 99.2422Z" fill="#F7942C"/>
<path d="M90.9904 107.885L89.5751 116.727C89.5751 116.727 82.956 123.484 70.8647 111.362C74.1107 108.944 75.3493 103.342 74.9693 99.7183C74.9693 99.7183 75.9241 100.292 77.3921 101.622C77.6786 101.881 78.0465 102.083 78.4074 102.33C81.6031 104.504 86.4997 107.332 90.9904 107.885Z" fill="#FAB368"/>
<path d="M90.9908 107.885L90.32 112.077C86.6932 110.461 80.281 107.005 77.3926 101.622C77.7076 101.847 78.047 102.083 78.4079 102.33C81.6036 104.504 86.5002 107.332 90.9908 107.885Z" fill="#EC5152"/>
<path d="M104.494 90.6219C104.305 91.5576 104.127 92.4466 103.951 93.2931C103.763 94.2124 103.579 95.078 103.398 95.8933C102.061 102.014 100.957 105.291 99.1717 106.518C90.1455 112.725 75.454 100.157 74.9814 99.7512L74.9692 99.7391C74.9571 99.0189 74.9571 98.3048 74.9718 97.6029C75.08 91.6485 76.0954 86.3027 77.7045 81.3533C78.5069 75.9547 82.6963 71.6259 88.0923 70.8105C93.6848 69.9692 97.8907 73.2047 100.522 74.6373C104.494 76.8029 106.05 82.8179 104.494 90.6219Z" fill="#FAB368"/>
<path d="M78.0134 75.8032C78.0134 75.8032 84.3304 63.653 96.9342 67.0435C109.538 70.4331 110.207 76.2879 110.429 79.2144C110.651 82.1418 103.903 76.9561 103.903 76.9561C103.903 76.9561 103.671 82.8101 101.421 81.0062C98.6627 78.7946 95.5752 74.021 95.5752 74.021C95.5752 74.021 88.0697 81.3983 80.9365 79.4083C76.8856 78.2788 78.0134 75.8032 78.0134 75.8032Z" fill="#33313B"/>
<path d="M93.4963 102.539C91.8587 102.539 90.7369 101.408 90.6797 101.349C90.5066 101.171 90.5101 100.885 90.6884 100.712C90.8667 100.54 91.1515 100.542 91.3246 100.721C91.3843 100.781 92.6844 102.07 94.3991 101.485C94.6337 101.404 94.8899 101.53 94.9704 101.765C95.0509 102.001 94.9254 102.256 94.69 102.337C94.2693 102.48 93.8694 102.539 93.4963 102.539Z" fill="#EC5152"/>
<path d="M89.7228 95.1818C89.7228 95.1818 95.8017 96.9831 98.9533 96.9831C98.9533 96.9831 97.378 101.486 92.8743 99.9096C89.3705 98.6831 89.7228 95.1818 89.7228 95.1818Z" fill="white"/>
<path d="M101.005 82.5305C101.005 82.5305 99.4257 82.3695 99.6819 83.899C99.9381 85.4284 103.362 84.4936 105.055 87.5586C105.055 87.5586 106.689 84.3456 101.005 82.5305Z" fill="#33313B"/>
<path d="M93.9878 81.1083C93.9878 81.1083 95.5051 81.5749 94.6742 82.8845C93.8432 84.1933 91.0535 81.9999 88.3009 84.1638C88.3009 84.1638 88.0456 80.5682 93.9878 81.1083Z" fill="#33313B"/>
<path d="M91.2467 92.0761C91.1013 92.7989 89.4948 93.0828 87.6589 92.7114C85.8238 92.3392 84.4545 91.452 84.6017 90.7301C84.7479 90.0074 86.3544 89.7235 88.1895 90.0957C90.0245 90.467 91.393 91.3542 91.2467 92.0761Z" fill="#EC5152"/>
<path d="M109.186 92.5522L104.278 91.7152C104.252 91.9238 104.201 92.1272 104.155 92.3314L104.12 92.431L109.063 93.2741C109.263 93.3087 109.452 93.1737 109.486 92.9746C109.52 92.7755 109.395 92.5816 109.186 92.5522Z" fill="white"/>
<path d="M88.796 93.6878L88.7068 93.667C87.1557 93.3199 85.9023 92.3366 85.1666 91.0487C84.5313 89.9364 84.2828 88.599 84.5607 87.247C84.6187 86.9683 84.6975 86.6982 84.7953 86.4386L84.8134 86.3892C85.5838 84.388 87.4647 83.0334 89.5724 82.9079C90.0407 82.8793 90.5202 82.9105 91.0015 83.0109C92.0376 83.2247 92.943 83.7206 93.6579 84.4053C94.9719 85.6613 95.6315 87.5456 95.2376 89.4542C94.6291 92.3963 91.7398 94.298 88.796 93.6878ZM96.0824 88.3593C96.0842 88.1074 96.0695 87.859 96.0383 87.6123C95.8773 86.2836 95.2878 85.051 94.3833 84.098C93.5567 83.2229 92.4712 82.5798 91.2118 82.3089L91.1512 82.2942C88.2775 81.7012 85.4488 83.2125 84.2777 85.7738C84.1746 85.9954 84.0855 86.2222 84.0128 86.4593C83.9435 86.6662 83.889 86.88 83.8431 87.0973C83.5107 88.7064 83.8379 90.2999 84.6386 91.5957C84.9113 92.0371 85.241 92.4448 85.615 92.8023C86.4269 93.59 87.463 94.1604 88.6471 94.4054C90.6423 94.8174 92.6132 94.2141 94.0258 92.9521C94.9788 92.1003 95.6765 90.9465 95.9543 89.6014L95.9578 89.5849C96.0409 89.1747 96.0824 88.7644 96.0824 88.3593Z" fill="white"/>
<path d="M109.539 92.4085C109.515 92.5262 109.489 92.6422 109.455 92.7547C109.411 92.9192 109.359 93.0784 109.296 93.236C108.865 94.3829 108.066 95.3203 107.066 95.9392C106.699 96.1677 106.304 96.3495 105.891 96.488C105.632 96.5719 105.368 96.6386 105.097 96.6827C105.017 96.6957 104.941 96.707 104.861 96.7147C104.286 96.7866 103.693 96.7667 103.095 96.6446L102.933 96.6083L102.834 96.5849C101.959 96.3564 101.182 95.9262 100.55 95.3497C100.455 95.2666 100.364 95.1792 100.278 95.0874C99.073 93.8367 98.4835 92.0311 98.8618 90.203C98.9475 89.7927 99.0773 89.4006 99.2444 89.0344C99.7914 87.8425 100.744 86.9094 101.891 86.3711C102.602 86.0369 103.389 85.8543 104.204 85.8526C104.335 85.8543 104.466 85.8604 104.601 85.8681C104.833 85.8863 105.067 85.9183 105.303 85.9677C105.473 86.0032 105.64 86.0447 105.802 86.0949C106.031 86.1651 106.248 86.2481 106.46 86.346C106.628 86.4204 106.793 86.5069 106.952 86.5996C108.913 87.7482 110.024 90.0619 109.539 92.4085ZM107.076 85.8309C106.909 85.7426 106.739 85.6639 106.561 85.5886C106.353 85.5029 106.138 85.4284 105.916 85.3661C105.764 85.3211 105.611 85.2839 105.453 85.2501C105.162 85.1895 104.872 85.1523 104.587 85.135C104.237 85.1116 103.892 85.1194 103.552 85.1566C102.609 85.2562 101.714 85.573 100.927 86.0629C100.062 86.6022 99.3301 87.3543 98.8194 88.2623C98.6852 88.4926 98.5692 88.735 98.468 88.9851L98.4541 89.0249C98.3225 89.3521 98.2187 89.6975 98.1451 90.0541C97.6509 92.4414 98.6125 94.7966 100.421 96.198C101.007 96.6542 101.684 97.0082 102.431 97.2306C102.543 97.2644 102.659 97.2955 102.774 97.3198L102.949 97.3613C103.545 97.4834 104.141 97.518 104.72 97.4661C104.814 97.46 104.907 97.4505 104.998 97.4384C105.252 97.4037 105.504 97.3561 105.75 97.2912C106.212 97.1718 106.656 96.9995 107.074 96.7797C108.654 95.9444 109.869 94.44 110.256 92.5574C110.827 89.7996 109.453 87.0826 107.076 85.8309Z" fill="white"/>
<path d="M76.4571 86.887L76.3333 86.8368C76.1628 86.7277 76.1134 86.5009 76.2225 86.3304C78.6799 82.489 84.5892 85.9383 84.6472 85.9738C84.822 86.0768 84.8792 86.301 84.7753 86.475C84.6723 86.6481 84.4481 86.7061 84.2741 86.6031C84.2205 86.571 78.9162 83.48 76.8388 86.726C76.7557 86.8567 76.6016 86.9164 76.4571 86.887Z" fill="white"/>
<path d="M98.7396 89.1981C98.6479 89.179 98.5622 89.1245 98.5068 89.0388C97.7208 87.8252 96.0382 88.3688 96.0226 88.3749C95.8304 88.4381 95.6227 88.3351 95.5586 88.1438C95.4954 87.9516 95.5984 87.7439 95.7906 87.6807C96.561 87.4236 98.248 87.2929 99.1214 88.6406C99.2313 88.8103 99.1828 89.0362 99.0132 89.1461C98.9292 89.2015 98.8314 89.2162 98.7396 89.1981Z" fill="white"/>
<path d="M103.399 95.8933C101.731 95.49 100.528 94.6633 100.664 93.983C100.768 93.4766 101.591 93.1858 102.705 93.1858C103.092 93.1858 103.513 93.2213 103.952 93.2931C103.763 94.2123 103.58 95.0779 103.399 95.8933Z" fill="#F24F5B"/>
<path d="M92.5382 88.4485C92.3374 89.4404 91.7246 90.1537 91.1697 90.0411C90.614 89.9286 90.3266 89.0336 90.5283 88.0408C90.7291 87.0488 91.342 86.3356 91.8968 86.4481C92.4525 86.5606 92.7399 87.4565 92.5382 88.4485Z" fill="#33313B"/>
<path d="M102.353 90.4376C102.152 91.4295 101.54 92.1419 100.984 92.0294C100.429 91.9177 100.142 91.0219 100.343 90.0299C100.544 89.038 101.157 88.3247 101.712 88.4372C102.267 88.5498 102.554 89.4448 102.353 90.4376Z" fill="#33313B"/>
<path d="M97.2862 93.1001C97.7614 93.197 98.099 93.1823 98.1275 93.1806C98.2444 93.1745 98.3526 93.12 98.427 93.03C98.5014 92.9408 98.5352 92.824 98.5187 92.708L97.8851 88.0754C97.8549 87.8477 97.6445 87.6885 97.416 87.7188C97.1884 87.7508 97.0291 87.9603 97.0602 88.1879L97.6246 92.3133C97.2109 92.2501 96.5842 92.0787 96.0259 91.6147C95.8484 91.4676 95.5862 91.4918 95.439 91.6684C95.2919 91.8459 95.3161 92.1081 95.4935 92.2553C96.1081 92.766 96.7763 92.9971 97.2862 93.1001Z" fill="#33313B"/>
<path d="M79.0245 96.3806C78.9552 96.4819 77.0371 99.2422 74.9814 99.7512L74.9779 99.752L74.9701 99.7399C74.9563 99.018 74.958 98.3048 74.971 97.602C75.0437 97.6046 77.0051 97.6591 79.0245 96.3806Z" fill="#33313B"/>
<path d="M78.6041 89.1227C78.6041 89.1227 75.7165 82.9901 71.9616 86.5883C68.868 89.5538 71.5738 99.463 76.9378 97.3423L78.6041 89.1227Z" fill="#F57A68"/>
<path d="M71.4966 94.4088C69.8208 94.9637 68.3338 96.4473 67.959 98.2979C67.4015 101.047 69.1846 103.735 71.9328 104.293C74.6819 104.85 77.3713 103.066 77.9278 100.318C78.3451 98.2607 77.45 96.2344 75.8193 95.1143C75.2731 94.7378 74.6438 94.4634 73.9531 94.3231L73.9038 94.3154C73.8068 94.6616 73.8475 94.9403 74.044 95.1558C74.5997 95.3021 75.1035 95.554 75.5397 95.8864C76.8104 96.8532 77.4916 98.4935 77.154 100.161C76.6831 102.483 74.4127 103.989 72.0904 103.518C69.7689 103.048 68.2628 100.776 68.7328 98.4546C69.0747 96.7675 70.322 95.5696 71.8965 95.1905L71.4966 94.4088Z" fill="#F7942C"/>
<path d="M76.7208 95.6284L76.7667 95.6345C76.9952 95.6553 77.1986 95.4873 77.2185 95.258C77.6418 90.6254 74.1457 88.2831 73.9968 88.1862C73.8047 88.0607 73.5458 88.1143 73.4203 88.3065C73.2948 88.4986 73.3485 88.7566 73.5407 88.883C73.6722 88.9695 76.7658 91.0599 76.3893 95.1827C76.3702 95.3956 76.5157 95.586 76.7208 95.6284Z" fill="#33313B"/>
<path d="M73.413 92.3817C73.503 92.4007 73.5999 92.3886 73.6882 92.3427C74.1019 92.1272 75.3216 91.6381 75.9889 91.961C76.1958 92.0605 76.4442 91.9748 76.5446 91.7671C76.645 91.5602 76.5585 91.3109 76.3516 91.2114C75.1874 90.6488 73.4917 91.5057 73.3022 91.6052C73.0987 91.7117 73.0191 91.9636 73.1264 92.167C73.187 92.2821 73.2944 92.3574 73.413 92.3817Z" fill="#33313B"/>
<path d="M82.3284 78.7237C82.3284 78.7237 78.4437 89.2751 78.2308 91.401C77.9408 94.2998 74.1106 84.3681 77.9668 75.882L82.3284 78.7237Z" fill="#33313B"/>
<path d="M147.259 302.43H131.258C131.258 302.43 127.555 284.67 126.313 274.71C125.069 264.751 124.425 241.139 124.425 241.139C124.425 241.139 111.673 245.281 84.98 243.721C25.8351 240.265 48.2612 196.812 48.2612 196.812C50.259 199.573 65.2482 203.376 73.6149 204.695C99.2932 207.159 118.815 211.519 132.179 217.286C135.398 218.674 138.258 220.142 140.765 221.687C143.987 223.674 146.003 229.7 147.218 237.626C150.869 261.448 147.259 302.43 147.259 302.43Z" fill="#33313B"/>
<path d="M133.243 293.872C132.975 293.872 132.736 293.685 132.682 293.413C130.374 281.988 129.599 267.766 128.975 256.34C128.459 246.864 127.971 237.915 126.754 236.84C125.769 235.968 121.675 236.649 116.493 237.509C106.185 239.22 90.6067 241.807 73.4284 237.809C64.0706 235.632 57.1918 231.087 52.9817 224.299C45.7212 212.594 49.0312 198.082 49.0658 197.937C49.1385 197.629 49.4466 197.438 49.7539 197.512C50.0621 197.584 50.2534 197.892 50.1806 198.201C50.1478 198.341 46.9486 212.409 53.9598 223.704C58.0038 230.218 64.641 234.589 73.6872 236.693C90.6448 240.639 106.087 238.075 116.306 236.379C122.425 235.363 126.119 234.75 127.512 235.981C129.019 237.313 129.443 243.857 130.12 256.277C130.74 267.668 131.513 281.843 133.804 293.186C133.867 293.496 133.666 293.798 133.356 293.86L133.243 293.872Z" fill="#4F5058"/>
<path d="M147.565 294.173H147.553L129.759 293.791C129.442 293.784 129.191 293.523 129.198 293.206C129.205 292.89 129.464 292.632 129.783 292.646L147.577 293.028C147.893 293.034 148.144 293.297 148.138 293.613C148.131 293.925 147.875 294.173 147.565 294.173Z" fill="#4F5058"/>
<path d="M146.413 315L135 317.5L133.349 309.681L132.158 302.43H146.191L146.413 309.681V315Z" fill="#F57A68"/>
<path d="M146.52 313.19L134.5 316L133.903 313.067L133.348 309.681H146.411L146.52 313.19Z" fill="#F7942C"/>
<path d="M146.52 313.19L133.903 313.067L133.348 309.681H146.411L146.52 313.19Z" fill="#D1692A"/>
<path d="M206.204 196.175V199.721C206.204 201.763 204.971 203.417 203.448 203.417H11.7547C10.2335 203.417 9 201.763 9 199.721V196.175C9 194.135 10.2335 192.482 11.7547 192.482H203.448C204.971 192.482 206.204 194.135 206.204 196.175Z" fill="#12AD6D"/>
<path d="M206.204 197.3V198.923H9V197.3H206.204Z" fill="#1A825A"/>
<path d="M200.442 212.535H20.251C19.4446 212.535 18.791 211.881 18.791 211.074V203.375H201.903V211.074C201.903 211.881 201.249 212.535 200.442 212.535Z" fill="#1A825A"/>
<path d="M192.35 264.037H31.2085V257.756H192.35V264.037Z" fill="#1A825A"/>
<path d="M33.1323 287L50.7857 212.535H39.8298L23.6323 277L33.1323 287Z" fill="#12AD6D"/>
<path d="M192 288L172.557 212.535H183.514L199 281L192 288Z" fill="#12AD6D"/>
<path d="M30.4161 188.246L27.0329 188.763L23.126 163.259L26.5088 162.741L30.4161 188.246Z" fill="#F7942C"/>
<path d="M26.5088 162.742L23.126 163.26L23.8705 160.676L24.2566 159.339L25.0251 160.499L26.5088 162.742Z" fill="#F57A68"/>
<path d="M30.4159 188.246L27.0327 188.763L26.749 186.911L30.1319 186.392L30.4159 188.246Z" fill="#33313B"/>
<path d="M30.4155 189.757L27.4826 190.205C27.3583 190.225 27.2423 190.139 27.223 190.016L27.0312 188.763L30.4145 188.246L30.6058 189.497C30.6251 189.622 30.5396 189.738 30.4155 189.757Z" fill="#F03B53"/>
<path d="M25.0243 160.499L23.8696 160.676L24.2558 159.339L25.0243 160.499Z" fill="#33313B"/>
<path d="M26.5449 185.582L29.9278 185.064L30.1314 186.392L26.7485 186.911L26.5449 185.582Z" fill="#D1692A"/>
<path d="M24.1584 164.388L27.0516 183.275C27.0736 183.417 27.2072 183.515 27.3495 183.493C27.4922 183.471 27.5902 183.338 27.5683 183.195L24.675 164.308C24.653 164.165 24.5198 164.067 24.3771 164.089C24.2344 164.111 24.1364 164.245 24.1584 164.388Z" fill="#D1692A"/>
<path d="M25.4825 164.183L28.3758 183.07C28.3974 183.213 28.531 183.312 28.6733 183.289C28.8164 183.268 28.9144 183.133 28.8924 182.991L25.9995 164.105C25.9775 163.962 25.844 163.864 25.7013 163.886C25.5586 163.908 25.4609 164.041 25.4825 164.183Z" fill="#D1692A"/>
<path d="M32.7097 188.66L29.2869 188.671L29.2031 162.87L32.6252 162.859L32.7097 188.66Z" fill="#12AD6D"/>
<path d="M32.6244 162.86L29.2017 162.87L30.3215 160.426L30.9013 159.16L31.489 160.421L32.6244 162.86Z" fill="#F57A68"/>
<path d="M32.7083 188.66L29.2855 188.671L29.2798 186.797L32.7019 186.785L32.7083 188.66Z" fill="#33313B"/>
<path d="M32.4867 190.155L29.5198 190.165C29.3944 190.165 29.2919 190.063 29.2915 189.938L29.2871 188.671L32.7099 188.66L32.7136 189.927C32.7139 190.053 32.6122 190.155 32.4867 190.155Z" fill="#F03B53"/>
<path d="M31.4894 160.421L30.3218 160.426L30.9016 159.16L31.4894 160.421Z" fill="#33313B"/>
<path d="M29.2759 185.452L32.6983 185.441L32.7024 186.785L29.2803 186.797L29.2759 185.452Z" fill="#1A825A"/>
<path d="M30.0576 164.138L30.1201 183.245C30.1205 183.39 30.2382 183.507 30.3826 183.506C30.5272 183.506 30.6435 183.388 30.6428 183.243L30.581 164.137C30.58 163.992 30.463 163.876 30.3182 163.876C30.1739 163.877 30.0576 163.995 30.0576 164.138Z" fill="#1A825A"/>
<path d="M31.3955 164.133L31.4581 183.24C31.4584 183.384 31.5761 183.501 31.7201 183.5C31.8648 183.5 31.9815 183.383 31.9808 183.239L31.9182 164.131C31.918 163.987 31.8006 163.871 31.6559 163.871C31.5118 163.872 31.3952 163.989 31.3955 164.133Z" fill="#1A825A"/>
<path d="M34.9 188.768L31.5117 188.286L35.1404 162.741L38.529 163.223L34.9 188.768Z" fill="#2F67BA"/>
<path d="M38.5292 163.222L35.1406 162.741L36.5996 160.483L37.356 159.314L37.7567 160.647L38.5292 163.222Z" fill="#F57A68"/>
<path d="M34.9 188.768L31.5117 188.286L31.7755 186.43L35.1638 186.912L34.9 188.768Z" fill="#33313B"/>
<path d="M34.4648 190.215L31.5275 189.798C31.4028 189.779 31.3162 189.664 31.3338 189.54L31.5123 188.286L34.9006 188.768L34.7224 190.021C34.7045 190.146 34.5895 190.233 34.4648 190.215Z" fill="#F03B53"/>
<path d="M37.7572 160.647L36.6001 160.483L37.3565 159.314L37.7572 160.647Z" fill="#33313B"/>
<path d="M31.9649 185.099L35.3532 185.58L35.1642 186.912L31.7759 186.43L31.9649 185.099Z" fill="#304DA8"/>
<path d="M35.8045 164.12L33.1168 183.037C33.0969 183.179 33.1963 183.312 33.3393 183.333C33.482 183.352 33.6142 183.253 33.6345 183.11L36.3221 164.193C36.3425 164.05 36.243 163.918 36.0997 163.898C35.957 163.877 35.8248 163.977 35.8045 164.12Z" fill="#304DA8"/>
<path d="M37.1299 164.306L34.4426 183.223C34.4222 183.366 34.5217 183.499 34.6643 183.519C34.8073 183.539 34.9403 183.44 34.9605 183.297L37.6476 164.38C37.6678 164.237 37.5685 164.105 37.4255 164.085C37.2824 164.064 37.1502 164.163 37.1299 164.306Z" fill="#304DA8"/>
<path d="M39.6405 173.065L39.462 174.449L39.2997 175.705L39.0528 177.614L38.8933 178.857L38.645 180.783L38.4859 182.009L38.2356 183.949L38.0797 185.158L37.8265 187.114L37.673 188.31L37.4187 190.281L37.2652 191.462L37.134 192.482H23.6844L23.5532 191.462L23.3996 190.281L23.1454 188.31L22.9922 187.114L22.7394 185.158L22.5828 183.949L22.3326 182.009L22.1734 180.783L21.9251 178.857L21.7656 177.614L21.5184 175.705L21.3561 174.449L21.1782 173.065H39.6405Z" fill="#F03B53"/>
<path d="M39.4613 174.449L39.299 175.705H21.5178L21.3555 174.449H39.4613Z" fill="#C8232E"/>
<path d="M39.0523 177.615L38.8928 178.857H21.9247L21.7651 177.615H39.0523Z" fill="#C8232E"/>
<path d="M38.6455 180.783L38.4863 182.009H22.333L22.1738 180.783H38.6455Z" fill="#C8232E"/>
<path d="M38.2363 183.949L38.0804 185.158H22.7401L22.5835 183.949H38.2363Z" fill="#C8232E"/>
<path d="M37.8259 187.114L37.6725 188.31H23.1449L22.9917 187.114H37.8259Z" fill="#C8232E"/>
<path d="M37.4189 190.281L37.2655 191.462H23.5535L23.3999 190.281H37.4189Z" fill="#C8232E"/>
<path d="M205.087 123.883L193.617 172.386L193.315 173.661L192.544 176.928C192.21 178.344 190.949 179.342 189.495 179.342H112.233C110.211 179.342 108.717 177.454 109.182 175.487L121.725 122.442C122.059 121.027 123.319 120.031 124.773 120.031H202.037C204.059 120.031 205.553 121.916 205.087 123.883Z" fill="#33313B"/>
<path d="M193.616 172.386L193.314 173.661H113.09V172.386H193.616Z" fill="#4F5058"/>
<path d="M143.37 132.033C142.729 135.471 139.422 138.258 135.984 138.258C132.546 138.258 130.279 135.471 130.92 132.033C131.561 128.595 134.869 125.808 138.307 125.808C141.745 125.808 144.011 128.595 143.37 132.033Z" fill="#F7942C"/>
<path d="M136.338 130.842C136.21 131.53 135.863 132.088 135.565 132.088C135.265 132.088 135.127 131.53 135.256 130.842C135.384 130.155 135.73 129.597 136.029 129.597C136.328 129.597 136.467 130.155 136.338 130.842Z" fill="#33313B"/>
<path d="M139.587 130.842C139.458 131.53 139.112 132.088 138.813 132.088C138.513 132.088 138.376 131.53 138.504 130.842C138.632 130.155 138.978 129.597 139.278 129.597C139.576 129.597 139.715 130.155 139.587 130.842Z" fill="#33313B"/>
<path d="M136.633 135.064C133.956 135.064 133.842 132.388 133.841 132.361C133.837 132.216 133.957 132.071 134.109 132.039C134.26 132.008 134.388 132.1 134.392 132.246C134.395 132.343 134.5 134.523 136.734 134.523C138.97 134.523 139.888 132.339 139.926 132.246C139.985 132.1 140.147 132.008 140.287 132.04C140.426 132.072 140.493 132.216 140.433 132.361C140.422 132.388 139.31 135.064 136.633 135.064Z" fill="#33313B"/>
<path d="M179.085 161.096C179.154 164.316 184.609 168.348 184.609 168.348C184.609 168.348 190.945 164.316 191.714 161.096C192.55 157.606 188.564 156.534 185.61 159.166C183.233 156.534 179.012 157.606 179.085 161.096Z" fill="#F03B53"/>
<path d="M167.544 151.76C167.176 155.098 164.172 157.805 160.833 157.805C157.494 157.805 155.086 155.098 155.454 151.76C155.821 148.421 158.827 145.714 162.165 145.714C165.505 145.714 167.913 148.421 167.544 151.76Z" fill="#4F5058"/>
<path d="M127.835 120.03L114.481 179.341H112.231C110.21 179.341 108.717 177.454 109.182 175.488L121.724 122.442C122.059 121.027 123.32 120.03 124.773 120.03H127.835Z" fill="#4F5058"/>
<path d="M150.215 179.341L147.871 192.522H155.612L157.956 179.341H150.215Z" fill="white"/>
<path d="M136.285 190.254L137.87 188.026C138.436 187.23 139.352 186.758 140.328 186.758H161.553C162.675 186.758 163.705 187.382 164.226 188.376L165.294 190.42C165.794 191.376 165.101 192.522 164.022 192.522H137.454C136.288 192.522 135.608 191.204 136.285 190.254Z" fill="white"/>
<path d="M92.062 192.515H155.821L156.513 190.109C156.949 188.596 155.813 187.088 154.238 187.088H95.4058C94.3497 187.088 93.4227 187.786 93.131 188.8L92.062 192.515Z" fill="white"/>
<path d="M175.664 104.196L147.464 104.176C146.37 104.175 145.484 103.288 145.485 102.195L145.497 84.8676C145.497 83.7743 146.385 82.888 147.479 82.8889L175.679 82.9088C176.773 82.9088 177.658 83.796 177.658 84.8901L177.645 102.217C177.644 103.31 176.758 104.197 175.664 104.196Z" fill="#F03B53"/>
<path d="M173.983 100.998L171.41 110.709L166.916 101.581L173.983 100.998Z" fill="#F03B53"/>
<path d="M168.693 91.9696C168.118 95.6085 161.327 100.161 161.327 100.161C161.327 100.161 154.79 95.599 154.418 91.9593C154.016 88.0139 158.687 86.8064 161.617 89.7832C164.712 86.8108 169.317 88.0243 168.693 91.9696Z" fill="white"/>
<path d="M185.148 26.1968C185.148 38.9979 174.64 49.3762 161.677 49.3762C148.715 49.3762 138.207 38.9979 138.207 26.1968C138.207 13.3958 148.715 3.01828 161.677 3.01828C174.64 3.01828 185.148 13.3958 185.148 26.1968Z" fill="#C2C6DF"/>
<path d="M185.148 23.1794C185.148 35.9813 174.64 46.3588 161.677 46.3588C148.715 46.3588 138.207 35.9813 138.207 23.1794C138.207 10.3774 148.715 1.14441e-05 161.677 1.14441e-05C174.64 1.14441e-05 185.148 10.3774 185.148 23.1794Z" fill="#2F67BA"/>
<path d="M161.678 42.0231C151.156 42.0231 142.597 33.5698 142.597 23.1794C142.597 12.789 151.156 4.3357 161.678 4.3357C172.199 4.3357 180.758 12.789 180.758 23.1794C180.758 33.5698 172.199 42.0231 161.678 42.0231Z" fill="white"/>
<path d="M180.758 23.1802C180.758 23.6814 180.739 24.1783 180.7 24.669C179.928 14.9711 171.691 7.31244 161.679 7.31244C151.664 7.31244 143.428 14.9711 142.657 24.669C142.618 24.1783 142.598 23.6814 142.598 23.1802C142.598 12.7881 151.156 4.33654 161.679 4.33654C172.198 4.33654 180.758 12.7881 180.758 23.1802Z" fill="#C2C6DF"/>
<path d="M161.679 25.1399C161.531 25.1399 161.387 25.0724 161.296 24.9495L151.935 12.5042C151.778 12.2956 151.822 12.0004 152.034 11.8446C152.245 11.6897 152.545 11.7329 152.702 11.9424L161.835 24.0857L172.215 19.5864C172.456 19.4816 172.738 19.5898 172.844 19.8287C172.95 20.0676 172.841 20.3455 172.598 20.4502L161.87 25.1001L161.679 25.1399Z" fill="#33313B"/>
</svg>
