<svg width="185" height="166" viewBox="0 0 185 166" fill="none" xmlns="http://www.w3.org/2000/svg">
<circle cx="94.3732" cy="79.3729" r="79.3729" fill="#E2EAF0"/>
<g clip-path="url(#clip0)">
<path d="M99.9974 137.331L106.936 98.0842C108.898 86.9879 101.899 73 88.7195 70.67L87.6232 70.4762C74.6871 68.1891 62.3022 76.8528 60.0152 89.7889L53.658 125.747C53.3369 127.563 54.5491 129.296 56.3654 129.617L99.9974 137.331Z" fill="#3D4C59"/>
<path d="M134.982 78.849L131.694 78.2676L128.941 93.8348C128.62 95.6511 126.887 96.8633 125.071 96.5422C123.255 96.221 122.043 94.4882 122.364 92.6719C122.828 90.0445 125.799 73.2436 126.434 69.65L147.702 73.41C150.255 73.8615 152.329 71.3488 151.402 68.9277L148.398 61.0759L153.968 54.5247C155.635 52.563 154.543 49.5214 152.004 49.0726L127.448 44.7311C125.631 44.41 123.899 45.6222 123.577 47.4385L118.538 75.9418L106.498 73.8132C112.529 80.9966 115.043 90.5964 113.514 99.2471L106.575 138.494L144.068 145.122C145.884 145.444 147.617 144.231 147.938 142.415L154.295 106.457C156.582 93.521 147.919 81.1361 134.982 78.849Z" fill="#3D4C59"/>
<path d="M92.2568 142.746L90.8614 150.639C90.5402 152.455 91.7524 154.188 93.5688 154.509L107.601 156.99C109.417 157.311 111.15 156.099 111.471 154.283L112.867 146.39L92.2568 142.746Z" fill="#758FA4"/>
</g>
<g clip-path="url(#clip1)">
<path d="M152.603 112.847C150.284 113.467 148.907 115.849 149.526 118.168C149.584 118.369 149.657 118.565 149.743 118.755C149.914 119.155 150.355 119.366 150.775 119.249C150.855 119.228 150.931 119.195 151.002 119.153C152.85 118.023 154.986 117.452 157.151 117.509C157.406 117.505 157.646 117.391 157.811 117.198C157.981 117.001 158.06 116.742 158.029 116.485C158.011 116.294 157.978 116.106 157.933 115.92C157.312 113.601 154.929 112.225 152.61 112.846C152.608 112.846 152.606 112.847 152.603 112.847Z" fill="#F57C00"/>
<path d="M166.62 145.093L156.542 147.786C156.078 147.91 155.803 148.387 155.927 148.851C156.794 152.097 160.13 154.026 163.376 153.158C166.623 152.291 168.552 148.955 167.684 145.708C167.56 145.245 167.084 144.969 166.62 145.093Z" fill="#FFA000"/>
<path d="M176.432 139.248C176.01 138.732 175.501 138.167 174.939 137.543C171.637 134.301 169.181 130.298 167.785 125.886C166.006 119.23 161.174 115.288 155.477 115.844C152.157 116.183 149.165 117.996 147.328 120.782C145.283 123.824 144.712 127.623 145.774 131.131C146.955 135.829 146.887 140.753 145.575 145.415C145.404 146.224 145.248 146.96 145.141 147.608C144.83 149.48 146.095 151.249 147.967 151.56C148.455 151.641 148.955 151.616 149.432 151.486L174.654 144.746C176.488 144.261 177.582 142.382 177.098 140.547C176.972 140.071 176.746 139.628 176.434 139.247L176.433 139.248L176.432 139.248Z" fill="#FFC107"/>
<path d="M149.934 147.753C149.47 147.877 148.993 147.601 148.87 147.137C148.835 147.007 148.831 146.87 148.858 146.737L148.987 146.134C150.338 141.133 150.449 135.877 149.309 130.824C148.171 126.562 148.821 121.056 154.399 119.566C154.863 119.442 155.339 119.717 155.463 120.181C155.587 120.645 155.312 121.122 154.848 121.245C149.392 122.703 150.515 128.601 150.989 130.375C152.209 135.693 152.105 141.23 150.686 146.499L150.562 147.088C150.496 147.411 150.252 147.668 149.934 147.753Z" fill="#FFD54F"/>
</g>
<path d="M166.112 27.2687C169.001 26.2018 171.961 28.6618 171.441 31.6967L169.264 44.3978C168.744 47.4327 165.133 48.7664 162.765 46.7984L152.854 38.5624C150.486 36.5944 151.136 32.8007 154.024 31.7338L166.112 27.2687Z" fill="#A8CBE5" fill-opacity="0.5"/>
<path d="M32.8499 111.613C37.5165 114.307 37.5165 121.043 32.8499 123.737L21.3375 130.384C16.6708 133.078 10.8375 129.71 10.8375 124.322L10.8375 111.028C10.8375 105.64 16.6708 102.272 21.3375 104.966L32.8499 111.613Z" fill="#A8CBE5" fill-opacity="0.5"/>
<rect x="13.9929" y="38.7604" width="29.5139" height="29.5139" rx="10" transform="rotate(-70.1907 13.9929 38.7604)" fill="#A8CBE5" fill-opacity="0.5"/>
<defs>
<clipPath id="clip0">
<rect width="114" height="114" fill="white" transform="translate(60.7939 32.9471) rotate(10.026)"/>
</clipPath>
<clipPath id="clip1">
<rect width="41.7254" height="41.7254" fill="white" transform="translate(132.458 118.231) rotate(-14.9622)"/>
</clipPath>
</defs>
</svg>
