<svg width="24" height="26" viewBox="0 0 24 26" fill="none" xmlns="http://www.w3.org/2000/svg">
<path d="M23.0967 13.8494C22.7698 13.5807 22.3536 13.4331 21.9234 13.4333C21.6337 13.4348 21.3487 13.504 21.093 13.6348C20.8759 13.4245 20.6493 13.2141 20.4131 13.0035C20.9519 12.5275 21.4636 12.024 21.946 11.495C23.7945 9.4497 24.4235 7.6765 23.7183 6.50217C23.3531 5.94387 22.7671 5.55273 22.0952 5.41883C20.7097 5.06003 18.6146 5.29663 16.2129 6.00903C16.0534 5.32133 15.8552 4.64246 15.6191 3.9754C14.7002 1.41223 13.4166 0 12.0045 0H12.0009C11.3089 0 10.3012 0.350567 9.32553 1.95433C8.39946 1.78896 7.49701 2.33643 7.25383 3.211C7.04649 3.94187 7.36265 4.71694 8.03156 5.11767C7.95041 5.40307 7.87404 5.69703 7.80252 5.9995C7.10448 5.78955 6.39516 5.61595 5.67762 5.4795C2.9116 4.9634 0.998601 5.32523 0.293456 6.5C-0.0278938 7.08278 -0.0881398 7.76636 0.126638 8.3928C0.496794 9.7253 1.7574 11.3507 3.59826 12.9935C3.0583 13.4705 2.5455 13.9752 2.06218 14.5054C0.213655 16.5499 -0.414844 18.3235 0.28985 19.4978C0.634757 20.0755 1.45397 20.7415 3.39041 20.7515C3.72236 21.654 4.75268 22.1271 5.69177 21.808C6.09715 21.6703 6.43794 21.3979 6.65283 21.0401C6.79643 20.7982 6.87657 20.5263 6.88638 20.2479C7.18423 20.1725 7.4872 20.0891 7.79531 19.9975C7.95474 20.6837 8.15262 21.3611 8.38819 22.0268C9.30884 24.5878 10.5924 26 12.0045 26C12.6891 25.9749 13.3337 25.6835 13.7904 25.1927C14.8057 24.2181 15.6389 22.3561 16.1993 20.0009C16.899 20.212 17.61 20.3864 18.3292 20.5235C19.063 20.6673 19.8094 20.744 20.5582 20.7523C22.125 20.7523 23.2183 20.3281 23.7143 19.5026C24.0632 18.925 24.2544 17.9101 23.295 16.2933C23.9423 15.5659 23.8536 14.4717 23.0967 13.8494ZM5.87284 20.6063C5.62369 21.0206 5.07223 21.1624 4.6411 20.9231C4.38991 20.7868 4.22377 20.5412 4.1961 20.2653C4.17575 20.0828 4.21599 19.8988 4.31107 19.7396C4.34877 19.6786 4.39419 19.6223 4.44632 19.5719C4.4594 19.5589 4.47292 19.5477 4.48645 19.5355C4.52934 19.4977 4.576 19.464 4.62577 19.435C4.63794 19.4276 4.64921 19.4198 4.66184 19.4133C4.78937 19.347 4.93162 19.311 5.07663 19.3085C5.09241 19.3085 5.10774 19.3085 5.12171 19.3085C5.17739 19.3105 5.23279 19.3175 5.28718 19.3293C5.30521 19.3332 5.32325 19.3362 5.34083 19.3414C5.66889 19.4274 5.91523 19.6887 5.97203 20.0109C6.01718 20.2143 5.98178 20.4266 5.87284 20.6063ZM6.70693 19.4021H6.70603C6.66489 19.3228 6.61755 19.2466 6.56446 19.1741C6.5559 19.1629 6.54553 19.1529 6.53696 19.1416C6.47711 19.0643 6.41078 18.9919 6.33858 18.925C6.31694 18.9046 6.2935 18.8851 6.27185 18.8656C6.18591 18.792 6.09275 18.7265 5.99367 18.6702C5.88846 18.6119 5.77743 18.5638 5.66229 18.5267C5.64741 18.522 5.63209 18.5211 5.61721 18.5168C4.95867 18.3186 4.24022 18.5044 3.77409 18.9934C3.76417 19.0038 3.752 19.0116 3.74253 19.022C3.66211 19.1095 3.59099 19.2044 3.53018 19.3054C3.47985 19.39 3.43719 19.4786 3.40258 19.5702C3.39131 19.5997 3.38455 19.6304 3.37508 19.6603C3.35389 19.7233 3.33648 19.7874 3.32278 19.8523C3.32053 19.8627 3.31647 19.8727 3.31467 19.8831C2.16858 19.8644 1.37958 19.5797 1.07254 19.0649C0.581556 18.2472 1.19067 16.7925 2.74433 15.0726C3.22528 14.5463 3.73633 14.046 4.275 13.5742C5.19075 14.3311 6.15035 15.0375 7.14923 15.6901C7.23545 16.8503 7.39049 18.0049 7.61361 19.1481C7.30658 19.24 7.0036 19.3267 6.70693 19.4021ZM7.0847 14.5942C6.31553 14.0695 5.59686 13.5352 4.94627 13.0004C5.60227 12.4605 6.32184 11.9271 7.08605 11.4053C7.0617 11.9327 7.04502 12.464 7.04502 13C7.04502 13.536 7.06131 14.0686 7.0847 14.5942ZM7.15599 10.3012C6.15198 10.9542 5.18765 11.6618 4.26778 12.4206C2.52115 10.8862 1.33494 9.3834 0.997699 8.1692C0.84993 7.76403 0.877376 7.31889 1.07389 6.93333C1.39987 6.3908 2.22088 6.11 3.41836 6.11C4.1208 6.11888 4.82076 6.19141 5.509 6.32667C6.22232 6.46355 6.92718 6.63829 7.62038 6.85013C7.39833 7.99121 7.24329 9.14339 7.15599 10.3012ZM15.9 9.7032C15.4369 9.41937 14.9667 9.13987 14.4838 8.87207C14.0009 8.60427 13.5118 8.35033 13.0253 8.10637H13.0248C13.8815 7.72807 14.7232 7.40003 15.5325 7.12357C15.6908 7.93997 15.812 8.80577 15.9 9.7032ZM12.0018 0.866667H12.0045C12.987 0.866667 13.9933 2.10167 14.7656 4.25403C14.9999 4.91747 15.1956 5.59293 15.3517 6.27727C14.2118 6.66147 13.0953 7.10721 12.0077 7.61237C10.9193 7.10369 9.80163 6.65519 8.66006 6.26903C8.73039 5.96917 8.80343 5.67407 8.88459 5.38937C8.90668 5.38937 8.92967 5.38937 8.95131 5.38937C8.97295 5.38937 8.98603 5.39327 9.00361 5.39327C9.03066 5.39327 9.05772 5.38937 9.08522 5.38807C9.11948 5.38807 9.15375 5.38503 9.18801 5.382C9.23716 5.3768 9.2854 5.369 9.33409 5.3599C9.36746 5.35383 9.40082 5.34907 9.43418 5.34083C9.48558 5.3287 9.53653 5.31223 9.58703 5.29533C9.61543 5.2858 9.64383 5.27843 9.67179 5.2676C9.74939 5.23765 9.82474 5.20244 9.89722 5.1623C10.0023 5.10385 10.1011 5.0355 10.1921 4.9582C10.2006 4.95083 10.207 4.94173 10.2155 4.93393C10.7284 4.48608 10.924 3.7928 10.7169 3.15727C10.7124 3.14253 10.7115 3.1278 10.7065 3.11393C10.6678 3.00343 10.6178 2.89689 10.5573 2.79587C10.5059 2.71191 10.4474 2.63217 10.3823 2.55753C10.3607 2.5324 10.3373 2.51073 10.312 2.4869C10.2671 2.43896 10.2194 2.39352 10.1691 2.35083C10.1601 2.34347 10.1533 2.33437 10.1443 2.32743C10.7358 1.3819 11.3863 0.866667 12.0018 0.866667ZM10.9811 8.1081C10.496 8.35077 10.0099 8.60297 9.52481 8.87207C9.03968 9.14117 8.57169 9.4185 8.11046 9.7006C8.20063 8.80663 8.32056 7.94127 8.47836 7.12617C9.28991 7.4022 10.1303 7.73283 10.9811 8.1081ZM8.54644 2.91027C8.79458 2.76911 9.09874 2.75297 9.3616 2.86693C9.81713 3.06031 10.0233 3.57202 9.82215 4.00985C9.74494 4.17793 9.61408 4.31806 9.44861 4.41003C9.22121 4.53559 8.94782 4.55872 8.70109 4.4733C8.49589 4.40863 8.32315 4.27283 8.21641 4.0924C7.96861 3.6783 8.11621 3.14957 8.54644 2.91027ZM8.10866 16.2977C8.56944 16.5802 9.03968 16.861 9.52481 17.1279C10.0099 17.3949 10.4942 17.6479 10.9788 17.891C10.129 18.2641 9.28856 18.5956 8.47521 18.8721C8.31735 18.0574 8.19657 17.1929 8.10866 16.2977ZM13.1547 24.5774H13.1533C12.8631 24.9028 12.4494 25.1031 12.0045 25.1333C11.0221 25.1333 10.0158 23.8983 9.24347 21.746C9.00936 21.0839 8.81369 20.4099 8.65735 19.7271C9.79662 19.341 10.9124 18.8938 11.9996 18.3876C13.0899 18.8961 14.2094 19.3447 15.3526 19.731C14.8413 21.9505 14.0784 23.6895 13.1547 24.5774ZM15.5339 18.8747C14.7196 18.5982 13.8792 18.268 13.0271 17.8915C13.5145 17.6475 14.0014 17.3962 14.4843 17.1279C14.9671 16.8597 15.4387 16.5806 15.9009 16.2981C15.8107 17.2007 15.6894 18.0639 15.5339 18.8747ZM15.9892 15.2117C15.3612 15.6113 14.7097 16.0021 14.0334 16.3774C13.3603 16.7505 12.6808 17.0985 12.0045 17.4217C11.3282 17.0993 10.652 16.7527 9.97567 16.3774C9.29938 16.0021 8.64608 15.61 8.01984 15.2113C7.9734 14.4885 7.9468 13.7505 7.9468 13C7.9468 12.2495 7.9734 11.5141 8.02074 10.79C8.64834 10.3905 9.29983 9.99917 9.97567 9.62433C10.6515 9.2495 11.3314 8.90067 12.0045 8.57913C12.6808 8.90197 13.3571 9.24863 14.0334 9.62433C14.7097 10 15.3589 10.3892 15.9892 10.7917C16.0343 11.5141 16.0623 12.2516 16.0623 13.0017C16.0623 13.7518 16.0357 14.492 15.9892 15.2117ZM21.3373 14.5132C21.4984 14.3747 21.7073 14.2987 21.9234 14.3C22.4215 14.3 22.8252 14.688 22.8252 15.1667C22.8276 15.4441 22.6891 15.7051 22.4541 15.8661C22.0515 16.1477 21.4875 16.0624 21.1944 15.6754C21.0825 15.5276 21.022 15.3495 21.0217 15.1667C21.0216 14.9148 21.1371 14.6757 21.3373 14.5132ZM20.5447 6.11C20.9883 6.10355 21.4308 6.15263 21.8612 6.25603C22.2995 6.33425 22.6867 6.57827 22.9361 6.93333C23.4271 7.75103 22.818 9.20573 21.2643 10.9256C20.7844 11.4508 20.2746 11.9501 19.7372 12.4211C18.82 11.6657 17.8592 10.9605 16.8594 10.309C16.7731 9.14588 16.6176 7.98839 16.3937 6.84233C17.7324 6.40364 19.1311 6.15691 20.5447 6.11ZM16.9243 11.4087C17.6856 11.9295 18.4069 12.4632 19.0605 13C18.4049 13.5391 17.6867 14.0716 16.9239 14.5921C16.9482 14.069 16.964 13.5386 16.964 13C16.964 12.4615 16.9478 11.9338 16.9243 11.4087ZM22.9356 19.0667C22.4446 19.8844 20.8279 20.1067 18.5028 19.6733C17.7879 19.5362 17.0815 19.3611 16.3869 19.1486C16.6109 18.0079 16.7676 16.856 16.8562 15.6984C17.8592 15.0465 18.8225 14.3402 19.7417 13.5828C19.9789 13.7921 20.2079 14.0019 20.4243 14.2107C20.3732 14.2846 20.328 14.3621 20.2891 14.4426C20.2832 14.4547 20.2796 14.4677 20.2742 14.4798C20.2344 14.5688 20.2025 14.6609 20.1786 14.755C20.1714 14.7827 20.1646 14.8105 20.1588 14.8386C19.9603 15.7669 20.5824 16.6742 21.5482 16.865C21.6716 16.8893 21.7974 16.9011 21.9234 16.9C22.0251 16.8995 22.1264 16.8906 22.2264 16.8736C22.2584 16.8684 22.2891 16.8584 22.3207 16.8515C22.3887 16.8375 22.4558 16.8199 22.5217 16.7986C22.5317 16.7951 22.542 16.7938 22.5519 16.7904C23.1078 17.7541 23.2453 18.5532 22.9356 19.0667Z" fill="white"/>
</svg>
