<svg width="16" height="18" viewBox="0 0 16 18" fill="none" xmlns="http://www.w3.org/2000/svg">
<path d="M7.879 8.67062C9.14812 8.67062 10.2471 8.24339 11.145 7.40047C12.0429 6.55769 12.4981 5.52649 12.4981 4.33517C12.4981 3.14426 12.0429 2.11293 11.1449 1.26987C10.2468 0.427228 9.14798 0 7.879 0C6.60973 0 5.51106 0.427228 4.61313 1.27001C3.7152 2.11279 3.25987 3.14413 3.25987 4.33517C3.25987 5.52649 3.7152 6.55783 4.61327 7.40061C5.51135 8.24325 6.61017 8.67062 7.879 8.67062Z" fill="#354356"/>
<path d="M15.9612 13.841C15.9353 13.4903 15.8829 13.1077 15.8058 12.7037C15.728 12.2966 15.6278 11.9118 15.5078 11.5601C15.3839 11.1966 15.2153 10.8377 15.007 10.4936C14.7907 10.1366 14.5367 9.82568 14.2517 9.56984C13.9537 9.30219 13.5887 9.087 13.1668 8.93003C12.7463 8.77389 12.2803 8.69479 11.7818 8.69479C11.586 8.69479 11.3967 8.77018 11.031 8.99361C10.806 9.13135 10.5428 9.29066 10.249 9.46685C9.99777 9.61708 9.65744 9.75784 9.23708 9.88529C8.82697 10.0098 8.41056 10.073 7.99956 10.073C7.58857 10.073 7.1723 10.0098 6.76175 9.88529C6.34183 9.75798 6.0015 9.61722 5.75057 9.46698C5.45955 9.29244 5.19619 9.13314 4.96779 8.99348C4.60259 8.77004 4.41312 8.69465 4.21735 8.69465C3.71871 8.69465 3.25285 8.77389 2.83249 8.93017C2.41081 9.08686 2.04576 9.30205 1.74743 9.56998C1.46255 9.82596 1.20841 10.1367 0.992447 10.4936C0.784242 10.8377 0.615689 11.1965 0.491614 11.5603C0.371783 11.912 0.271558 12.2966 0.193719 12.7037C0.116612 13.1071 0.0642318 13.4899 0.0383342 13.8414C0.0128756 14.1859 0 14.5433 0 14.9044C0 15.8439 0.318233 16.6046 0.945772 17.1656C1.56556 17.7192 2.38565 18 3.38292 18H12.6171C13.6144 18 14.4341 17.7193 15.0541 17.1656C15.6818 16.605 16 15.8442 16 14.9042C15.9999 14.5415 15.9868 14.1838 15.9612 13.841Z" fill="#354356"/>
</svg>
