<svg width="24" height="24" viewBox="0 0 24 24" fill="none" xmlns="http://www.w3.org/2000/svg">
<path d="M9.62146 20.2484C8.61811 20.0212 7.67204 19.6165 6.8092 19.0458C6.62868 18.9267 6.38699 18.9771 6.26877 19.1589C6.15055 19.3407 6.20086 19.5846 6.38093 19.7038C7.32254 20.3266 8.35516 20.768 9.4502 21.0161C9.4789 21.0225 9.50759 21.0258 9.53606 21.0258C9.71464 21.0258 9.87562 20.9016 9.91678 20.7185C9.96388 20.5065 9.83183 20.296 9.62146 20.2484Z" fill="white"/>
<path d="M4.21325 16.3631C3.6663 15.4753 3.28776 14.5066 3.08837 13.4838C3.04687 13.2705 2.84153 13.1313 2.63025 13.1736C2.41874 13.2155 2.28098 13.4224 2.32259 13.6355C2.54039 14.752 2.95323 15.8094 3.55014 16.7783C3.62411 16.8983 3.75148 16.9642 3.88204 16.9642C3.95224 16.9642 4.02346 16.9451 4.08772 16.905C4.27064 16.7902 4.32701 16.5477 4.21325 16.3631Z" fill="white"/>
<path d="M4.23726 6.48732C4.05753 6.36733 3.81516 6.41724 3.69637 6.59832C3.10129 7.50524 2.66981 8.4986 2.4144 9.5511C2.36329 9.76216 2.49123 9.97505 2.70068 10.0268C2.73189 10.0345 2.7631 10.0382 2.79374 10.0382C2.96935 10.0382 3.12895 9.918 3.17251 9.73807C3.40666 8.77398 3.80178 7.86372 4.34736 7.03253C4.46615 6.85145 4.41698 6.60731 4.23726 6.48732Z" fill="white"/>
<path d="M9.97794 2.87705C9.9321 2.66485 9.72447 2.53045 9.51377 2.57632C8.46366 2.80651 7.46808 3.21513 6.55436 3.79089C6.37155 3.90592 6.3161 4.14867 6.43032 4.3331C6.50452 4.45252 6.63154 4.51799 6.76164 4.51799C6.8323 4.51799 6.90364 4.49851 6.96823 4.45793C7.80546 3.93047 8.7177 3.55597 9.67966 3.34504C9.89014 3.29904 10.0238 3.08937 9.97794 2.87705Z" fill="white"/>
<path d="M16.4407 3.77233C15.535 3.20614 14.5488 2.80351 13.5094 2.57586C13.2987 2.53022 13.0909 2.66439 13.0453 2.87682C12.9994 3.08903 13.1331 3.29858 13.3438 3.34481C14.296 3.55309 15.1996 3.92195 16.0295 4.44099C16.0935 4.4811 16.1645 4.50024 16.2347 4.50024C16.3653 4.50024 16.4929 4.43431 16.5668 4.31408C16.6804 4.12943 16.6238 3.8869 16.4407 3.77233Z" fill="white"/>
<path d="M20.6181 9.58626C20.3619 8.51313 19.9236 7.50155 19.3154 6.57976C19.1961 6.39879 18.9537 6.34957 18.7743 6.47014C18.595 6.59037 18.5462 6.83462 18.6656 7.0157C19.223 7.86037 19.6246 8.78723 19.8593 9.77034C19.9024 9.95073 20.0622 10.0719 20.2384 10.0719C20.2687 10.0719 20.2992 10.0683 20.3297 10.0607C20.5396 10.01 20.6686 9.79754 20.6181 9.58626Z" fill="white"/>
<path d="M11.5121 9.91811C10.4811 9.91811 9.64227 10.7638 9.64227 11.8033C9.64227 12.8428 10.4811 13.6885 11.5121 13.6885C12.5431 13.6885 13.382 12.8428 13.382 11.8033C13.382 10.7638 12.5431 9.91811 11.5121 9.91811ZM11.5121 12.9017C10.9116 12.9017 10.4228 12.4089 10.4228 11.8034C10.4228 11.1979 10.9113 10.7052 11.5121 10.7052C12.1129 10.7052 12.6014 11.1979 12.6014 11.8034C12.6014 12.4089 12.1127 12.9017 11.5121 12.9017Z" fill="white"/>
<path d="M16.1563 10.5573H15.9629C15.8627 10.1931 15.7186 9.84354 15.5322 9.51272L15.6699 9.37382C15.9897 9.05154 15.9897 8.52708 15.6699 8.20491L15.0818 7.61197C14.7622 7.28957 14.2421 7.28957 13.9222 7.61197L13.7844 7.75087C13.4561 7.56276 13.1093 7.41763 12.7481 7.31666V7.12175C12.7481 6.66598 12.3803 6.29517 11.9283 6.29517H11.0967C10.6446 6.29517 10.2768 6.66598 10.2768 7.12175V7.31666C9.91541 7.41752 9.56887 7.56276 9.24075 7.75087L9.10298 7.61221C8.94807 7.45602 8.74205 7.3698 8.52311 7.3698C8.30417 7.3698 8.09815 7.45579 7.94346 7.61197L7.35558 8.20467C7.20066 8.36086 7.11515 8.56857 7.11515 8.78931C7.11515 9.01004 7.20066 9.21775 7.35535 9.37371L7.49312 9.5126C7.30653 9.84365 7.16236 10.193 7.06233 10.5572H6.86911C6.41705 10.5572 6.04926 10.928 6.04926 11.3837V12.2222C6.04926 12.6782 6.41705 13.049 6.86911 13.049H7.06233C7.16259 13.4131 7.30665 13.7625 7.49312 14.0935L7.35558 14.2324C7.20066 14.3886 7.11515 14.5962 7.11515 14.8171C7.11515 15.0378 7.20044 15.2455 7.35535 15.4015L7.94346 15.9944C8.26312 16.3167 8.78332 16.3167 9.10287 15.9944L9.24063 15.8555C9.56887 16.0436 9.91541 16.1887 10.2767 16.2897V16.4846C10.2767 16.9404 10.6445 17.3112 11.0965 17.3112H11.9282C12.3802 17.3112 12.748 16.9404 12.7485 16.4844V16.2895C13.1099 16.1886 13.4564 16.0434 13.7848 15.8553L13.9225 15.9942C14.242 16.3164 14.7622 16.3164 15.0819 15.9942L15.67 15.4012C15.9897 15.0789 15.9897 14.5545 15.67 14.2323L15.5323 14.0934C15.7189 13.7625 15.863 13.413 15.9631 13.0489H16.1564C16.6084 13.0489 16.9762 12.6778 16.9762 12.2221V11.3836C16.9761 10.9281 16.6083 10.5573 16.1563 10.5573ZM16.195 12.2228C16.195 12.2448 16.1773 12.2626 16.1556 12.2626H15.6549C15.4694 12.2626 15.3093 12.3944 15.2725 12.5778C15.175 13.0617 14.9867 13.5185 14.7128 13.9355C14.6103 14.0915 14.6308 14.2988 14.7622 14.431L15.1175 14.7893C15.1329 14.8048 15.1329 14.83 15.1175 14.8455L14.5296 15.4382C14.5139 15.4536 14.489 15.4538 14.4736 15.4382L14.1182 15.08C13.9871 14.9478 13.7817 14.9269 13.627 15.0302C13.2133 15.3061 12.76 15.496 12.2801 15.5944C12.0982 15.6316 11.9675 15.7929 11.9675 15.98V16.4847C11.9675 16.5065 11.9498 16.5245 11.9281 16.5245H11.0964C11.0748 16.5245 11.057 16.5066 11.057 16.4847V15.98C11.057 15.7929 10.9263 15.6315 10.7444 15.5944C10.2642 15.4962 9.81114 15.3062 9.39749 15.0302C9.33176 14.9862 9.25664 14.9647 9.1821 14.9647C9.08138 14.9647 8.98157 15.0039 8.90622 15.0802L8.55089 15.4385C8.53545 15.4538 8.51053 15.4538 8.4951 15.4385L7.90699 14.8455C7.89396 14.8324 7.89373 14.8026 7.90699 14.7893L8.26232 14.431C8.39346 14.2988 8.41415 14.0917 8.31171 13.9357C8.03778 13.5185 7.84948 13.0615 7.75196 12.5778C7.71503 12.3944 7.55508 12.2626 7.36953 12.2626H6.86888C6.84727 12.2626 6.82944 12.2448 6.82944 12.2228V11.3843C6.82944 11.3625 6.84716 11.3445 6.86888 11.3445H7.36953C7.55508 11.3445 7.71503 11.2128 7.75196 11.0294C7.84948 10.5455 8.03778 10.0887 8.31171 9.67144C8.41415 9.51549 8.39346 9.30824 8.26232 9.17614L7.90676 8.81766C7.89373 8.80429 7.89373 8.77478 7.90676 8.76141L8.49487 8.16848C8.50813 8.15534 8.53763 8.15534 8.55066 8.16871L8.906 8.52696C9.03736 8.65917 9.24281 8.6798 9.39727 8.57676C9.81091 8.30081 10.2642 8.11096 10.7442 8.01253C10.9261 7.97529 11.0568 7.81404 11.0568 7.62696V7.12221C11.0568 7.10042 11.0745 7.08244 11.0962 7.08244H11.9278C11.9494 7.08244 11.9673 7.10031 11.9673 7.12221V7.62696C11.9673 7.81404 12.0979 7.97541 12.2798 8.01253C12.7598 8.11073 13.2129 8.30069 13.6267 8.57676C13.7814 8.68027 13.987 8.6594 14.118 8.52696L14.4734 8.16871C14.4888 8.15315 14.5139 8.15292 14.5294 8.16871L15.1175 8.76164C15.1329 8.7772 15.1329 8.80233 15.1175 8.81789L14.7622 9.17614C14.631 9.30858 14.6103 9.51572 14.7128 9.67167C14.9867 10.0885 15.175 10.5455 15.2725 11.0294C15.3094 11.2128 15.4694 11.3445 15.6549 11.3445H16.1556C16.1772 11.3445 16.195 11.3624 16.195 11.3843V12.2228Z" fill="white"/>
<path d="M11.5121 0C10.221 0 9.17067 1.05895 9.17067 2.36066C9.17067 3.66236 10.221 4.72132 11.5121 4.72132C12.8032 4.72132 13.8536 3.66236 13.8536 2.36066C13.8536 1.05895 12.8032 0 11.5121 0ZM11.5121 3.93451C10.6515 3.93451 9.95119 3.2285 9.95119 2.36077C9.95119 1.49305 10.6515 0.78704 11.5121 0.78704C12.3728 0.78704 13.0731 1.49305 13.0731 2.36077C13.0732 3.22839 12.3728 3.93451 11.5121 3.93451Z" fill="white"/>
<path d="M11.5121 18.4919C10.221 18.4919 9.17067 19.5508 9.17067 20.8525C9.17067 22.1542 10.221 23.2132 11.5121 23.2132C12.8032 23.2132 13.8536 22.1542 13.8536 20.8525C13.8536 19.5508 12.8032 18.4919 11.5121 18.4919ZM11.5121 22.4263C10.6515 22.4263 9.95119 21.7203 9.95119 20.8525C9.95119 19.9848 10.6515 19.2788 11.5121 19.2788C12.3728 19.2788 13.0731 19.9848 13.0731 20.8525C13.0732 21.7203 12.3728 22.4263 11.5121 22.4263Z" fill="white"/>
<path d="M20.6829 9.24599C19.3918 9.24599 18.3414 10.3049 18.3414 11.6067C18.3414 12.9084 19.3918 13.9673 20.6829 13.9673C21.974 13.9673 23.0244 12.9084 23.0244 11.6067C23.0244 10.3049 21.974 9.24599 20.6829 9.24599ZM20.6829 13.1804C19.8222 13.1804 19.122 12.4744 19.122 11.6067C19.122 10.7389 19.8222 10.0329 20.6829 10.0329C21.5436 10.0329 22.2438 10.7389 22.2438 11.6067C22.2438 12.4744 21.5436 13.1804 20.6829 13.1804Z" fill="white"/>
<path d="M2.34146 9.24599C1.05034 9.24599 0 10.3049 0 11.6067C0 12.9084 1.05034 13.9673 2.34146 13.9673C3.63257 13.9673 4.68291 12.9084 4.68291 11.6067C4.68291 10.3049 3.63257 9.24599 2.34146 9.24599ZM2.34146 13.1804C1.48079 13.1804 0.780524 12.4744 0.780524 11.6067C0.780524 10.7389 1.48079 10.0329 2.34146 10.0329C3.20212 10.0329 3.90239 10.7389 3.90239 11.6067C3.90239 12.4744 3.20212 13.1804 2.34146 13.1804Z" fill="white"/>
<path d="M19.6525 3.39956C19.2103 2.95382 18.6222 2.70807 17.9969 2.70807C17.3715 2.70807 16.7836 2.95359 16.3413 3.39956C15.4285 4.31985 15.4285 5.8175 16.3413 6.73791C16.7834 7.18387 17.3714 7.42939 17.9969 7.42939C18.6222 7.42939 19.2101 7.18364 19.6525 6.73791C20.0948 6.29217 20.3383 5.69936 20.3383 5.06873C20.3383 4.43822 20.0946 3.84541 19.6525 3.39956ZM19.1006 6.18163C18.492 6.7952 17.5018 6.7952 16.893 6.18163C16.2844 5.56807 16.2844 4.56951 16.893 3.95595C17.1972 3.64922 17.5971 3.4958 17.9969 3.4958C18.3967 3.4958 18.7962 3.64899 19.1007 3.95595C19.7092 4.56951 19.7092 5.56807 19.1006 6.18163Z" fill="white"/>
<path d="M6.6831 16.4755C6.24076 16.0295 5.65288 15.784 5.0275 15.784C4.40212 15.784 3.81424 16.0298 3.3719 16.4755C2.92956 16.9212 2.68604 17.5141 2.68604 18.1447C2.68604 18.7752 2.92956 19.3679 3.3719 19.8139C3.8283 20.274 4.42796 20.5042 5.0275 20.5042C5.62704 20.5042 6.2267 20.274 6.6831 19.8139C7.59613 18.8936 7.59613 17.3959 6.6831 16.4755ZM6.13135 19.2574C5.52277 19.8709 4.53257 19.8712 3.92377 19.2574C3.3152 18.6438 3.3152 17.6452 3.92377 17.0317C4.22811 16.725 4.62792 16.5715 5.02761 16.5715C5.42731 16.5715 5.827 16.725 6.13146 17.0317C6.73992 17.6452 6.73992 18.6438 6.13135 19.2574Z" fill="white"/>
<path d="M6.6831 3.39956C5.7703 2.47927 4.28482 2.47915 3.3719 3.39956C2.92956 3.84552 2.68604 4.43822 2.68604 5.06873C2.68604 5.69924 2.92979 6.29194 3.3719 6.73791C3.81401 7.18387 4.40201 7.42939 5.0275 7.42939C5.65288 7.42939 6.24076 7.18387 6.6831 6.73791C7.59613 5.81773 7.59613 4.32008 6.6831 3.39956ZM6.13135 6.18163C5.52277 6.7952 4.53257 6.7952 3.92377 6.18163C3.3152 5.56807 3.3152 4.56951 3.92377 3.95595C4.22811 3.64922 4.62792 3.4958 5.02761 3.4958C5.42731 3.4958 5.827 3.64899 6.13146 3.95595C6.73992 4.56951 6.73992 5.56807 6.13135 6.18163Z" fill="white"/>
<path d="M20.0975 20.0656C19.8821 20.0656 19.7073 20.2418 19.7073 20.459V21.2459C19.7073 21.4631 19.8821 21.6393 20.0975 21.6393C20.3129 21.6393 20.4877 21.4631 20.4877 21.2459V20.459C20.4877 20.242 20.3129 20.0656 20.0975 20.0656Z" fill="white"/>
<path d="M20.0975 16.1312C19.8821 16.1312 19.7073 16.3075 19.7073 16.5246V18.4919C19.7073 18.709 19.8821 18.8853 20.0975 18.8853C20.3129 18.8853 20.4877 18.709 20.4877 18.4919V16.5246C20.4877 16.3075 20.3129 16.1312 20.0975 16.1312Z" fill="white"/>
<path d="M20.0975 13.3771C19.8821 13.3771 19.7073 13.5534 19.7073 13.7706V14.5575C19.7073 14.7746 19.8821 14.9509 20.0975 14.9509C20.3129 14.9509 20.4877 14.7746 20.4877 14.5575V13.7706C20.4877 13.5534 20.3129 13.3771 20.0975 13.3771Z" fill="white"/>
<path d="M21.2683 20.0656C21.0529 20.0656 20.8781 20.2418 20.8781 20.459V21.2459C20.8781 21.4631 21.0529 21.6393 21.2683 21.6393C21.4837 21.6393 21.6585 21.4631 21.6585 21.2459V20.459C21.6585 20.242 21.4837 20.0656 21.2683 20.0656Z" fill="white"/>
<path d="M21.2683 16.1312C21.0529 16.1312 20.8781 16.3075 20.8781 16.5246V18.4919C20.8781 18.709 21.0529 18.8853 21.2683 18.8853C21.4837 18.8853 21.6585 18.709 21.6585 18.4919V16.5246C21.6585 16.3075 21.4837 16.1312 21.2683 16.1312Z" fill="white"/>
<path d="M21.2683 13.3771C21.0529 13.3771 20.8781 13.5534 20.8781 13.7706V14.5575C20.8781 14.7746 21.0529 14.9509 21.2683 14.9509C21.4837 14.9509 21.6585 14.7746 21.6585 14.5575V13.7706C21.6585 13.5534 21.4837 13.3771 21.2683 13.3771Z" fill="white"/>
<path d="M23.895 20.584C23.7478 20.4252 23.501 20.4166 23.3433 20.5648L20.6829 23.0683L18.0225 20.5648C17.8648 20.4167 17.6177 20.4251 17.4708 20.584C17.3237 20.7429 17.3322 20.992 17.4898 21.1401L20.4166 23.8942C20.4917 23.9648 20.5873 24 20.683 24C20.7786 24 20.8743 23.9648 20.9494 23.8942L23.8762 21.1401C24.0335 20.9918 24.0421 20.7429 23.895 20.584Z" fill="white"/>
</svg>
