<svg width="414" height="896" viewBox="0 0 414 896" fill="none" xmlns="http://www.w3.org/2000/svg">
<g clip-path="url(#clip0)">
<rect width="414" height="896" fill="#7966C8"/>
<path d="M192.936 501.782C141.04 401.238 31.362 467.122 -16.9903 512.632L-26 896H165.006C177.26 869.96 159.901 832.105 149.69 816.433C86.982 746.27 116.354 679.903 138.878 655.491C202.307 591.114 201.346 526.195 192.936 501.782Z" fill="#7360C0"/>
<path d="M306.631 121.211L441 19L432.883 682.919C362.903 701.01 329.777 680.206 321.961 667.543C264.967 618.337 307.232 540.909 335.488 508.347C432.162 391.844 356.531 309.653 306.631 283.121C233.044 220.889 275.97 149.251 306.631 121.211Z" fill="#7460C0"/>
<path d="M69 317C78.1654 304.143 105.397 275.743 141 265" stroke="#A492EA"/>
<path d="M271 266C281.025 269.201 306.46 281.484 328 305" stroke="#A492EA"/>
<path d="M351 336C353.129 338.449 357.91 344.478 360 349" stroke="#A492EA"/>
<path d="M373 475C370.107 483.148 363.256 500.556 359 505" stroke="#A492EA"/>
<path d="M313 540C324.011 530.063 348.026 505.35 356 486" stroke="#A492EA"/>
<path d="M252 571C260.476 568.306 280.343 561.134 292 554" stroke="#A492EA"/>
<path d="M140 566L171 574" stroke="#A492EA"/>
<path d="M41 464C47.7328 483.865 70.3586 528.476 107 548" stroke="#A492EA"/>
<path d="M54 366C55.0667 359.962 58.16 346.91 62 343" stroke="#A492EA"/>
<path d="M91 277C99.8715 270.939 121.692 257.455 138 252" stroke="#A492EA"/>
<path d="M240.031 646.922L135.354 652.244L70.9135 656C46.0175 652.995 82.7538 642.853 104.234 638.157C130.387 631.145 104.653 627.097 88.5167 625.949C35.4554 620.189 59.0731 608.315 77.5147 603.098C119.511 591.829 195.394 585.881 228.085 584.316C328.676 578.306 358.434 594.333 360.739 603.098C366.271 634.651 282.572 645.461 240.031 646.922Z" fill="#8D7ADA" fill-opacity="0.5"/>
<path d="M155 595.806C160.804 598.117 174.348 594.843 180.394 592.917C214.17 575.826 202.451 548.071 191.565 535.212L234.448 529L238.076 562.583C243.88 594.939 261.777 599.176 270 597.25V607H155V595.806Z" fill="#4F3B9B"/>
<path d="M351.5 403C351.5 472.813 287.446 530.5 207 530.5C126.554 530.5 62.5 472.813 62.5 403C62.5 333.187 126.554 275.5 207 275.5C287.446 275.5 351.5 333.187 351.5 403Z" fill="#5D4AAA" stroke="#4F3B9B" stroke-width="11"/>
<path d="M230.446 389.653C235.719 317.288 259.228 290.754 269.663 289C321.865 306.104 342.385 357.637 346.779 378.798C362.862 446.69 314.813 492.17 288.778 506.424C216.539 546.422 147.179 524.734 124 506.424C142.719 496.161 204.412 422.656 230.446 389.653Z" fill="url(#paint0_linear)"/>
<path d="M94.5341 437.18C105.088 430.056 129.494 424.097 140.378 422.008L204.691 425.636L292.751 419.37L322.763 417.061L334.966 443.776C340.507 452.747 338.154 460.486 336.286 463.235L320.455 478.406C311.22 487.377 275.71 525.459 259.11 543.379C247.5 553.141 228.108 579.988 219.862 592.191L201.723 566.136C203.306 560.067 210.957 543.599 214.585 536.123L239.321 480.055C233.253 484.013 225.139 495.336 221.841 500.503L149.613 493.577C120.589 490.411 97.9422 481.704 90.2466 477.746C92.0935 475.636 92.7751 457.958 92.8851 449.383C92.8851 447.008 93.9844 440.258 94.5341 437.18Z" fill="#166795"/>
<path d="M215.245 611.65C213.398 602.943 216.454 593.07 218.213 589.222L201.723 566.136C199.876 568.51 195.236 584.055 193.147 591.531C201.327 599.447 207.109 613.519 208.978 619.565C209.506 618.246 213.376 613.738 215.245 611.65Z" fill="#F9C7A6"/>
<path d="M216.564 610.99C214.453 612.045 210.408 616.927 208.649 619.235C207.329 614.75 203.042 605.273 201.063 601.096C196.842 594.236 192.928 591.421 191.499 590.872L190.839 593.84C187.937 596.742 189.63 601.426 190.839 603.404L215.575 647.269L224.15 634.077C219.137 627.744 217.004 616.047 216.564 610.99Z" fill="#FF764A"/>
<path d="M217.553 588.563C207 589.882 199.304 585.155 196.775 582.626L202.052 566.466L217.553 588.563Z" fill="#FFAD76"/>
<path d="M227.448 501.493L221.841 500.174C223.688 495.688 233.605 485.112 238.332 480.385L244.598 485.332L231.406 505.121H227.118L227.448 501.493Z" fill="#F9C7A6"/>
<path d="M213.596 535.793L208.649 531.176C208.121 530.683 209.088 528.772 209.638 527.878L224.809 505.78L231.735 505.451L244.598 485.332L253.833 490.939C257.527 493.313 256.251 497.205 255.152 498.854L250.205 504.131C245.719 508.617 223.93 527.108 213.596 535.793Z" fill="#FF764A"/>
<path d="M242.949 485.992C239.519 485.728 227.668 495.336 222.171 500.174C222.962 496.48 232.835 485.662 237.672 480.715C240.047 480.451 242.179 484.123 242.949 485.992Z" fill="#FFAD76"/>
<path d="M242.949 521.611C231.339 537.178 217.663 541.07 212.276 541.07L216.894 533.814L239.98 514.685L242.949 521.611Z" fill="url(#paint1_linear)"/>
<path d="M246.247 485.332C254.492 472.03 273.687 444.238 284.505 439.488" stroke="#363C59"/>
<path d="M239.651 480.715C221.182 469.391 172.435 446.151 125.207 443.776" stroke="#363C59"/>
<path d="M126.526 437.839C131.803 438.939 142.95 442.061 145.325 445.755" stroke="#363C59"/>
<path d="M171.05 451.032L277.579 444.106C270.191 449.91 253.173 474.448 245.588 485.992L238.662 480.385C224.414 469.567 187.651 456.309 171.05 451.032Z" fill="url(#paint2_linear)"/>
<path d="M137.739 379.793C143.016 340.743 179.735 324.604 197.435 321.416L234.374 319.437C287.144 326.033 299.237 369.239 298.687 390.017C302.381 422.206 271.423 432.672 255.482 433.882L167.422 437.839C131.275 434.145 132.572 397.602 137.739 379.793Z" fill="#FF764A"/>
<path d="M169.401 445.095L151.262 393.974L233.055 391.666L238.991 435.531L263.068 438.169L238.991 448.393L169.401 445.095Z" fill="#31374F"/>
<path d="M232.395 392.325L238.991 448.063L260.759 438.169" stroke="url(#paint3_linear)"/>
<path d="M205.021 369.568L204.032 358.355L183.913 360.663L184.573 371.877L205.021 369.568Z" fill="#F3F6FD"/>
<path d="M171.38 351.429L165.773 364.291" stroke="#424A6E"/>
<path d="M167.422 350.439L170.391 386.719" stroke="#424A6E"/>
<path d="M170.391 386.719V387.378" stroke="#424A6E"/>
<path d="M212.936 352.748C213.2 350.373 210.627 338.346 209.308 332.63H214.255L218.213 350.439L212.936 352.748Z" fill="white"/>
<path d="M233.055 318.118L214.915 333.289C216.498 320.888 225.029 313.61 229.097 311.522H236.023L233.055 318.118Z" fill="#FEFEFE"/>
<path d="M249.545 364.951C246.907 352.286 256.801 348.68 262.078 348.46L269.664 392.655C258.846 399.779 256.362 412.994 256.472 418.71L241.3 425.306L234.704 403.869C230.746 386.191 239.651 379.573 244.598 378.473C253.569 375.307 251.634 368.139 249.545 364.951Z" fill="url(#paint4_linear)"/>
<path d="M209.638 333.289L206.01 334.279L195.126 321.416L200.403 320.756L209.638 333.289Z" fill="#DFE4F9"/>
<path d="M205.021 339.885L195.786 323.725L197.435 323.395L205.68 333.619L208.649 334.279L205.021 339.885Z" fill="url(#paint5_linear)"/>
<path d="M261.749 348.46L269.334 391.996" stroke="#424A6E"/>
<path d="M284.835 389.357C280.657 388.478 270.785 388.895 264.716 397.602" stroke="#424A6E"/>
<path d="M269.334 353.078L264.387 361.983" stroke="#424A6E"/>
<path d="M154.23 385.399C153.351 383.091 151.592 378.078 151.592 376.494" stroke="white" stroke-width="2"/>
<path d="M148.293 389.357C145.984 387.268 141.235 382.761 140.708 381.442" stroke="white" stroke-width="2"/>
<path d="M145.655 395.953L135.101 392.325" stroke="white" stroke-width="2"/>
<path d="M206.67 260.731C209.308 267.591 211.727 282.718 212.606 289.424L192.488 297.67C190.641 294.503 187.761 287.116 186.551 283.818C181.274 269.042 189.41 265.348 194.137 265.348C198.095 265.348 204.141 262.27 206.67 260.731Z" fill="#323650"/>
<path d="M200.404 321.086C203.834 319.767 204.031 314.82 203.702 312.511C201.591 310.928 197.105 303.716 195.127 300.308L191.169 296.68C189.322 294.306 191.279 293.932 192.488 294.042C193.543 295.889 194.247 294.811 194.467 294.042C190.773 288.237 189.85 279.53 189.85 275.902C191.96 271.153 201.283 270.625 205.681 270.955L206.34 273.593L210.958 288.105C211.485 289.16 212.936 287.665 213.596 286.786C214.915 284.411 215.685 286.456 215.905 287.775C215.641 291.205 213.596 294.701 212.607 296.021C213.398 302.881 219.533 312.951 222.501 317.128C217.752 320.295 215.025 329.881 214.256 334.279L209.308 333.619L200.404 321.086Z" fill="#F9C7A5"/>
<path d="M209.968 314.16C214.19 314.16 213.926 303.826 213.266 298.659C218.28 311.324 214.036 319.327 211.288 321.746C207.33 323.065 204.362 319.437 203.372 317.458C203.9 316.403 204.252 313.281 204.362 311.851C206.208 313.962 208.869 314.27 209.968 314.16Z" fill="#FFAE76"/>
<path d="M203.042 304.925C204.691 305.585 208.319 306.047 209.638 302.617" stroke="#EA9358" stroke-width="2"/>
<path d="M199.084 286.786L202.382 297.34C202.602 298.219 203.372 299.78 204.691 298.989C204.911 298.659 205.35 297.67 205.35 296.35" stroke="#EA9358" stroke-width="2"/>
<path d="M207.33 286.786L204.032 287.116" stroke="#EA9358" stroke-width="2"/>
<path d="M195.456 290.084C196.006 290.194 197.171 290.15 197.435 289.095" stroke="#EA9358" stroke-width="2"/>
<path d="M205.68 281.509C204.911 281.289 203.042 280.981 201.723 281.509" stroke="black"/>
<path d="M196.446 283.158C195.786 282.828 194.335 282.564 193.807 284.147" stroke="black"/>
<path d="M221.034 240.996C206.495 238.352 185.457 247.164 176.755 251.9C169.882 243.441 152.303 230.312 144.372 224.804C155.475 215.552 181.161 214.12 192.616 214.561L221.034 240.996Z" fill="#B8C6E3"/>
<path d="M176.425 246.283C199.688 231.479 215.417 235.929 220.373 240.005C210.592 226.258 196.031 216.213 189.973 212.909C170.675 202.334 151.532 213.79 144.372 220.839C154.153 223.218 169.816 238.793 176.425 246.283Z" fill="#E0E5F9"/>
<path d="M252.095 223.152C240.199 223.945 226.21 235.158 220.703 240.665L195.259 215.883L226.981 208.282L252.095 223.152Z" fill="#E0E5F9"/>
<path d="M226.982 215.552C219.052 226.919 218.611 236.81 219.382 240.335C212.509 227.646 196.692 216.984 189.643 213.239C187.792 203.987 193.718 197.929 196.912 196.056C200.613 193.148 200.657 187.355 200.217 184.821L232.6 204.317C232.864 207.754 228.965 213.239 226.982 215.552Z" fill="#E7EDF9"/>
<path d="M141.067 233.396L177.416 258.179C184.685 252.892 202.529 242.384 215.747 242.648C216.518 242.648 218.06 243.045 218.06 244.631C219.161 245.732 221.695 246.878 223.016 242.648C229.956 239.234 247.072 234.652 260.026 243.639" stroke="#A492EA"/>
<path d="M245.817 224.804L263 237.692C253.747 233.947 232.798 229.497 223.017 241.657" stroke="#A492EA"/>
<path d="M197.572 228.77C194.158 229.1 185.875 230.554 180.059 233.726" stroke="#CCD5ED"/>
<path d="M194.929 226.126C191.515 226.457 183.232 227.911 177.416 231.083" stroke="#CCD5ED"/>
<path d="M192.946 223.483C189.532 223.813 181.249 225.267 175.433 228.439" stroke="#CCD5ED"/>
<path d="M190.303 220.839C186.889 221.17 178.606 222.624 172.79 225.796" stroke="#CCD5ED"/>
<path d="M87.0083 156.41C91.0411 146.731 101.235 137.814 105.828 134.566C101.526 144.513 108.068 171.421 111.877 183.631C108.92 185.782 103.476 199.538 101.123 206.148C95.4772 193.243 89.3608 167.612 87.0083 156.41Z" fill="#E1E6FB"/>
<path d="M124.648 145.656C117.926 138.128 109.301 135.126 105.828 134.566C101.795 147.739 108.404 172.765 112.213 183.631L132.377 190.689C129.957 186.118 126.216 158.762 124.648 145.656Z" fill="#B6C4DF"/>
<path d="M101.459 205.811C101.459 201.779 108.404 189.12 111.877 183.295L132.377 190.689L117.59 207.492L113.893 208.5L101.459 205.811Z" fill="#8A94AD"/>
<path d="M113.558 141.959C114.678 153.833 117.859 179.464 121.623 186.992" stroke="#8B99B4"/>
<path d="M121.959 186.32L112.213 201.107" stroke="#717B97"/>
<path d="M109.861 194.721L124.984 201.107" stroke="#717B97"/>
<path d="M90.705 129.189C88.9127 123.139 84.387 111.646 80.623 114.066C80.7351 117.986 83.5132 128.113 93.7296 137.254C97.0903 127.732 102.266 108.151 96.0821 106C93.2815 106.112 89.3608 112.184 96.0821 135.574" stroke="#A492EA"/>
<path d="M320.299 144.5L283.299 107V120L314.799 158L306.299 138.5L320.299 144.5Z" fill="#A08EE9"/>
<path d="M279.299 138.5L272.299 126.5L281.299 121.5C292.499 137.9 289.299 144.333 286.299 145.5L281.299 141C278.099 139.8 278.632 145.5 279.299 148.5C284.099 156.5 285.966 167.833 286.299 172.5L279.299 163C278.099 168.6 274.799 174.333 273.299 176.5C275.299 170.1 271.466 155.833 269.299 149.5C268.099 143.9 270.799 140.833 272.299 140C275.499 141.2 278.299 139.5 279.299 138.5Z" fill="#A08EE9"/>
<path d="M242.689 100C240.689 91.2 246.856 86.3333 250.189 85L283.689 117.5C281.689 123.9 275.856 127.167 273.189 128C254.389 125.2 245.023 108.167 242.689 100Z" fill="#909AB1"/>
<ellipse cx="266.252" cy="102.456" rx="13.6668" ry="24.2894" transform="rotate(-39.2612 266.252 102.456)" fill="#DFE4F8"/>
<path d="M234.299 110C235.632 116 243.699 129.6 265.299 136" stroke="#A492EA"/>
<path d="M260.799 94L271.299 107" stroke="#9196AA"/>
</g>
<defs>
<linearGradient id="paint0_linear" x1="299.653" y1="480.767" x2="149.201" y2="389.071" gradientUnits="userSpaceOnUse">
<stop stop-color="#7966C8"/>
<stop offset="1" stop-color="#7966C8" stop-opacity="0.27"/>
</linearGradient>
<linearGradient id="paint1_linear" x1="214.255" y1="537.772" x2="238.991" y2="522.601" gradientUnits="userSpaceOnUse">
<stop stop-color="#373E5A"/>
<stop offset="1" stop-color="#373E5A" stop-opacity="0"/>
</linearGradient>
<linearGradient id="paint2_linear" x1="231.736" y1="492.258" x2="231.406" y2="445.425" gradientUnits="userSpaceOnUse">
<stop offset="0.242242" stop-color="#3A415F"/>
<stop offset="1" stop-color="#3A415F" stop-opacity="0"/>
</linearGradient>
<linearGradient id="paint3_linear" x1="232.725" y1="458.288" x2="259.11" y2="414.423" gradientUnits="userSpaceOnUse">
<stop stop-color="#C2C5CD"/>
<stop offset="1" stop-color="#C2C5CD" stop-opacity="0"/>
</linearGradient>
<linearGradient id="paint4_linear" x1="272.632" y1="393.315" x2="245.588" y2="386.719" gradientUnits="userSpaceOnUse">
<stop stop-color="#464799"/>
<stop offset="1" stop-color="#464799" stop-opacity="0"/>
</linearGradient>
<linearGradient id="paint5_linear" x1="207.33" y1="343.513" x2="199.414" y2="323.395" gradientUnits="userSpaceOnUse">
<stop stop-color="#4F4CAA"/>
<stop offset="1" stop-color="#4F4CAA" stop-opacity="0"/>
</linearGradient>
<clipPath id="clip0">
<rect width="414" height="896" fill="white"/>
</clipPath>
</defs>
</svg>
