<svg width="45" height="45" viewBox="0 0 45 45" fill="none" xmlns="http://www.w3.org/2000/svg">
<circle cx="22.5" cy="22.5" r="22.5" fill="#5467FF"/>
<path d="M13.023 24.407L11.8836 21.2972L15.5231 19.9638L15.0071 18.5554L11.3676 19.8887L10.7856 18.3L14.5039 16.9377L13.9879 15.5293L8.66958 17.4777L11.423 24.9932L13.023 24.407ZM19.2572 22.123L17.9404 18.5287C18.049 18.0927 18.581 17.5911 19.0542 17.4177C19.2119 17.3599 19.3513 17.3216 19.4609 17.307L18.9491 15.9098C18.273 16.1575 17.7414 16.7996 17.5358 17.4244L17.2634 16.6808L15.8324 17.205L17.8262 22.6473L19.2572 22.123ZM24.4938 20.3579C25.3389 20.0483 26.1003 19.4754 26.4595 18.7815L25.49 18.0887C25.2646 18.5547 24.6966 18.9928 24.2347 19.1621C23.3107 19.5006 22.5481 19.1282 22.2061 18.4739L26.2512 16.9919L26.1356 16.6764C25.4834 14.8962 23.9333 14.0838 22.3108 14.6782C20.6544 15.2851 19.9603 16.9835 20.5383 18.561C21.1781 20.3074 22.8375 20.9647 24.4938 20.3579ZM24.5103 16.5307L21.8286 17.5131C21.698 16.9475 21.8376 16.1424 22.7277 15.8163C23.6742 15.4695 24.2866 16.0247 24.5103 16.5307ZM30.7218 18.0762C31.5669 17.7666 32.3283 17.1937 32.6875 16.4998L31.718 15.807C31.4926 16.273 30.9246 16.7111 30.4627 16.8804C29.5387 17.2189 28.7761 16.8465 28.4341 16.1922L32.4792 14.7102L32.3636 14.3948C31.7114 12.6145 30.1613 11.8021 28.5388 12.3965C26.8825 13.0034 26.1884 14.7018 26.7663 16.2793C27.4061 18.0257 29.0655 18.683 30.7218 18.0762ZM30.7383 14.249L28.0566 15.2314C27.926 14.6658 28.0656 13.8607 28.9557 13.5346C29.9022 13.1878 30.5146 13.743 30.7383 14.249ZM18.8532 32.921L16.6158 26.814L18.8017 26.0132L18.2857 24.6047L12.2913 26.8008L12.8073 28.2093L15.0045 27.4043L17.2419 33.5113L18.8532 32.921ZM22.6917 31.5147L21.3749 27.9204C21.4836 27.4844 22.0155 26.9828 22.4887 26.8094C22.6465 26.7516 22.7858 26.7134 22.8955 26.6987L22.3836 25.3015C21.7075 25.5492 21.176 26.1913 20.9704 26.8161L20.6979 26.0725L19.2669 26.5967L21.2608 32.039L22.6917 31.5147ZM23.8224 24.2632C24.2957 24.0898 24.5384 23.5664 24.365 23.0931C24.1917 22.6199 23.6723 22.3884 23.1991 22.5618C22.7371 22.7311 22.479 23.2474 22.6524 23.7206C22.8257 24.1938 23.3605 24.4325 23.8224 24.2632ZM26.7521 30.0272L24.7582 24.5849L23.3272 25.1092L25.3211 30.5515L26.7521 30.0272ZM32.8696 27.786L31.5816 24.2705C31.0078 22.7043 29.6882 22.6254 28.4487 23.0795C27.5924 23.3932 26.8351 23.9774 26.385 24.8069L27.2767 25.5665C27.5818 24.969 28.0443 24.5568 28.6302 24.3422C29.3513 24.078 29.9566 24.2652 30.1589 24.8173L30.4272 25.5497C29.9098 25.2536 29.1809 25.2523 28.4597 25.5165C27.5921 25.8343 26.7443 26.6945 27.2107 27.9677C27.6566 29.1846 28.8966 29.3949 29.7642 29.077C30.474 28.817 31.0214 28.3225 31.2322 27.7469L31.4386 28.3102L32.8696 27.786ZM29.9838 27.8975C29.4204 28.1039 28.8511 27.9802 28.6654 27.4731C28.4714 26.9436 28.826 26.4814 29.3894 26.2749C29.8514 26.1057 30.3599 26.0983 30.7121 26.3271L30.9597 27.0032C30.8387 27.4054 30.4458 27.7282 29.9838 27.8975ZM35.7199 26.7417L32.9666 19.2262L31.5356 19.7505L34.289 27.266L35.7199 26.7417Z" fill="white"/>
</svg>
