<svg width="294" height="70" viewBox="0 0 294 70" fill="none" xmlns="http://www.w3.org/2000/svg">
<path d="M0 33.5C0 25.4919 6.49187 19 14.5 19H279.5C287.508 19 294 25.4919 294 33.5C294 41.5081 287.508 48 279.5 48H14.5C6.49188 48 0 41.5081 0 33.5Z" fill="url(#paint0_linear)" fill-opacity="0.3"/>
<path d="M69.6763 34.7373C69.1245 35.2793 68.48 35.5503 67.7427 35.5503C66.8003 35.5503 66.0459 35.228 65.4795 34.5835C64.9131 33.9341 64.6299 33.0601 64.6299 31.9614C64.6299 31.2632 64.7812 30.6235 65.084 30.0425C65.3916 29.4565 65.8188 29.0024 66.3657 28.6802C66.9126 28.353 67.5278 28.1895 68.2114 28.1895C68.9146 28.1895 69.5396 28.3652 70.0864 28.7168C70.6333 29.0684 71.0581 29.5737 71.3608 30.2329C71.6636 30.8921 71.8174 31.6465 71.8223 32.4961V33.2798C71.8223 35.0571 71.3804 36.4536 70.4966 37.4692C69.6128 38.4849 68.3604 39.0269 66.7393 39.0952L66.2192 39.1025V37.3374L66.688 37.3301C68.5288 37.2471 69.5249 36.3828 69.6763 34.7373ZM68.2627 33.9316C68.6045 33.9316 68.8975 33.8438 69.1416 33.668C69.3906 33.4922 69.5786 33.2798 69.7056 33.0308V32.1592C69.7056 31.4414 69.5688 30.8848 69.2954 30.4893C69.022 30.0938 68.6558 29.896 68.1968 29.896C67.772 29.896 67.4229 30.0913 67.1494 30.4819C66.876 30.8677 66.7393 31.3535 66.7393 31.9395C66.7393 32.5205 66.8711 32.999 67.1348 33.375C67.4033 33.7461 67.7793 33.9316 68.2627 33.9316Z" fill="url(#paint1_linear)" fill-opacity="0.3"/>
<path d="M77.8425 35.2866H73.7189V33.5801H77.8425V35.2866Z" fill="url(#paint2_linear)" fill-opacity="0.3"/>
<path d="M84.8954 39H82.7787V30.8408L80.2519 31.6245V29.9033L84.6684 28.3213H84.8954V39Z" fill="url(#paint3_linear)" fill-opacity="0.3"/>
<path d="M93.8087 39H91.692V30.8408L89.1651 31.6245V29.9033L93.5816 28.3213H93.8087V39Z" fill="url(#paint4_linear)" fill-opacity="0.3"/>
<path d="M106.296 39C106.198 38.8096 106.127 38.5728 106.083 38.2896C105.571 38.8608 104.904 39.1465 104.084 39.1465C103.308 39.1465 102.663 38.9219 102.15 38.4727C101.643 38.0234 101.389 37.457 101.389 36.7734C101.389 35.9336 101.699 35.2891 102.319 34.8398C102.944 34.3906 103.845 34.1636 105.021 34.1587H105.996V33.7046C105.996 33.3384 105.9 33.0454 105.71 32.8257C105.524 32.606 105.229 32.4961 104.824 32.4961C104.467 32.4961 104.187 32.5815 103.981 32.7524C103.781 32.9233 103.681 33.1577 103.681 33.4556H101.564C101.564 32.9966 101.706 32.5718 101.989 32.1812C102.272 31.7905 102.673 31.4854 103.19 31.2656C103.708 31.041 104.289 30.9287 104.934 30.9287C105.91 30.9287 106.684 31.1753 107.255 31.6685C107.832 32.1567 108.12 32.8452 108.12 33.7339V37.1689C108.125 37.9209 108.229 38.4897 108.435 38.8755V39H106.296ZM104.545 37.5278C104.858 37.5278 105.146 37.4595 105.41 37.3228C105.673 37.1812 105.869 36.9932 105.996 36.7588V35.3965H105.205C104.145 35.3965 103.581 35.7627 103.513 36.4951L103.505 36.6196C103.505 36.8833 103.598 37.1006 103.784 37.2715C103.969 37.4424 104.223 37.5278 104.545 37.5278Z" fill="url(#paint5_linear)" fill-opacity="0.3"/>
<path d="M112.03 31.0752L112.096 31.9614C112.658 31.2729 113.417 30.9287 114.374 30.9287C115.395 30.9287 116.095 31.3315 116.476 32.1372C117.033 31.3315 117.826 30.9287 118.857 30.9287C119.716 30.9287 120.356 31.1802 120.776 31.6831C121.196 32.1812 121.405 32.9331 121.405 33.939V39H119.281V33.9463C119.281 33.4971 119.194 33.1699 119.018 32.9648C118.842 32.7549 118.532 32.6499 118.088 32.6499C117.453 32.6499 117.013 32.9526 116.769 33.5581L116.777 39H114.66V33.9536C114.66 33.4946 114.57 33.1626 114.389 32.9575C114.208 32.7524 113.901 32.6499 113.466 32.6499C112.865 32.6499 112.431 32.8989 112.162 33.397V39H110.046V31.0752H112.03Z" fill="url(#paint6_linear)" fill-opacity="0.3"/>
<path d="M133.929 34.3784H129.711V37.2349H134.662V39H127.513V28.3359H134.647V30.1157H129.711V32.6572H133.929V34.3784Z" fill="url(#paint7_linear)" fill-opacity="0.3"/>
<path d="M141.781 36.2021C141.781 35.7871 141.634 35.4697 141.341 35.25C141.048 35.0254 140.521 34.791 139.759 34.5469C138.997 34.2979 138.394 34.0537 137.95 33.8145C136.739 33.1602 136.134 32.2788 136.134 31.1704C136.134 30.5942 136.295 30.0815 136.617 29.6323C136.944 29.1782 137.41 28.8242 138.016 28.5703C138.626 28.3164 139.31 28.1895 140.067 28.1895C140.828 28.1895 141.507 28.3286 142.103 28.6069C142.699 28.8804 143.16 29.2686 143.487 29.7715C143.819 30.2744 143.985 30.8457 143.985 31.4854H141.788C141.788 30.9971 141.634 30.6187 141.326 30.3501C141.019 30.0767 140.587 29.9399 140.03 29.9399C139.493 29.9399 139.075 30.0547 138.778 30.2842C138.48 30.5088 138.331 30.8066 138.331 31.1777C138.331 31.5244 138.504 31.8149 138.851 32.0493C139.202 32.2837 139.718 32.5034 140.396 32.7085C141.646 33.0845 142.557 33.5508 143.128 34.1074C143.7 34.6641 143.985 35.3574 143.985 36.1875C143.985 37.1104 143.636 37.8354 142.938 38.3628C142.24 38.8853 141.3 39.1465 140.118 39.1465C139.298 39.1465 138.551 38.9976 137.877 38.6997C137.203 38.397 136.688 37.9844 136.331 37.4619C135.98 36.9395 135.804 36.334 135.804 35.6455H138.009C138.009 36.8223 138.712 37.4106 140.118 37.4106C140.64 37.4106 141.048 37.3057 141.341 37.0957C141.634 36.8809 141.781 36.583 141.781 36.2021Z" fill="url(#paint8_linear)" fill-opacity="0.3"/>
<path d="M153.807 30.1157H150.54V39H148.343V30.1157H145.12V28.3359H153.807V30.1157Z" fill="url(#paint9_linear)" fill-opacity="0.3"/>
<path d="M162.939 35.2866H158.816V33.5801H162.939V35.2866Z" fill="url(#paint10_linear)" fill-opacity="0.3"/>
<path d="M171.984 28.3359L174.723 36.0703L177.448 28.3359H180.334V39H178.129V36.085L178.349 31.0532L175.471 39H173.962L171.091 31.0605L171.31 36.085V39H169.113V28.3359H171.984Z" fill="url(#paint11_linear)" fill-opacity="0.3"/>
<path d="M182.084 34.9644C182.084 34.1782 182.235 33.4775 182.538 32.8623C182.841 32.2471 183.275 31.771 183.842 31.4341C184.413 31.0972 185.075 30.9287 185.827 30.9287C186.896 30.9287 187.768 31.2559 188.441 31.9102C189.12 32.5645 189.499 33.4531 189.577 34.5762L189.591 35.1182C189.591 36.334 189.252 37.3105 188.573 38.0479C187.895 38.7803 186.984 39.1465 185.841 39.1465C184.699 39.1465 183.786 38.7803 183.102 38.0479C182.423 37.3154 182.084 36.3193 182.084 35.0596V34.9644ZM184.201 35.1182C184.201 35.8701 184.342 36.4463 184.625 36.8467C184.909 37.2422 185.314 37.4399 185.841 37.4399C186.354 37.4399 186.754 37.2446 187.042 36.854C187.331 36.4585 187.475 35.8286 187.475 34.9644C187.475 34.2271 187.331 33.6558 187.042 33.2505C186.754 32.8452 186.349 32.6426 185.827 32.6426C185.309 32.6426 184.909 32.8452 184.625 33.2505C184.342 33.6509 184.201 34.2734 184.201 35.1182Z" fill="url(#paint12_linear)" fill-opacity="0.3"/>
<path d="M193.143 31.0752L193.209 31.9907C193.776 31.2827 194.535 30.9287 195.487 30.9287C196.327 30.9287 196.952 31.1753 197.362 31.6685C197.772 32.1616 197.982 32.8989 197.992 33.8804V39H195.875V33.9316C195.875 33.4824 195.778 33.1577 195.582 32.9575C195.387 32.7524 195.062 32.6499 194.608 32.6499C194.012 32.6499 193.566 32.9038 193.268 33.4116V39H191.151V31.0752H193.143Z" fill="url(#paint13_linear)" fill-opacity="0.3"/>
<path d="M199.574 34.979C199.574 33.7437 199.85 32.7598 200.401 32.0273C200.958 31.2949 201.717 30.9287 202.679 30.9287C203.451 30.9287 204.088 31.2168 204.591 31.793V27.75H206.715V39H204.803L204.701 38.1577C204.173 38.8169 203.495 39.1465 202.664 39.1465C201.732 39.1465 200.982 38.7803 200.416 38.0479C199.854 37.3105 199.574 36.2876 199.574 34.979ZM201.69 35.1328C201.69 35.875 201.82 36.4438 202.079 36.8394C202.337 37.2349 202.713 37.4326 203.206 37.4326C203.861 37.4326 204.322 37.1567 204.591 36.605V33.4775C204.327 32.9258 203.871 32.6499 203.221 32.6499C202.201 32.6499 201.69 33.4775 201.69 35.1328Z" fill="url(#paint14_linear)" fill-opacity="0.3"/>
<path d="M213.248 39C213.15 38.8096 213.079 38.5728 213.035 38.2896C212.523 38.8608 211.856 39.1465 211.036 39.1465C210.259 39.1465 209.615 38.9219 209.102 38.4727C208.594 38.0234 208.34 37.457 208.34 36.7734C208.34 35.9336 208.65 35.2891 209.271 34.8398C209.896 34.3906 210.796 34.1636 211.973 34.1587H212.947V33.7046C212.947 33.3384 212.852 33.0454 212.662 32.8257C212.476 32.606 212.181 32.4961 211.775 32.4961C211.419 32.4961 211.138 32.5815 210.933 32.7524C210.733 32.9233 210.633 33.1577 210.633 33.4556H208.516C208.516 32.9966 208.658 32.5718 208.941 32.1812C209.224 31.7905 209.625 31.4854 210.142 31.2656C210.66 31.041 211.241 30.9287 211.885 30.9287C212.862 30.9287 213.636 31.1753 214.207 31.6685C214.783 32.1567 215.071 32.8452 215.071 33.7339V37.1689C215.076 37.9209 215.181 38.4897 215.386 38.8755V39H213.248ZM211.497 37.5278C211.81 37.5278 212.098 37.4595 212.361 37.3228C212.625 37.1812 212.82 36.9932 212.947 36.7588V35.3965H212.156C211.097 35.3965 210.533 35.7627 210.464 36.4951L210.457 36.6196C210.457 36.8833 210.55 37.1006 210.735 37.2715C210.921 37.4424 211.175 37.5278 211.497 37.5278Z" fill="url(#paint15_linear)" fill-opacity="0.3"/>
<path d="M219.839 36.0044L221.304 31.0752H223.575L220.388 40.2305L220.213 40.6479C219.739 41.6831 218.958 42.2007 217.869 42.2007C217.561 42.2007 217.249 42.1543 216.931 42.0615V40.4575L217.254 40.4648C217.654 40.4648 217.952 40.4038 218.147 40.2817C218.347 40.1597 218.504 39.957 218.616 39.6738L218.865 39.022L216.089 31.0752H218.367L219.839 36.0044Z" fill="url(#paint16_linear)" fill-opacity="0.3"/>
<path d="M90.1406 2.73633C90.1406 3.15039 90.0371 3.51758 89.8301 3.83789C89.623 4.1582 89.3379 4.41406 88.9746 4.60547C89.3887 4.80469 89.7168 5.08008 89.959 5.43164C90.2012 5.7793 90.3223 6.18945 90.3223 6.66211C90.3223 7.41992 90.0645 8.01953 89.5488 8.46094C89.0332 8.89844 88.332 9.11719 87.4453 9.11719C86.5586 9.11719 85.8555 8.89648 85.3359 8.45508C84.8164 8.01367 84.5566 7.41602 84.5566 6.66211C84.5566 6.18945 84.6777 5.77734 84.9199 5.42578C85.1621 5.07422 85.4883 4.80078 85.8984 4.60547C85.5352 4.41406 85.25 4.1582 85.043 3.83789C84.8398 3.51758 84.7383 3.15039 84.7383 2.73633C84.7383 2.00977 84.9805 1.43164 85.4648 1.00195C85.9492 0.568359 86.6074 0.351562 87.4395 0.351562C88.2676 0.351562 88.9238 0.566406 89.4082 0.996094C89.8965 1.42188 90.1406 2.00195 90.1406 2.73633ZM88.623 6.53906C88.623 6.16797 88.5156 5.87109 88.3008 5.64844C88.0859 5.42578 87.7969 5.31445 87.4336 5.31445C87.0742 5.31445 86.7871 5.42578 86.5723 5.64844C86.3574 5.86719 86.25 6.16406 86.25 6.53906C86.25 6.90234 86.3555 7.19531 86.5664 7.41797C86.7773 7.64062 87.0703 7.75195 87.4453 7.75195C87.8125 7.75195 88.0996 7.64453 88.3066 7.42969C88.5176 7.21484 88.623 6.91797 88.623 6.53906ZM88.4473 2.81836C88.4473 2.48633 88.3594 2.2207 88.1836 2.02148C88.0078 1.81836 87.7598 1.7168 87.4395 1.7168C87.123 1.7168 86.877 1.81445 86.7012 2.00977C86.5254 2.20508 86.4375 2.47461 86.4375 2.81836C86.4375 3.1582 86.5254 3.43164 86.7012 3.63867C86.877 3.8457 87.125 3.94922 87.4453 3.94922C87.7656 3.94922 88.0117 3.8457 88.1836 3.63867C88.3594 3.43164 88.4473 3.1582 88.4473 2.81836Z" fill="url(#paint17_linear)" fill-opacity="0.3"/>
<path d="M95.074 6.0293H91.7752V4.66406H95.074V6.0293Z" fill="url(#paint18_linear)" fill-opacity="0.3"/>
<path d="M100.716 9H99.023V2.47266L97.0015 3.09961V1.72266L100.535 0.457031H100.716V9Z" fill="url(#paint19_linear)" fill-opacity="0.3"/>
<path d="M109.476 5.47266C109.476 6.65234 109.232 7.55469 108.743 8.17969C108.255 8.80469 107.54 9.11719 106.599 9.11719C105.669 9.11719 104.958 8.81055 104.466 8.19727C103.974 7.58398 103.722 6.70508 103.71 5.56055V3.99023C103.71 2.79883 103.956 1.89453 104.449 1.27734C104.945 0.660156 105.658 0.351562 106.587 0.351562C107.517 0.351562 108.228 0.658203 108.72 1.27148C109.212 1.88086 109.464 2.75781 109.476 3.90234V5.47266ZM107.783 3.75C107.783 3.04297 107.685 2.5293 107.49 2.20898C107.298 1.88477 106.997 1.72266 106.587 1.72266C106.189 1.72266 105.894 1.87695 105.702 2.18555C105.515 2.49023 105.415 2.96875 105.404 3.62109V5.69531C105.404 6.39062 105.497 6.9082 105.685 7.24805C105.876 7.58398 106.181 7.75195 106.599 7.75195C107.013 7.75195 107.312 7.58984 107.495 7.26562C107.679 6.94141 107.775 6.44531 107.783 5.77734V3.75Z" fill="url(#paint20_linear)" fill-opacity="0.3"/>
<path d="M117.837 9C117.759 8.84766 117.702 8.6582 117.667 8.43164C117.257 8.88867 116.723 9.11719 116.067 9.11719C115.446 9.11719 114.93 8.9375 114.52 8.57812C114.114 8.21875 113.911 7.76562 113.911 7.21875C113.911 6.54688 114.159 6.03125 114.655 5.67188C115.155 5.3125 115.876 5.13086 116.817 5.12695H117.596V4.76367C117.596 4.4707 117.52 4.23633 117.368 4.06055C117.22 3.88477 116.983 3.79688 116.659 3.79688C116.374 3.79688 116.149 3.86523 115.985 4.00195C115.825 4.13867 115.745 4.32617 115.745 4.56445H114.052C114.052 4.19727 114.165 3.85742 114.391 3.54492C114.618 3.23242 114.938 2.98828 115.352 2.8125C115.766 2.63281 116.231 2.54297 116.747 2.54297C117.528 2.54297 118.147 2.74023 118.604 3.13477C119.065 3.52539 119.296 4.07617 119.296 4.78711V7.53516C119.3 8.13672 119.384 8.5918 119.548 8.90039V9H117.837ZM116.436 7.82227C116.686 7.82227 116.917 7.76758 117.128 7.6582C117.339 7.54492 117.495 7.39453 117.596 7.20703V6.11719H116.964C116.116 6.11719 115.665 6.41016 115.61 6.99609L115.604 7.0957C115.604 7.30664 115.679 7.48047 115.827 7.61719C115.975 7.75391 116.179 7.82227 116.436 7.82227Z" fill="url(#paint21_linear)" fill-opacity="0.3"/>
<path d="M122.424 2.66016L122.477 3.36914C122.926 2.81836 123.534 2.54297 124.299 2.54297C125.116 2.54297 125.676 2.86523 125.981 3.50977C126.426 2.86523 127.061 2.54297 127.885 2.54297C128.573 2.54297 129.085 2.74414 129.42 3.14648C129.756 3.54492 129.924 4.14648 129.924 4.95117V9H128.225V4.95703C128.225 4.59766 128.155 4.33594 128.014 4.17188C127.874 4.00391 127.626 3.91992 127.27 3.91992C126.762 3.91992 126.411 4.16211 126.215 4.64648L126.221 9H124.528V4.96289C124.528 4.5957 124.456 4.33008 124.311 4.16602C124.167 4.00195 123.92 3.91992 123.573 3.91992C123.092 3.91992 122.745 4.11914 122.53 4.51758V9H120.836V2.66016H122.424Z" fill="url(#paint22_linear)" fill-opacity="0.3"/>
<path d="M139.943 5.30273H136.568V7.58789H140.529V9H134.811V0.46875H140.518V1.89258H136.568V3.92578H139.943V5.30273Z" fill="url(#paint23_linear)" fill-opacity="0.3"/>
<path d="M146.224 6.76172C146.224 6.42969 146.107 6.17578 145.873 6C145.639 5.82031 145.217 5.63281 144.607 5.4375C143.998 5.23828 143.515 5.04297 143.16 4.85156C142.191 4.32812 141.707 3.62305 141.707 2.73633C141.707 2.27539 141.836 1.86523 142.094 1.50586C142.355 1.14258 142.728 0.859375 143.213 0.65625C143.701 0.453125 144.248 0.351562 144.853 0.351562C145.463 0.351562 146.006 0.462891 146.482 0.685547C146.959 0.904297 147.328 1.21484 147.59 1.61719C147.855 2.01953 147.988 2.47656 147.988 2.98828H146.23C146.23 2.59766 146.107 2.29492 145.861 2.08008C145.615 1.86133 145.269 1.75195 144.824 1.75195C144.394 1.75195 144.06 1.84375 143.822 2.02734C143.584 2.20703 143.465 2.44531 143.465 2.74219C143.465 3.01953 143.603 3.25195 143.881 3.43945C144.162 3.62695 144.574 3.80273 145.117 3.9668C146.117 4.26758 146.846 4.64062 147.303 5.08594C147.76 5.53125 147.988 6.08594 147.988 6.75C147.988 7.48828 147.709 8.06836 147.15 8.49023C146.592 8.9082 145.84 9.11719 144.894 9.11719C144.238 9.11719 143.64 8.99805 143.101 8.75977C142.562 8.51758 142.15 8.1875 141.865 7.76953C141.584 7.35156 141.443 6.86719 141.443 6.31641H143.207C143.207 7.25781 143.769 7.72852 144.894 7.72852C145.312 7.72852 145.639 7.64453 145.873 7.47656C146.107 7.30469 146.224 7.06641 146.224 6.76172Z" fill="url(#paint24_linear)" fill-opacity="0.3"/>
<path d="M155.845 1.89258H153.232V9H151.474V1.89258H148.896V0.46875H155.845V1.89258Z" fill="url(#paint25_linear)" fill-opacity="0.3"/>
<path d="M163.151 6.0293H159.853V4.66406H163.151V6.0293Z" fill="url(#paint26_linear)" fill-opacity="0.3"/>
<path d="M172.514 6.76172C172.514 6.42969 172.397 6.17578 172.163 6C171.928 5.82031 171.506 5.63281 170.897 5.4375C170.288 5.23828 169.805 5.04297 169.45 4.85156C168.481 4.32812 167.997 3.62305 167.997 2.73633C167.997 2.27539 168.126 1.86523 168.383 1.50586C168.645 1.14258 169.018 0.859375 169.503 0.65625C169.991 0.453125 170.538 0.351562 171.143 0.351562C171.753 0.351562 172.296 0.462891 172.772 0.685547C173.249 0.904297 173.618 1.21484 173.88 1.61719C174.145 2.01953 174.278 2.47656 174.278 2.98828H172.52C172.52 2.59766 172.397 2.29492 172.151 2.08008C171.905 1.86133 171.559 1.75195 171.114 1.75195C170.684 1.75195 170.35 1.84375 170.112 2.02734C169.874 2.20703 169.755 2.44531 169.755 2.74219C169.755 3.01953 169.893 3.25195 170.171 3.43945C170.452 3.62695 170.864 3.80273 171.407 3.9668C172.407 4.26758 173.135 4.64062 173.592 5.08594C174.049 5.53125 174.278 6.08594 174.278 6.75C174.278 7.48828 173.999 8.06836 173.44 8.49023C172.881 8.9082 172.13 9.11719 171.184 9.11719C170.528 9.11719 169.93 8.99805 169.391 8.75977C168.852 8.51758 168.44 8.1875 168.155 7.76953C167.874 7.35156 167.733 6.86719 167.733 6.31641H169.497C169.497 7.25781 170.059 7.72852 171.184 7.72852C171.602 7.72852 171.928 7.64453 172.163 7.47656C172.397 7.30469 172.514 7.06641 172.514 6.76172Z" fill="url(#paint27_linear)" fill-opacity="0.3"/>
<path d="M179.399 8.35547C178.981 8.86328 178.403 9.11719 177.664 9.11719C176.985 9.11719 176.465 8.92188 176.106 8.53125C175.75 8.14062 175.569 7.56836 175.561 6.81445V2.66016H177.254V6.75586C177.254 7.41602 177.555 7.74609 178.157 7.74609C178.731 7.74609 179.125 7.54688 179.34 7.14844V2.66016H181.039V9H179.446L179.399 8.35547Z" fill="url(#paint28_linear)" fill-opacity="0.3"/>
<path d="M184.115 2.66016L184.168 3.39258C184.621 2.82617 185.229 2.54297 185.99 2.54297C186.662 2.54297 187.162 2.74023 187.49 3.13477C187.819 3.5293 187.986 4.11914 187.994 4.9043V9H186.301V4.94531C186.301 4.58594 186.223 4.32617 186.067 4.16602C185.91 4.00195 185.651 3.91992 185.287 3.91992C184.811 3.91992 184.453 4.12305 184.215 4.5293V9H182.522V2.66016H184.115Z" fill="url(#paint29_linear)" fill-opacity="0.3"/>
<path d="M189.26 5.7832C189.26 4.79492 189.48 4.00781 189.922 3.42188C190.367 2.83594 190.975 2.54297 191.744 2.54297C192.361 2.54297 192.871 2.77344 193.273 3.23438V0H194.973V9H193.443L193.361 8.32617C192.939 8.85352 192.396 9.11719 191.732 9.11719C190.986 9.11719 190.387 8.82422 189.934 8.23828C189.484 7.64844 189.26 6.83008 189.26 5.7832ZM190.953 5.90625C190.953 6.5 191.057 6.95508 191.264 7.27148C191.471 7.58789 191.771 7.74609 192.166 7.74609C192.689 7.74609 193.059 7.52539 193.273 7.08398V4.58203C193.062 4.14062 192.697 3.91992 192.178 3.91992C191.361 3.91992 190.953 4.58203 190.953 5.90625Z" fill="url(#paint30_linear)" fill-opacity="0.3"/>
<path d="M200.199 9C200.121 8.84766 200.064 8.6582 200.029 8.43164C199.619 8.88867 199.086 9.11719 198.429 9.11719C197.808 9.11719 197.293 8.9375 196.883 8.57812C196.476 8.21875 196.273 7.76562 196.273 7.21875C196.273 6.54688 196.521 6.03125 197.017 5.67188C197.517 5.3125 198.238 5.13086 199.179 5.12695H199.959V4.76367C199.959 4.4707 199.883 4.23633 199.73 4.06055C199.582 3.88477 199.345 3.79688 199.021 3.79688C198.736 3.79688 198.511 3.86523 198.347 4.00195C198.187 4.13867 198.107 4.32617 198.107 4.56445H196.414C196.414 4.19727 196.527 3.85742 196.754 3.54492C196.98 3.23242 197.3 2.98828 197.715 2.8125C198.129 2.63281 198.593 2.54297 199.109 2.54297C199.89 2.54297 200.509 2.74023 200.966 3.13477C201.427 3.52539 201.658 4.07617 201.658 4.78711V7.53516C201.662 8.13672 201.746 8.5918 201.91 8.90039V9H200.199ZM198.799 7.82227C199.049 7.82227 199.279 7.76758 199.49 7.6582C199.701 7.54492 199.857 7.39453 199.959 7.20703V6.11719H199.326C198.478 6.11719 198.027 6.41016 197.972 6.99609L197.966 7.0957C197.966 7.30664 198.041 7.48047 198.189 7.61719C198.338 7.75391 198.541 7.82227 198.799 7.82227Z" fill="url(#paint31_linear)" fill-opacity="0.3"/>
<path d="M205.472 6.60352L206.644 2.66016H208.46L205.912 9.98438L205.771 10.3184C205.392 11.1465 204.767 11.5605 203.896 11.5605C203.65 11.5605 203.4 11.5234 203.146 11.4492V10.166L203.404 10.1719C203.724 10.1719 203.962 10.123 204.119 10.0254C204.279 9.92773 204.404 9.76562 204.494 9.53906L204.693 9.01758L202.472 2.66016H204.294L205.472 6.60352Z" fill="url(#paint32_linear)" fill-opacity="0.3"/>
<path d="M82.6934 67H81V60.4727L78.9785 61.0996V59.7227L82.5117 58.457H82.6934V67Z" fill="url(#paint33_linear)" fill-opacity="0.3"/>
<path d="M91.5584 67H85.7107V65.8398L88.4705 62.8984C88.8494 62.4844 89.1287 62.123 89.3084 61.8145C89.492 61.5059 89.5837 61.2129 89.5837 60.9355C89.5837 60.5566 89.488 60.2598 89.2966 60.0449C89.1052 59.8262 88.8318 59.7168 88.4763 59.7168C88.0935 59.7168 87.7908 59.8496 87.5681 60.1152C87.3494 60.377 87.24 60.7227 87.24 61.1523H85.5408C85.5408 60.6328 85.6638 60.1582 85.9099 59.7285C86.1599 59.2988 86.5115 58.9629 86.9646 58.7207C87.4177 58.4746 87.9314 58.3516 88.5056 58.3516C89.3845 58.3516 90.0662 58.5625 90.5505 58.9844C91.0388 59.4062 91.283 60.002 91.283 60.7715C91.283 61.1934 91.1736 61.623 90.9548 62.0605C90.7361 62.498 90.3611 63.0078 89.8298 63.5898L87.8904 65.6348H91.5584V67Z" fill="url(#paint34_linear)" fill-opacity="0.3"/>
<path d="M96.2046 64.0293H92.9058V62.6641H96.2046V64.0293Z" fill="url(#paint35_linear)" fill-opacity="0.3"/>
<path d="M103.476 63.4727C103.476 64.6523 103.232 65.5547 102.743 66.1797C102.255 66.8047 101.54 67.1172 100.599 67.1172C99.6692 67.1172 98.9583 66.8105 98.4661 66.1973C97.9739 65.584 97.722 64.7051 97.7102 63.5605V61.9902C97.7102 60.7988 97.9563 59.8945 98.4485 59.2773C98.9446 58.6602 99.6575 58.3516 100.587 58.3516C101.517 58.3516 102.228 58.6582 102.72 59.2715C103.212 59.8809 103.464 60.7578 103.476 61.9023V63.4727ZM101.783 61.75C101.783 61.043 101.685 60.5293 101.49 60.209C101.298 59.8848 100.997 59.7227 100.587 59.7227C100.189 59.7227 99.8938 59.877 99.7024 60.1855C99.5149 60.4902 99.4153 60.9688 99.4036 61.6211V63.6953C99.4036 64.3906 99.4973 64.9082 99.6848 65.248C99.8763 65.584 100.181 65.752 100.599 65.752C101.013 65.752 101.312 65.5898 101.495 65.2656C101.679 64.9414 101.775 64.4453 101.783 63.7773V61.75Z" fill="url(#paint36_linear)" fill-opacity="0.3"/>
<path d="M110.712 67H104.864V65.8398L107.624 62.8984C108.003 62.4844 108.282 62.123 108.462 61.8145C108.646 61.5059 108.737 61.2129 108.737 60.9355C108.737 60.5566 108.642 60.2598 108.45 60.0449C108.259 59.8262 107.985 59.7168 107.63 59.7168C107.247 59.7168 106.944 59.8496 106.722 60.1152C106.503 60.377 106.394 60.7227 106.394 61.1523H104.694C104.694 60.6328 104.817 60.1582 105.064 59.7285C105.314 59.2988 105.665 58.9629 106.118 58.7207C106.571 58.4746 107.085 58.3516 107.659 58.3516C108.538 58.3516 109.22 58.5625 109.704 58.9844C110.192 59.4062 110.437 60.002 110.437 60.7715C110.437 61.1934 110.327 61.623 110.108 62.0605C109.89 62.498 109.515 63.0078 108.983 63.5898L107.044 65.6348H110.712V67Z" fill="url(#paint37_linear)" fill-opacity="0.3"/>
<path d="M121.001 63.8887C121.001 64.8652 120.778 65.6484 120.333 66.2383C119.891 66.8242 119.294 67.1172 118.54 67.1172C117.899 67.1172 117.381 66.8945 116.987 66.4492V69.4375H115.294V60.6602H116.864L116.922 61.2812C117.333 60.7891 117.868 60.543 118.528 60.543C119.309 60.543 119.917 60.832 120.35 61.4102C120.784 61.9883 121.001 62.7852 121.001 63.8008V63.8887ZM119.307 63.7656C119.307 63.1758 119.202 62.7207 118.991 62.4004C118.784 62.0801 118.481 61.9199 118.083 61.9199C117.551 61.9199 117.186 62.123 116.987 62.5293V65.125C117.194 65.543 117.563 65.752 118.094 65.752C118.903 65.752 119.307 65.0898 119.307 63.7656Z" fill="url(#paint38_linear)" fill-opacity="0.3"/>
<path d="M123.883 60.6602L123.936 61.3691C124.385 60.8184 124.993 60.543 125.758 60.543C126.575 60.543 127.135 60.8652 127.44 61.5098C127.885 60.8652 128.52 60.543 129.344 60.543C130.032 60.543 130.543 60.7441 130.879 61.1465C131.215 61.5449 131.383 62.1465 131.383 62.9512V67H129.684V62.957C129.684 62.5977 129.614 62.3359 129.473 62.1719C129.332 62.0039 129.084 61.9199 128.729 61.9199C128.221 61.9199 127.869 62.1621 127.674 62.6465L127.68 67H125.987V62.9629C125.987 62.5957 125.914 62.3301 125.77 62.166C125.625 62.002 125.379 61.9199 125.032 61.9199C124.551 61.9199 124.203 62.1191 123.989 62.5176V67H122.295V60.6602H123.883Z" fill="url(#paint39_linear)" fill-opacity="0.3"/>
<path d="M141.402 63.3027H138.027V65.5879H141.988V67H136.269V58.4688H141.976V59.8926H138.027V61.9258H141.402V63.3027Z" fill="url(#paint40_linear)" fill-opacity="0.3"/>
<path d="M147.683 64.7617C147.683 64.4297 147.566 64.1758 147.332 64C147.097 63.8203 146.675 63.6328 146.066 63.4375C145.457 63.2383 144.974 63.043 144.619 62.8516C143.65 62.3281 143.166 61.623 143.166 60.7363C143.166 60.2754 143.295 59.8652 143.552 59.5059C143.814 59.1426 144.187 58.8594 144.671 58.6562C145.16 58.4531 145.707 58.3516 146.312 58.3516C146.921 58.3516 147.464 58.4629 147.941 58.6855C148.418 58.9043 148.787 59.2148 149.048 59.6172C149.314 60.0195 149.447 60.4766 149.447 60.9883H147.689C147.689 60.5977 147.566 60.2949 147.32 60.0801C147.074 59.8613 146.728 59.752 146.283 59.752C145.853 59.752 145.519 59.8438 145.281 60.0273C145.043 60.207 144.923 60.4453 144.923 60.7422C144.923 61.0195 145.062 61.252 145.339 61.4395C145.621 61.627 146.033 61.8027 146.576 61.9668C147.576 62.2676 148.304 62.6406 148.761 63.0859C149.218 63.5312 149.447 64.0859 149.447 64.75C149.447 65.4883 149.168 66.0684 148.609 66.4902C148.05 66.9082 147.298 67.1172 146.353 67.1172C145.697 67.1172 145.099 66.998 144.56 66.7598C144.021 66.5176 143.609 66.1875 143.324 65.7695C143.043 65.3516 142.902 64.8672 142.902 64.3164H144.666C144.666 65.2578 145.228 65.7285 146.353 65.7285C146.771 65.7285 147.097 65.6445 147.332 65.4766C147.566 65.3047 147.683 65.0664 147.683 64.7617Z" fill="url(#paint41_linear)" fill-opacity="0.3"/>
<path d="M157.304 59.8926H154.691V67H152.933V59.8926H150.355V58.4688H157.304V59.8926Z" fill="url(#paint42_linear)" fill-opacity="0.3"/>
<path d="M164.61 64.0293H161.311V62.6641H164.61V64.0293Z" fill="url(#paint43_linear)" fill-opacity="0.3"/>
<path d="M175.62 59.8926H173.006V67H171.248V59.8926H168.67V58.4688H175.62V59.8926Z" fill="url(#paint44_linear)" fill-opacity="0.3"/>
<path d="M180.166 66.3555C179.748 66.8633 179.17 67.1172 178.432 67.1172C177.752 67.1172 177.233 66.9219 176.873 66.5312C176.518 66.1406 176.336 65.5684 176.328 64.8145V60.6602H178.022V64.7559C178.022 65.416 178.322 65.7461 178.924 65.7461C179.498 65.7461 179.893 65.5469 180.108 65.1484V60.6602H181.807V67H180.213L180.166 66.3555Z" fill="url(#paint45_linear)" fill-opacity="0.3"/>
<path d="M186.242 67.1172C185.312 67.1172 184.555 66.832 183.969 66.2617C183.387 65.6914 183.096 64.9316 183.096 63.9824V63.8184C183.096 63.1816 183.219 62.6133 183.465 62.1133C183.711 61.6094 184.059 61.2227 184.508 60.9531C184.961 60.6797 185.476 60.543 186.055 60.543C186.922 60.543 187.603 60.8164 188.1 61.3633C188.6 61.9102 188.85 62.6855 188.85 63.6895V64.3809H184.812C184.867 64.7949 185.031 65.127 185.305 65.377C185.582 65.627 185.932 65.752 186.353 65.752C187.006 65.752 187.516 65.5156 187.883 65.043L188.715 65.9746C188.461 66.334 188.117 66.6152 187.684 66.8184C187.25 67.0176 186.769 67.1172 186.242 67.1172ZM186.049 61.9141C185.713 61.9141 185.439 62.0273 185.228 62.2539C185.021 62.4805 184.889 62.8047 184.83 63.2266H187.185V63.0918C187.178 62.7168 187.076 62.4277 186.881 62.2246C186.685 62.0176 186.408 61.9141 186.049 61.9141Z" fill="url(#paint46_linear)" fill-opacity="0.3"/>
<path d="M193.49 65.248C193.49 65.041 193.386 64.8789 193.179 64.7617C192.976 64.6406 192.648 64.5332 192.195 64.4395C190.687 64.123 189.933 63.4824 189.933 62.5176C189.933 61.9551 190.166 61.4863 190.631 61.1113C191.099 60.7324 191.711 60.543 192.465 60.543C193.269 60.543 193.912 60.7324 194.392 61.1113C194.877 61.4902 195.119 61.9824 195.119 62.5879H193.425C193.425 62.3457 193.347 62.1465 193.191 61.9902C193.035 61.8301 192.791 61.75 192.459 61.75C192.174 61.75 191.953 61.8145 191.797 61.9434C191.64 62.0723 191.562 62.2363 191.562 62.4355C191.562 62.623 191.65 62.7754 191.826 62.8926C192.006 63.0059 192.306 63.1055 192.728 63.1914C193.15 63.2734 193.506 63.3672 193.795 63.4727C194.689 63.8008 195.136 64.3691 195.136 65.1777C195.136 65.7559 194.888 66.2246 194.392 66.584C193.896 66.9395 193.256 67.1172 192.47 67.1172C191.939 67.1172 191.466 67.0234 191.052 66.8359C190.642 66.6445 190.32 66.3848 190.086 66.0566C189.851 65.7246 189.734 65.3672 189.734 64.9844H191.34C191.355 65.2852 191.466 65.5156 191.674 65.6758C191.881 65.8359 192.158 65.916 192.506 65.916C192.83 65.916 193.074 65.8555 193.238 65.7344C193.406 65.6094 193.49 65.4473 193.49 65.248Z" fill="url(#paint47_linear)" fill-opacity="0.3"/>
<path d="M196.208 63.7832C196.208 62.7949 196.429 62.0078 196.871 61.4219C197.316 60.8359 197.923 60.543 198.693 60.543C199.31 60.543 199.82 60.7734 200.222 61.2344V58H201.921V67H200.392L200.31 66.3262C199.888 66.8535 199.345 67.1172 198.681 67.1172C197.935 67.1172 197.335 66.8242 196.882 66.2383C196.433 65.6484 196.208 64.8301 196.208 63.7832ZM197.902 63.9062C197.902 64.5 198.005 64.9551 198.212 65.2715C198.419 65.5879 198.72 65.7461 199.115 65.7461C199.638 65.7461 200.007 65.5254 200.222 65.084V62.582C200.011 62.1406 199.646 61.9199 199.126 61.9199C198.31 61.9199 197.902 62.582 197.902 63.9062Z" fill="url(#paint48_linear)" fill-opacity="0.3"/>
<path d="M207.148 67C207.07 66.8477 207.013 66.6582 206.978 66.4316C206.568 66.8887 206.034 67.1172 205.378 67.1172C204.757 67.1172 204.241 66.9375 203.831 66.5781C203.425 66.2188 203.222 65.7656 203.222 65.2188C203.222 64.5469 203.47 64.0312 203.966 63.6719C204.466 63.3125 205.187 63.1309 206.128 63.127H206.907V62.7637C206.907 62.4707 206.831 62.2363 206.679 62.0605C206.53 61.8848 206.294 61.7969 205.97 61.7969C205.685 61.7969 205.46 61.8652 205.296 62.002C205.136 62.1387 205.056 62.3262 205.056 62.5645H203.363C203.363 62.1973 203.476 61.8574 203.702 61.5449C203.929 61.2324 204.249 60.9883 204.663 60.8125C205.077 60.6328 205.542 60.543 206.058 60.543C206.839 60.543 207.458 60.7402 207.915 61.1348C208.376 61.5254 208.607 62.0762 208.607 62.7871V65.5352C208.611 66.1367 208.695 66.5918 208.859 66.9004V67H207.148ZM205.747 65.8223C205.997 65.8223 206.228 65.7676 206.439 65.6582C206.65 65.5449 206.806 65.3945 206.907 65.207V64.1172H206.275C205.427 64.1172 204.976 64.4102 204.921 64.9961L204.915 65.0957C204.915 65.3066 204.989 65.4805 205.138 65.6172C205.286 65.7539 205.489 65.8223 205.747 65.8223Z" fill="url(#paint49_linear)" fill-opacity="0.3"/>
<path d="M212.421 64.6035L213.593 60.6602H215.409L212.86 67.9844L212.72 68.3184C212.341 69.1465 211.716 69.5605 210.845 69.5605C210.599 69.5605 210.349 69.5234 210.095 69.4492V68.166L210.352 68.1719C210.673 68.1719 210.911 68.123 211.067 68.0254C211.227 67.9277 211.352 67.7656 211.442 67.5391L211.642 67.0176L209.421 60.6602H211.243L212.421 64.6035Z" fill="url(#paint50_linear)" fill-opacity="0.3"/>
<defs>
<linearGradient id="paint0_linear" x1="147" y1="59.5" x2="147" y2="67.5" gradientUnits="userSpaceOnUse">
<stop offset="0.46875" stop-color="#E0F9FF"/>
<stop offset="1" stop-color="#3AC1E4"/>
</linearGradient>
<linearGradient id="paint1_linear" x1="147" y1="59.5" x2="147" y2="67.5" gradientUnits="userSpaceOnUse">
<stop offset="0.46875" stop-color="#E0F9FF"/>
<stop offset="1" stop-color="#3AC1E4"/>
</linearGradient>
<linearGradient id="paint2_linear" x1="147" y1="59.5" x2="147" y2="67.5" gradientUnits="userSpaceOnUse">
<stop offset="0.46875" stop-color="#E0F9FF"/>
<stop offset="1" stop-color="#3AC1E4"/>
</linearGradient>
<linearGradient id="paint3_linear" x1="147" y1="59.5" x2="147" y2="67.5" gradientUnits="userSpaceOnUse">
<stop offset="0.46875" stop-color="#E0F9FF"/>
<stop offset="1" stop-color="#3AC1E4"/>
</linearGradient>
<linearGradient id="paint4_linear" x1="147" y1="59.5" x2="147" y2="67.5" gradientUnits="userSpaceOnUse">
<stop offset="0.46875" stop-color="#E0F9FF"/>
<stop offset="1" stop-color="#3AC1E4"/>
</linearGradient>
<linearGradient id="paint5_linear" x1="147" y1="59.5" x2="147" y2="67.5" gradientUnits="userSpaceOnUse">
<stop offset="0.46875" stop-color="#E0F9FF"/>
<stop offset="1" stop-color="#3AC1E4"/>
</linearGradient>
<linearGradient id="paint6_linear" x1="147" y1="59.5" x2="147" y2="67.5" gradientUnits="userSpaceOnUse">
<stop offset="0.46875" stop-color="#E0F9FF"/>
<stop offset="1" stop-color="#3AC1E4"/>
</linearGradient>
<linearGradient id="paint7_linear" x1="147" y1="59.5" x2="147" y2="67.5" gradientUnits="userSpaceOnUse">
<stop offset="0.46875" stop-color="#E0F9FF"/>
<stop offset="1" stop-color="#3AC1E4"/>
</linearGradient>
<linearGradient id="paint8_linear" x1="147" y1="59.5" x2="147" y2="67.5" gradientUnits="userSpaceOnUse">
<stop offset="0.46875" stop-color="#E0F9FF"/>
<stop offset="1" stop-color="#3AC1E4"/>
</linearGradient>
<linearGradient id="paint9_linear" x1="147" y1="59.5" x2="147" y2="67.5" gradientUnits="userSpaceOnUse">
<stop offset="0.46875" stop-color="#E0F9FF"/>
<stop offset="1" stop-color="#3AC1E4"/>
</linearGradient>
<linearGradient id="paint10_linear" x1="147" y1="59.5" x2="147" y2="67.5" gradientUnits="userSpaceOnUse">
<stop offset="0.46875" stop-color="#E0F9FF"/>
<stop offset="1" stop-color="#3AC1E4"/>
</linearGradient>
<linearGradient id="paint11_linear" x1="147" y1="59.5" x2="147" y2="67.5" gradientUnits="userSpaceOnUse">
<stop offset="0.46875" stop-color="#E0F9FF"/>
<stop offset="1" stop-color="#3AC1E4"/>
</linearGradient>
<linearGradient id="paint12_linear" x1="147" y1="59.5" x2="147" y2="67.5" gradientUnits="userSpaceOnUse">
<stop offset="0.46875" stop-color="#E0F9FF"/>
<stop offset="1" stop-color="#3AC1E4"/>
</linearGradient>
<linearGradient id="paint13_linear" x1="147" y1="59.5" x2="147" y2="67.5" gradientUnits="userSpaceOnUse">
<stop offset="0.46875" stop-color="#E0F9FF"/>
<stop offset="1" stop-color="#3AC1E4"/>
</linearGradient>
<linearGradient id="paint14_linear" x1="147" y1="59.5" x2="147" y2="67.5" gradientUnits="userSpaceOnUse">
<stop offset="0.46875" stop-color="#E0F9FF"/>
<stop offset="1" stop-color="#3AC1E4"/>
</linearGradient>
<linearGradient id="paint15_linear" x1="147" y1="59.5" x2="147" y2="67.5" gradientUnits="userSpaceOnUse">
<stop offset="0.46875" stop-color="#E0F9FF"/>
<stop offset="1" stop-color="#3AC1E4"/>
</linearGradient>
<linearGradient id="paint16_linear" x1="147" y1="59.5" x2="147" y2="67.5" gradientUnits="userSpaceOnUse">
<stop offset="0.46875" stop-color="#E0F9FF"/>
<stop offset="1" stop-color="#3AC1E4"/>
</linearGradient>
<linearGradient id="paint17_linear" x1="147" y1="59.5" x2="147" y2="67.5" gradientUnits="userSpaceOnUse">
<stop offset="0.46875" stop-color="#E0F9FF"/>
<stop offset="1" stop-color="#3AC1E4"/>
</linearGradient>
<linearGradient id="paint18_linear" x1="147" y1="59.5" x2="147" y2="67.5" gradientUnits="userSpaceOnUse">
<stop offset="0.46875" stop-color="#E0F9FF"/>
<stop offset="1" stop-color="#3AC1E4"/>
</linearGradient>
<linearGradient id="paint19_linear" x1="147" y1="59.5" x2="147" y2="67.5" gradientUnits="userSpaceOnUse">
<stop offset="0.46875" stop-color="#E0F9FF"/>
<stop offset="1" stop-color="#3AC1E4"/>
</linearGradient>
<linearGradient id="paint20_linear" x1="147" y1="59.5" x2="147" y2="67.5" gradientUnits="userSpaceOnUse">
<stop offset="0.46875" stop-color="#E0F9FF"/>
<stop offset="1" stop-color="#3AC1E4"/>
</linearGradient>
<linearGradient id="paint21_linear" x1="147" y1="59.5" x2="147" y2="67.5" gradientUnits="userSpaceOnUse">
<stop offset="0.46875" stop-color="#E0F9FF"/>
<stop offset="1" stop-color="#3AC1E4"/>
</linearGradient>
<linearGradient id="paint22_linear" x1="147" y1="59.5" x2="147" y2="67.5" gradientUnits="userSpaceOnUse">
<stop offset="0.46875" stop-color="#E0F9FF"/>
<stop offset="1" stop-color="#3AC1E4"/>
</linearGradient>
<linearGradient id="paint23_linear" x1="147" y1="59.5" x2="147" y2="67.5" gradientUnits="userSpaceOnUse">
<stop offset="0.46875" stop-color="#E0F9FF"/>
<stop offset="1" stop-color="#3AC1E4"/>
</linearGradient>
<linearGradient id="paint24_linear" x1="147" y1="59.5" x2="147" y2="67.5" gradientUnits="userSpaceOnUse">
<stop offset="0.46875" stop-color="#E0F9FF"/>
<stop offset="1" stop-color="#3AC1E4"/>
</linearGradient>
<linearGradient id="paint25_linear" x1="147" y1="59.5" x2="147" y2="67.5" gradientUnits="userSpaceOnUse">
<stop offset="0.46875" stop-color="#E0F9FF"/>
<stop offset="1" stop-color="#3AC1E4"/>
</linearGradient>
<linearGradient id="paint26_linear" x1="147" y1="59.5" x2="147" y2="67.5" gradientUnits="userSpaceOnUse">
<stop offset="0.46875" stop-color="#E0F9FF"/>
<stop offset="1" stop-color="#3AC1E4"/>
</linearGradient>
<linearGradient id="paint27_linear" x1="147" y1="59.5" x2="147" y2="67.5" gradientUnits="userSpaceOnUse">
<stop offset="0.46875" stop-color="#E0F9FF"/>
<stop offset="1" stop-color="#3AC1E4"/>
</linearGradient>
<linearGradient id="paint28_linear" x1="147" y1="59.5" x2="147" y2="67.5" gradientUnits="userSpaceOnUse">
<stop offset="0.46875" stop-color="#E0F9FF"/>
<stop offset="1" stop-color="#3AC1E4"/>
</linearGradient>
<linearGradient id="paint29_linear" x1="147" y1="59.5" x2="147" y2="67.5" gradientUnits="userSpaceOnUse">
<stop offset="0.46875" stop-color="#E0F9FF"/>
<stop offset="1" stop-color="#3AC1E4"/>
</linearGradient>
<linearGradient id="paint30_linear" x1="147" y1="59.5" x2="147" y2="67.5" gradientUnits="userSpaceOnUse">
<stop offset="0.46875" stop-color="#E0F9FF"/>
<stop offset="1" stop-color="#3AC1E4"/>
</linearGradient>
<linearGradient id="paint31_linear" x1="147" y1="59.5" x2="147" y2="67.5" gradientUnits="userSpaceOnUse">
<stop offset="0.46875" stop-color="#E0F9FF"/>
<stop offset="1" stop-color="#3AC1E4"/>
</linearGradient>
<linearGradient id="paint32_linear" x1="147" y1="59.5" x2="147" y2="67.5" gradientUnits="userSpaceOnUse">
<stop offset="0.46875" stop-color="#E0F9FF"/>
<stop offset="1" stop-color="#3AC1E4"/>
</linearGradient>
<linearGradient id="paint33_linear" x1="147" y1="59.5" x2="147" y2="67.5" gradientUnits="userSpaceOnUse">
<stop offset="0.46875" stop-color="#E0F9FF"/>
<stop offset="1" stop-color="#3AC1E4"/>
</linearGradient>
<linearGradient id="paint34_linear" x1="147" y1="59.5" x2="147" y2="67.5" gradientUnits="userSpaceOnUse">
<stop offset="0.46875" stop-color="#E0F9FF"/>
<stop offset="1" stop-color="#3AC1E4"/>
</linearGradient>
<linearGradient id="paint35_linear" x1="147" y1="59.5" x2="147" y2="67.5" gradientUnits="userSpaceOnUse">
<stop offset="0.46875" stop-color="#E0F9FF"/>
<stop offset="1" stop-color="#3AC1E4"/>
</linearGradient>
<linearGradient id="paint36_linear" x1="147" y1="59.5" x2="147" y2="67.5" gradientUnits="userSpaceOnUse">
<stop offset="0.46875" stop-color="#E0F9FF"/>
<stop offset="1" stop-color="#3AC1E4"/>
</linearGradient>
<linearGradient id="paint37_linear" x1="147" y1="59.5" x2="147" y2="67.5" gradientUnits="userSpaceOnUse">
<stop offset="0.46875" stop-color="#E0F9FF"/>
<stop offset="1" stop-color="#3AC1E4"/>
</linearGradient>
<linearGradient id="paint38_linear" x1="147" y1="59.5" x2="147" y2="67.5" gradientUnits="userSpaceOnUse">
<stop offset="0.46875" stop-color="#E0F9FF"/>
<stop offset="1" stop-color="#3AC1E4"/>
</linearGradient>
<linearGradient id="paint39_linear" x1="147" y1="59.5" x2="147" y2="67.5" gradientUnits="userSpaceOnUse">
<stop offset="0.46875" stop-color="#E0F9FF"/>
<stop offset="1" stop-color="#3AC1E4"/>
</linearGradient>
<linearGradient id="paint40_linear" x1="147" y1="59.5" x2="147" y2="67.5" gradientUnits="userSpaceOnUse">
<stop offset="0.46875" stop-color="#E0F9FF"/>
<stop offset="1" stop-color="#3AC1E4"/>
</linearGradient>
<linearGradient id="paint41_linear" x1="147" y1="59.5" x2="147" y2="67.5" gradientUnits="userSpaceOnUse">
<stop offset="0.46875" stop-color="#E0F9FF"/>
<stop offset="1" stop-color="#3AC1E4"/>
</linearGradient>
<linearGradient id="paint42_linear" x1="147" y1="59.5" x2="147" y2="67.5" gradientUnits="userSpaceOnUse">
<stop offset="0.46875" stop-color="#E0F9FF"/>
<stop offset="1" stop-color="#3AC1E4"/>
</linearGradient>
<linearGradient id="paint43_linear" x1="147" y1="59.5" x2="147" y2="67.5" gradientUnits="userSpaceOnUse">
<stop offset="0.46875" stop-color="#E0F9FF"/>
<stop offset="1" stop-color="#3AC1E4"/>
</linearGradient>
<linearGradient id="paint44_linear" x1="147" y1="59.5" x2="147" y2="67.5" gradientUnits="userSpaceOnUse">
<stop offset="0.46875" stop-color="#E0F9FF"/>
<stop offset="1" stop-color="#3AC1E4"/>
</linearGradient>
<linearGradient id="paint45_linear" x1="147" y1="59.5" x2="147" y2="67.5" gradientUnits="userSpaceOnUse">
<stop offset="0.46875" stop-color="#E0F9FF"/>
<stop offset="1" stop-color="#3AC1E4"/>
</linearGradient>
<linearGradient id="paint46_linear" x1="147" y1="59.5" x2="147" y2="67.5" gradientUnits="userSpaceOnUse">
<stop offset="0.46875" stop-color="#E0F9FF"/>
<stop offset="1" stop-color="#3AC1E4"/>
</linearGradient>
<linearGradient id="paint47_linear" x1="147" y1="59.5" x2="147" y2="67.5" gradientUnits="userSpaceOnUse">
<stop offset="0.46875" stop-color="#E0F9FF"/>
<stop offset="1" stop-color="#3AC1E4"/>
</linearGradient>
<linearGradient id="paint48_linear" x1="147" y1="59.5" x2="147" y2="67.5" gradientUnits="userSpaceOnUse">
<stop offset="0.46875" stop-color="#E0F9FF"/>
<stop offset="1" stop-color="#3AC1E4"/>
</linearGradient>
<linearGradient id="paint49_linear" x1="147" y1="59.5" x2="147" y2="67.5" gradientUnits="userSpaceOnUse">
<stop offset="0.46875" stop-color="#E0F9FF"/>
<stop offset="1" stop-color="#3AC1E4"/>
</linearGradient>
<linearGradient id="paint50_linear" x1="147" y1="59.5" x2="147" y2="67.5" gradientUnits="userSpaceOnUse">
<stop offset="0.46875" stop-color="#E0F9FF"/>
<stop offset="1" stop-color="#3AC1E4"/>
</linearGradient>
</defs>
</svg>
