<svg width="185" height="179" viewBox="0 0 185 179" fill="none" xmlns="http://www.w3.org/2000/svg">
<defs>
<linearGradient id="paint0_linear" x1="93.0182" y1="123.314" x2="98.114" y2="104.772" gradientUnits="userSpaceOnUse">
<stop stop-color="#3ED7A0"/>
<stop offset="1" stop-color="#57E4B1"/>
</linearGradient>
</defs>
<circle cx="94.3729" cy="79.3729" r="79.3729" fill="#E2EAF0"/>
<path d="M61.5 90L105 98.5L106.5 108L93.5 168L75 162L64.5 161L48 158L61.5 90Z" fill="white"/>
<path d="M109.454 94.5343L109.455 94.5254C108.206 92.7228 106.288 91.4897 104.127 91.0991L66.2998 84.2796C61.8044 83.4842 57.5122 86.4549 56.6902 90.9308L44.1839 160.302C43.7963 162.457 44.2861 164.678 45.5448 166.475C46.7922 168.275 48.7061 169.507 50.8642 169.899L88.7001 176.72C90.8594 177.106 93.0831 176.62 94.8806 175.369C96.6846 174.127 97.9185 172.22 98.3097 170.069L110.816 100.698C111.201 98.5454 110.71 96.3277 109.454 94.5343ZM70.7756 167.799C69.5602 167.58 68.752 166.421 68.9705 165.209C69.1889 163.998 70.3511 163.193 71.5665 163.412C72.7819 163.631 73.5901 164.791 73.3716 166.003C73.1532 167.214 71.991 168.019 70.7756 167.799ZM93.8534 157.741C93.325 160.672 90.513 162.618 87.5726 162.088L57.0217 156.58C54.0813 156.05 52.126 153.244 52.6544 150.313L61.9748 98.6141C62.5032 95.6831 65.3152 93.7368 68.2556 94.2669L98.8154 99.7763C101.756 100.306 103.711 103.112 103.183 106.043L93.8534 157.741Z" fill="#3D4C59"/>
<rect x="86.5737" y="112.385" width="58" height="12.8295" rx="6.41475" transform="rotate(-4.67528 86.5737 112.385)" fill="url(#paint0_linear)"/>
<path fill-rule="evenodd" clip-rule="evenodd" d="M133.761 113.451L132.638 110.763L131.967 113.598L129.063 113.835L131.552 115.35L130.88 118.184L133.09 116.285L135.578 117.8L134.455 115.112L136.664 113.214L133.761 113.451ZM124.135 111.727L125.258 114.415L128.161 114.177L125.952 116.076L127.075 118.763L124.587 117.249L122.378 119.148L123.049 116.313L120.561 114.799L123.464 114.561L124.135 111.727ZM116.755 115.378L115.632 112.69L114.961 115.525L112.058 115.762L114.546 117.277L113.875 120.111L116.084 118.213L118.572 119.727L117.449 117.039L119.659 115.141L116.755 115.378ZM107.13 113.654L108.253 116.342L111.156 116.104L108.947 118.003L110.07 120.69L107.581 119.176L105.372 121.075L106.043 118.24L103.555 116.726L106.458 116.488L107.13 113.654ZM98.6269 114.617L99.7499 117.305L102.653 117.068L100.444 118.966L101.567 121.654L99.0786 120.14L96.8694 122.038L97.5407 119.204L95.0524 117.689L97.9556 117.452L98.6269 114.617Z" fill="#FFFDF8"/>
<path d="M166.112 27.2687C169.001 26.2018 171.961 28.6618 171.441 31.6967L169.264 44.3978C168.743 47.4327 165.133 48.7664 162.765 46.7984L152.854 38.5624C150.485 36.5944 151.136 32.8007 154.024 31.7338L166.112 27.2687Z" fill="#A8CBE6" fill-opacity="0.5"/>
<path d="M32.8496 111.613C37.5163 114.307 37.5163 121.043 32.8496 123.737L21.3372 130.384C16.6706 133.078 10.8372 129.71 10.8372 124.322L10.8372 111.028C10.8372 105.64 16.6706 102.272 21.3372 104.966L32.8496 111.613Z" fill="#A8CBE5" fill-opacity="0.5"/>
<rect x="13.9927" y="38.7604" width="29.5139" height="29.5139" rx="10" transform="rotate(-70.1907 13.9927 38.7604)" fill="#A8CBE5" fill-opacity="0.5"/>
</svg>
