<svg width="200" height="175" viewBox="0 0 200 175" fill="none" xmlns="http://www.w3.org/2000/svg">
<circle cx="104.373" cy="93.3729" r="79.3729" fill="#E2EAF0"/>
<g clip-path="url(#clip0)">
<path d="M118.983 78.0641L113.748 78.8578L126.898 165.586L132.133 164.792C135.025 164.353 137.013 161.654 136.574 158.763L125.012 82.5053C124.573 79.6138 121.874 77.6256 118.983 78.0641Z" fill="#404242"/>
<path d="M113.748 78.8578L71.8669 85.2082C68.9754 85.6466 66.9872 88.3456 67.4256 91.2371L78.9886 167.495C79.427 170.386 82.1259 172.374 85.0174 171.936L126.898 165.586C129.79 165.147 131.778 162.448 131.339 159.557L129.752 149.087L109.059 118.574L119.776 83.2991C119.338 80.4076 116.639 78.4194 113.748 78.8578Z" fill="#3D4C59"/>
<path d="M112.223 157.1L106.988 157.894L107.782 163.129L113.017 162.335C114.462 162.116 115.456 160.766 115.237 159.321C115.018 157.875 113.668 156.881 112.223 157.1Z" fill="#8F8F8B"/>
<path d="M110.002 160.114C109.783 158.669 108.433 157.675 106.988 157.894L101.753 158.688C100.307 158.907 99.3127 160.256 99.5319 161.702C99.7511 163.148 101.101 164.142 102.546 163.923L107.781 163.129C109.227 162.91 110.221 161.56 110.002 160.114Z" fill="#ADACA7"/>
<path d="M101.206 119.765L124.517 149.88L129.752 149.087L119.776 83.2991L114.541 84.0929L101.206 119.765Z" fill="#4B88D5"/>
<path d="M103.622 85.7486L100.481 90.0117C99.6737 91.1028 98.4547 91.8876 97.0123 92.1063C95.5698 92.325 94.173 91.9368 93.0815 91.1337C93.0781 91.1342 88.815 87.9938 88.815 87.9938L72.6606 90.4433L82.636 156.231L124.517 149.88L114.541 84.0929L103.622 85.7486Z" fill="#69A7FF"/>
<path d="M96.3772 87.9182C96.9555 87.8305 97.3532 87.2907 97.2655 86.7125C97.1778 86.1342 96.638 85.7365 96.0597 85.8242C95.4815 85.9119 95.0838 86.4517 95.1715 87.03C95.2591 87.6082 95.799 88.0059 96.3772 87.9182Z" fill="#404242"/>
</g>
<g clip-path="url(#clip1)">
<path d="M55.7211 68.6584L43.6209 110.891C43.3925 111.689 43.8537 112.52 44.6511 112.749L77.6193 122.195C78.4167 122.423 79.2484 121.962 79.4768 121.164L91.577 78.9314C91.8055 78.134 91.3442 77.3024 90.5468 77.0739L57.5786 67.6282C56.7811 67.3997 55.9496 67.861 55.7211 68.6584Z" fill="#64798A"/>
<path d="M88.2754 79.548L79.6915 109.508C74.1406 109.502 69.8297 111.315 67.6175 116.204L46.922 110.275L58.1948 70.9296L88.2754 79.548Z" fill="#EBF0F3"/>
<path d="M79.6918 109.508L67.6177 116.204L70.3066 106.819L79.6918 109.508Z" fill="#D5D6DB"/>
<path d="M78.1135 71.8453C78.6847 69.8518 77.5316 67.7726 75.538 67.2014C73.5445 66.6302 71.4653 67.7833 70.8941 69.7769L67.1568 68.7061C66.5657 68.5368 65.9494 68.8786 65.78 69.4697L64.6351 73.4657C64.4658 74.0568 64.8076 74.6731 65.3987 74.8425L80.0927 79.0524C80.6838 79.2218 81.3001 78.88 81.4695 78.2889L82.6144 74.2929C82.7837 73.7018 82.4419 73.0854 81.8508 72.9161L78.1135 71.8453Z" fill="#2F4859"/>
<path d="M74.9346 69.3072C74.1039 69.0692 73.2377 69.5497 72.9998 70.3802C72.7618 71.2108 73.2422 72.0772 74.0728 72.3152C74.9033 72.5532 75.7697 72.0727 76.0077 71.242C76.2456 70.4114 75.7653 69.5452 74.9346 69.3072Z" fill="#EBF0F3"/>
<path d="M65.0423 103.835C69.9709 105.247 75.111 102.397 76.523 97.468C77.9351 92.5394 75.0845 87.3993 70.1559 85.9872C65.2273 84.5751 60.0872 87.4258 58.6751 92.3544C57.2631 97.2829 60.1137 102.423 65.0423 103.835Z" fill="#44C4A1"/>
<path d="M73.9781 92.7254C73.7085 92.2392 73.0962 92.0638 72.6101 92.3334L65.7071 96.1626L63.9012 92.9064C63.6316 92.4202 63.0193 92.2448 62.5331 92.5144C62.047 92.784 61.8716 93.3963 62.1412 93.8824L64.4351 98.0187C64.5646 98.2521 64.781 98.4244 65.0379 98.4981C65.2949 98.5717 65.5698 98.54 65.8032 98.4106L73.5862 94.0934C74.0723 93.8238 74.2477 93.2116 73.9781 92.7254Z" fill="#EBF0F3"/>
</g>
<path d="M59.8515 18.176C58.9596 15.2288 61.5926 12.4213 64.5909 13.1225L77.1387 16.057C80.137 16.7582 81.2519 20.4422 79.1455 22.6882L70.3303 32.0876C68.2239 34.3336 64.476 33.4571 63.5841 30.5099L59.8515 18.176Z" fill="#A8CBE5" fill-opacity="0.5"/>
<path d="M25.4873 140.282C20.1441 140.979 16.0494 135.631 18.1168 130.655L23.2172 118.379C25.2847 113.403 31.9637 112.531 35.2395 116.809L43.3206 127.364C46.5964 131.643 44.0121 137.863 38.6688 138.561L25.4873 140.282Z" fill="#A8CBE5" fill-opacity="0.5"/>
<rect x="162" y="77.7675" width="29.5139" height="29.5139" rx="10" transform="rotate(-70.1907 162 77.7675)" fill="#A8CBE5" fill-opacity="0.5"/>
<defs>
<clipPath id="clip0">
<rect width="87.7191" height="87.7191" fill="white" transform="translate(52.0608 88.2114) rotate(-8.62208)"/>
</clipPath>
<clipPath id="clip1">
<rect width="52.293" height="52.293" fill="white" transform="translate(50.4028 60) rotate(15.9875)"/>
</clipPath>
</defs>
</svg>
